G75*
%MOIN*%
%OFA0B0*%
%FSLAX25Y25*%
%IPPOS*%
%LPD*%
%AMOC8*
5,1,8,0,0,1.08239X$1,22.5*
%
%ADD10C,0.00000*%
%ADD11OC8,0.07400*%
%ADD12R,0.02200X0.05000*%
%ADD13R,0.05000X0.02200*%
%ADD14R,0.04300X0.07900*%
%ADD15R,0.03937X0.04331*%
%ADD16R,0.05000X0.05787*%
%ADD17R,0.03150X0.03150*%
%ADD18R,0.06693X0.03346*%
%ADD19R,0.07480X0.04331*%
%ADD20C,0.07400*%
%ADD21R,0.04331X0.03937*%
%ADD22C,0.05150*%
%ADD23C,0.06000*%
%ADD24R,0.02165X0.04724*%
%ADD25R,0.05906X0.05118*%
%ADD26C,0.00600*%
%ADD27C,0.02400*%
%ADD28C,0.01600*%
%ADD29C,0.01000*%
D10*
X0002800Y0003800D02*
X0002800Y0178800D01*
X0177800Y0178800D01*
X0177800Y0003800D01*
X0002800Y0003800D01*
X0006501Y0013800D02*
X0006503Y0013958D01*
X0006509Y0014116D01*
X0006519Y0014274D01*
X0006533Y0014432D01*
X0006551Y0014589D01*
X0006572Y0014746D01*
X0006598Y0014902D01*
X0006628Y0015058D01*
X0006661Y0015213D01*
X0006699Y0015366D01*
X0006740Y0015519D01*
X0006785Y0015671D01*
X0006834Y0015822D01*
X0006887Y0015971D01*
X0006943Y0016119D01*
X0007003Y0016265D01*
X0007067Y0016410D01*
X0007135Y0016553D01*
X0007206Y0016695D01*
X0007280Y0016835D01*
X0007358Y0016972D01*
X0007440Y0017108D01*
X0007524Y0017242D01*
X0007613Y0017373D01*
X0007704Y0017502D01*
X0007799Y0017629D01*
X0007896Y0017754D01*
X0007997Y0017876D01*
X0008101Y0017995D01*
X0008208Y0018112D01*
X0008318Y0018226D01*
X0008431Y0018337D01*
X0008546Y0018446D01*
X0008664Y0018551D01*
X0008785Y0018653D01*
X0008908Y0018753D01*
X0009034Y0018849D01*
X0009162Y0018942D01*
X0009292Y0019032D01*
X0009425Y0019118D01*
X0009560Y0019202D01*
X0009696Y0019281D01*
X0009835Y0019358D01*
X0009976Y0019430D01*
X0010118Y0019500D01*
X0010262Y0019565D01*
X0010408Y0019627D01*
X0010555Y0019685D01*
X0010704Y0019740D01*
X0010854Y0019791D01*
X0011005Y0019838D01*
X0011157Y0019881D01*
X0011310Y0019920D01*
X0011465Y0019956D01*
X0011620Y0019987D01*
X0011776Y0020015D01*
X0011932Y0020039D01*
X0012089Y0020059D01*
X0012247Y0020075D01*
X0012404Y0020087D01*
X0012563Y0020095D01*
X0012721Y0020099D01*
X0012879Y0020099D01*
X0013037Y0020095D01*
X0013196Y0020087D01*
X0013353Y0020075D01*
X0013511Y0020059D01*
X0013668Y0020039D01*
X0013824Y0020015D01*
X0013980Y0019987D01*
X0014135Y0019956D01*
X0014290Y0019920D01*
X0014443Y0019881D01*
X0014595Y0019838D01*
X0014746Y0019791D01*
X0014896Y0019740D01*
X0015045Y0019685D01*
X0015192Y0019627D01*
X0015338Y0019565D01*
X0015482Y0019500D01*
X0015624Y0019430D01*
X0015765Y0019358D01*
X0015904Y0019281D01*
X0016040Y0019202D01*
X0016175Y0019118D01*
X0016308Y0019032D01*
X0016438Y0018942D01*
X0016566Y0018849D01*
X0016692Y0018753D01*
X0016815Y0018653D01*
X0016936Y0018551D01*
X0017054Y0018446D01*
X0017169Y0018337D01*
X0017282Y0018226D01*
X0017392Y0018112D01*
X0017499Y0017995D01*
X0017603Y0017876D01*
X0017704Y0017754D01*
X0017801Y0017629D01*
X0017896Y0017502D01*
X0017987Y0017373D01*
X0018076Y0017242D01*
X0018160Y0017108D01*
X0018242Y0016972D01*
X0018320Y0016835D01*
X0018394Y0016695D01*
X0018465Y0016553D01*
X0018533Y0016410D01*
X0018597Y0016265D01*
X0018657Y0016119D01*
X0018713Y0015971D01*
X0018766Y0015822D01*
X0018815Y0015671D01*
X0018860Y0015519D01*
X0018901Y0015366D01*
X0018939Y0015213D01*
X0018972Y0015058D01*
X0019002Y0014902D01*
X0019028Y0014746D01*
X0019049Y0014589D01*
X0019067Y0014432D01*
X0019081Y0014274D01*
X0019091Y0014116D01*
X0019097Y0013958D01*
X0019099Y0013800D01*
X0019097Y0013642D01*
X0019091Y0013484D01*
X0019081Y0013326D01*
X0019067Y0013168D01*
X0019049Y0013011D01*
X0019028Y0012854D01*
X0019002Y0012698D01*
X0018972Y0012542D01*
X0018939Y0012387D01*
X0018901Y0012234D01*
X0018860Y0012081D01*
X0018815Y0011929D01*
X0018766Y0011778D01*
X0018713Y0011629D01*
X0018657Y0011481D01*
X0018597Y0011335D01*
X0018533Y0011190D01*
X0018465Y0011047D01*
X0018394Y0010905D01*
X0018320Y0010765D01*
X0018242Y0010628D01*
X0018160Y0010492D01*
X0018076Y0010358D01*
X0017987Y0010227D01*
X0017896Y0010098D01*
X0017801Y0009971D01*
X0017704Y0009846D01*
X0017603Y0009724D01*
X0017499Y0009605D01*
X0017392Y0009488D01*
X0017282Y0009374D01*
X0017169Y0009263D01*
X0017054Y0009154D01*
X0016936Y0009049D01*
X0016815Y0008947D01*
X0016692Y0008847D01*
X0016566Y0008751D01*
X0016438Y0008658D01*
X0016308Y0008568D01*
X0016175Y0008482D01*
X0016040Y0008398D01*
X0015904Y0008319D01*
X0015765Y0008242D01*
X0015624Y0008170D01*
X0015482Y0008100D01*
X0015338Y0008035D01*
X0015192Y0007973D01*
X0015045Y0007915D01*
X0014896Y0007860D01*
X0014746Y0007809D01*
X0014595Y0007762D01*
X0014443Y0007719D01*
X0014290Y0007680D01*
X0014135Y0007644D01*
X0013980Y0007613D01*
X0013824Y0007585D01*
X0013668Y0007561D01*
X0013511Y0007541D01*
X0013353Y0007525D01*
X0013196Y0007513D01*
X0013037Y0007505D01*
X0012879Y0007501D01*
X0012721Y0007501D01*
X0012563Y0007505D01*
X0012404Y0007513D01*
X0012247Y0007525D01*
X0012089Y0007541D01*
X0011932Y0007561D01*
X0011776Y0007585D01*
X0011620Y0007613D01*
X0011465Y0007644D01*
X0011310Y0007680D01*
X0011157Y0007719D01*
X0011005Y0007762D01*
X0010854Y0007809D01*
X0010704Y0007860D01*
X0010555Y0007915D01*
X0010408Y0007973D01*
X0010262Y0008035D01*
X0010118Y0008100D01*
X0009976Y0008170D01*
X0009835Y0008242D01*
X0009696Y0008319D01*
X0009560Y0008398D01*
X0009425Y0008482D01*
X0009292Y0008568D01*
X0009162Y0008658D01*
X0009034Y0008751D01*
X0008908Y0008847D01*
X0008785Y0008947D01*
X0008664Y0009049D01*
X0008546Y0009154D01*
X0008431Y0009263D01*
X0008318Y0009374D01*
X0008208Y0009488D01*
X0008101Y0009605D01*
X0007997Y0009724D01*
X0007896Y0009846D01*
X0007799Y0009971D01*
X0007704Y0010098D01*
X0007613Y0010227D01*
X0007524Y0010358D01*
X0007440Y0010492D01*
X0007358Y0010628D01*
X0007280Y0010765D01*
X0007206Y0010905D01*
X0007135Y0011047D01*
X0007067Y0011190D01*
X0007003Y0011335D01*
X0006943Y0011481D01*
X0006887Y0011629D01*
X0006834Y0011778D01*
X0006785Y0011929D01*
X0006740Y0012081D01*
X0006699Y0012234D01*
X0006661Y0012387D01*
X0006628Y0012542D01*
X0006598Y0012698D01*
X0006572Y0012854D01*
X0006551Y0013011D01*
X0006533Y0013168D01*
X0006519Y0013326D01*
X0006509Y0013484D01*
X0006503Y0013642D01*
X0006501Y0013800D01*
X0006501Y0168800D02*
X0006503Y0168958D01*
X0006509Y0169116D01*
X0006519Y0169274D01*
X0006533Y0169432D01*
X0006551Y0169589D01*
X0006572Y0169746D01*
X0006598Y0169902D01*
X0006628Y0170058D01*
X0006661Y0170213D01*
X0006699Y0170366D01*
X0006740Y0170519D01*
X0006785Y0170671D01*
X0006834Y0170822D01*
X0006887Y0170971D01*
X0006943Y0171119D01*
X0007003Y0171265D01*
X0007067Y0171410D01*
X0007135Y0171553D01*
X0007206Y0171695D01*
X0007280Y0171835D01*
X0007358Y0171972D01*
X0007440Y0172108D01*
X0007524Y0172242D01*
X0007613Y0172373D01*
X0007704Y0172502D01*
X0007799Y0172629D01*
X0007896Y0172754D01*
X0007997Y0172876D01*
X0008101Y0172995D01*
X0008208Y0173112D01*
X0008318Y0173226D01*
X0008431Y0173337D01*
X0008546Y0173446D01*
X0008664Y0173551D01*
X0008785Y0173653D01*
X0008908Y0173753D01*
X0009034Y0173849D01*
X0009162Y0173942D01*
X0009292Y0174032D01*
X0009425Y0174118D01*
X0009560Y0174202D01*
X0009696Y0174281D01*
X0009835Y0174358D01*
X0009976Y0174430D01*
X0010118Y0174500D01*
X0010262Y0174565D01*
X0010408Y0174627D01*
X0010555Y0174685D01*
X0010704Y0174740D01*
X0010854Y0174791D01*
X0011005Y0174838D01*
X0011157Y0174881D01*
X0011310Y0174920D01*
X0011465Y0174956D01*
X0011620Y0174987D01*
X0011776Y0175015D01*
X0011932Y0175039D01*
X0012089Y0175059D01*
X0012247Y0175075D01*
X0012404Y0175087D01*
X0012563Y0175095D01*
X0012721Y0175099D01*
X0012879Y0175099D01*
X0013037Y0175095D01*
X0013196Y0175087D01*
X0013353Y0175075D01*
X0013511Y0175059D01*
X0013668Y0175039D01*
X0013824Y0175015D01*
X0013980Y0174987D01*
X0014135Y0174956D01*
X0014290Y0174920D01*
X0014443Y0174881D01*
X0014595Y0174838D01*
X0014746Y0174791D01*
X0014896Y0174740D01*
X0015045Y0174685D01*
X0015192Y0174627D01*
X0015338Y0174565D01*
X0015482Y0174500D01*
X0015624Y0174430D01*
X0015765Y0174358D01*
X0015904Y0174281D01*
X0016040Y0174202D01*
X0016175Y0174118D01*
X0016308Y0174032D01*
X0016438Y0173942D01*
X0016566Y0173849D01*
X0016692Y0173753D01*
X0016815Y0173653D01*
X0016936Y0173551D01*
X0017054Y0173446D01*
X0017169Y0173337D01*
X0017282Y0173226D01*
X0017392Y0173112D01*
X0017499Y0172995D01*
X0017603Y0172876D01*
X0017704Y0172754D01*
X0017801Y0172629D01*
X0017896Y0172502D01*
X0017987Y0172373D01*
X0018076Y0172242D01*
X0018160Y0172108D01*
X0018242Y0171972D01*
X0018320Y0171835D01*
X0018394Y0171695D01*
X0018465Y0171553D01*
X0018533Y0171410D01*
X0018597Y0171265D01*
X0018657Y0171119D01*
X0018713Y0170971D01*
X0018766Y0170822D01*
X0018815Y0170671D01*
X0018860Y0170519D01*
X0018901Y0170366D01*
X0018939Y0170213D01*
X0018972Y0170058D01*
X0019002Y0169902D01*
X0019028Y0169746D01*
X0019049Y0169589D01*
X0019067Y0169432D01*
X0019081Y0169274D01*
X0019091Y0169116D01*
X0019097Y0168958D01*
X0019099Y0168800D01*
X0019097Y0168642D01*
X0019091Y0168484D01*
X0019081Y0168326D01*
X0019067Y0168168D01*
X0019049Y0168011D01*
X0019028Y0167854D01*
X0019002Y0167698D01*
X0018972Y0167542D01*
X0018939Y0167387D01*
X0018901Y0167234D01*
X0018860Y0167081D01*
X0018815Y0166929D01*
X0018766Y0166778D01*
X0018713Y0166629D01*
X0018657Y0166481D01*
X0018597Y0166335D01*
X0018533Y0166190D01*
X0018465Y0166047D01*
X0018394Y0165905D01*
X0018320Y0165765D01*
X0018242Y0165628D01*
X0018160Y0165492D01*
X0018076Y0165358D01*
X0017987Y0165227D01*
X0017896Y0165098D01*
X0017801Y0164971D01*
X0017704Y0164846D01*
X0017603Y0164724D01*
X0017499Y0164605D01*
X0017392Y0164488D01*
X0017282Y0164374D01*
X0017169Y0164263D01*
X0017054Y0164154D01*
X0016936Y0164049D01*
X0016815Y0163947D01*
X0016692Y0163847D01*
X0016566Y0163751D01*
X0016438Y0163658D01*
X0016308Y0163568D01*
X0016175Y0163482D01*
X0016040Y0163398D01*
X0015904Y0163319D01*
X0015765Y0163242D01*
X0015624Y0163170D01*
X0015482Y0163100D01*
X0015338Y0163035D01*
X0015192Y0162973D01*
X0015045Y0162915D01*
X0014896Y0162860D01*
X0014746Y0162809D01*
X0014595Y0162762D01*
X0014443Y0162719D01*
X0014290Y0162680D01*
X0014135Y0162644D01*
X0013980Y0162613D01*
X0013824Y0162585D01*
X0013668Y0162561D01*
X0013511Y0162541D01*
X0013353Y0162525D01*
X0013196Y0162513D01*
X0013037Y0162505D01*
X0012879Y0162501D01*
X0012721Y0162501D01*
X0012563Y0162505D01*
X0012404Y0162513D01*
X0012247Y0162525D01*
X0012089Y0162541D01*
X0011932Y0162561D01*
X0011776Y0162585D01*
X0011620Y0162613D01*
X0011465Y0162644D01*
X0011310Y0162680D01*
X0011157Y0162719D01*
X0011005Y0162762D01*
X0010854Y0162809D01*
X0010704Y0162860D01*
X0010555Y0162915D01*
X0010408Y0162973D01*
X0010262Y0163035D01*
X0010118Y0163100D01*
X0009976Y0163170D01*
X0009835Y0163242D01*
X0009696Y0163319D01*
X0009560Y0163398D01*
X0009425Y0163482D01*
X0009292Y0163568D01*
X0009162Y0163658D01*
X0009034Y0163751D01*
X0008908Y0163847D01*
X0008785Y0163947D01*
X0008664Y0164049D01*
X0008546Y0164154D01*
X0008431Y0164263D01*
X0008318Y0164374D01*
X0008208Y0164488D01*
X0008101Y0164605D01*
X0007997Y0164724D01*
X0007896Y0164846D01*
X0007799Y0164971D01*
X0007704Y0165098D01*
X0007613Y0165227D01*
X0007524Y0165358D01*
X0007440Y0165492D01*
X0007358Y0165628D01*
X0007280Y0165765D01*
X0007206Y0165905D01*
X0007135Y0166047D01*
X0007067Y0166190D01*
X0007003Y0166335D01*
X0006943Y0166481D01*
X0006887Y0166629D01*
X0006834Y0166778D01*
X0006785Y0166929D01*
X0006740Y0167081D01*
X0006699Y0167234D01*
X0006661Y0167387D01*
X0006628Y0167542D01*
X0006598Y0167698D01*
X0006572Y0167854D01*
X0006551Y0168011D01*
X0006533Y0168168D01*
X0006519Y0168326D01*
X0006509Y0168484D01*
X0006503Y0168642D01*
X0006501Y0168800D01*
X0161501Y0168800D02*
X0161503Y0168958D01*
X0161509Y0169116D01*
X0161519Y0169274D01*
X0161533Y0169432D01*
X0161551Y0169589D01*
X0161572Y0169746D01*
X0161598Y0169902D01*
X0161628Y0170058D01*
X0161661Y0170213D01*
X0161699Y0170366D01*
X0161740Y0170519D01*
X0161785Y0170671D01*
X0161834Y0170822D01*
X0161887Y0170971D01*
X0161943Y0171119D01*
X0162003Y0171265D01*
X0162067Y0171410D01*
X0162135Y0171553D01*
X0162206Y0171695D01*
X0162280Y0171835D01*
X0162358Y0171972D01*
X0162440Y0172108D01*
X0162524Y0172242D01*
X0162613Y0172373D01*
X0162704Y0172502D01*
X0162799Y0172629D01*
X0162896Y0172754D01*
X0162997Y0172876D01*
X0163101Y0172995D01*
X0163208Y0173112D01*
X0163318Y0173226D01*
X0163431Y0173337D01*
X0163546Y0173446D01*
X0163664Y0173551D01*
X0163785Y0173653D01*
X0163908Y0173753D01*
X0164034Y0173849D01*
X0164162Y0173942D01*
X0164292Y0174032D01*
X0164425Y0174118D01*
X0164560Y0174202D01*
X0164696Y0174281D01*
X0164835Y0174358D01*
X0164976Y0174430D01*
X0165118Y0174500D01*
X0165262Y0174565D01*
X0165408Y0174627D01*
X0165555Y0174685D01*
X0165704Y0174740D01*
X0165854Y0174791D01*
X0166005Y0174838D01*
X0166157Y0174881D01*
X0166310Y0174920D01*
X0166465Y0174956D01*
X0166620Y0174987D01*
X0166776Y0175015D01*
X0166932Y0175039D01*
X0167089Y0175059D01*
X0167247Y0175075D01*
X0167404Y0175087D01*
X0167563Y0175095D01*
X0167721Y0175099D01*
X0167879Y0175099D01*
X0168037Y0175095D01*
X0168196Y0175087D01*
X0168353Y0175075D01*
X0168511Y0175059D01*
X0168668Y0175039D01*
X0168824Y0175015D01*
X0168980Y0174987D01*
X0169135Y0174956D01*
X0169290Y0174920D01*
X0169443Y0174881D01*
X0169595Y0174838D01*
X0169746Y0174791D01*
X0169896Y0174740D01*
X0170045Y0174685D01*
X0170192Y0174627D01*
X0170338Y0174565D01*
X0170482Y0174500D01*
X0170624Y0174430D01*
X0170765Y0174358D01*
X0170904Y0174281D01*
X0171040Y0174202D01*
X0171175Y0174118D01*
X0171308Y0174032D01*
X0171438Y0173942D01*
X0171566Y0173849D01*
X0171692Y0173753D01*
X0171815Y0173653D01*
X0171936Y0173551D01*
X0172054Y0173446D01*
X0172169Y0173337D01*
X0172282Y0173226D01*
X0172392Y0173112D01*
X0172499Y0172995D01*
X0172603Y0172876D01*
X0172704Y0172754D01*
X0172801Y0172629D01*
X0172896Y0172502D01*
X0172987Y0172373D01*
X0173076Y0172242D01*
X0173160Y0172108D01*
X0173242Y0171972D01*
X0173320Y0171835D01*
X0173394Y0171695D01*
X0173465Y0171553D01*
X0173533Y0171410D01*
X0173597Y0171265D01*
X0173657Y0171119D01*
X0173713Y0170971D01*
X0173766Y0170822D01*
X0173815Y0170671D01*
X0173860Y0170519D01*
X0173901Y0170366D01*
X0173939Y0170213D01*
X0173972Y0170058D01*
X0174002Y0169902D01*
X0174028Y0169746D01*
X0174049Y0169589D01*
X0174067Y0169432D01*
X0174081Y0169274D01*
X0174091Y0169116D01*
X0174097Y0168958D01*
X0174099Y0168800D01*
X0174097Y0168642D01*
X0174091Y0168484D01*
X0174081Y0168326D01*
X0174067Y0168168D01*
X0174049Y0168011D01*
X0174028Y0167854D01*
X0174002Y0167698D01*
X0173972Y0167542D01*
X0173939Y0167387D01*
X0173901Y0167234D01*
X0173860Y0167081D01*
X0173815Y0166929D01*
X0173766Y0166778D01*
X0173713Y0166629D01*
X0173657Y0166481D01*
X0173597Y0166335D01*
X0173533Y0166190D01*
X0173465Y0166047D01*
X0173394Y0165905D01*
X0173320Y0165765D01*
X0173242Y0165628D01*
X0173160Y0165492D01*
X0173076Y0165358D01*
X0172987Y0165227D01*
X0172896Y0165098D01*
X0172801Y0164971D01*
X0172704Y0164846D01*
X0172603Y0164724D01*
X0172499Y0164605D01*
X0172392Y0164488D01*
X0172282Y0164374D01*
X0172169Y0164263D01*
X0172054Y0164154D01*
X0171936Y0164049D01*
X0171815Y0163947D01*
X0171692Y0163847D01*
X0171566Y0163751D01*
X0171438Y0163658D01*
X0171308Y0163568D01*
X0171175Y0163482D01*
X0171040Y0163398D01*
X0170904Y0163319D01*
X0170765Y0163242D01*
X0170624Y0163170D01*
X0170482Y0163100D01*
X0170338Y0163035D01*
X0170192Y0162973D01*
X0170045Y0162915D01*
X0169896Y0162860D01*
X0169746Y0162809D01*
X0169595Y0162762D01*
X0169443Y0162719D01*
X0169290Y0162680D01*
X0169135Y0162644D01*
X0168980Y0162613D01*
X0168824Y0162585D01*
X0168668Y0162561D01*
X0168511Y0162541D01*
X0168353Y0162525D01*
X0168196Y0162513D01*
X0168037Y0162505D01*
X0167879Y0162501D01*
X0167721Y0162501D01*
X0167563Y0162505D01*
X0167404Y0162513D01*
X0167247Y0162525D01*
X0167089Y0162541D01*
X0166932Y0162561D01*
X0166776Y0162585D01*
X0166620Y0162613D01*
X0166465Y0162644D01*
X0166310Y0162680D01*
X0166157Y0162719D01*
X0166005Y0162762D01*
X0165854Y0162809D01*
X0165704Y0162860D01*
X0165555Y0162915D01*
X0165408Y0162973D01*
X0165262Y0163035D01*
X0165118Y0163100D01*
X0164976Y0163170D01*
X0164835Y0163242D01*
X0164696Y0163319D01*
X0164560Y0163398D01*
X0164425Y0163482D01*
X0164292Y0163568D01*
X0164162Y0163658D01*
X0164034Y0163751D01*
X0163908Y0163847D01*
X0163785Y0163947D01*
X0163664Y0164049D01*
X0163546Y0164154D01*
X0163431Y0164263D01*
X0163318Y0164374D01*
X0163208Y0164488D01*
X0163101Y0164605D01*
X0162997Y0164724D01*
X0162896Y0164846D01*
X0162799Y0164971D01*
X0162704Y0165098D01*
X0162613Y0165227D01*
X0162524Y0165358D01*
X0162440Y0165492D01*
X0162358Y0165628D01*
X0162280Y0165765D01*
X0162206Y0165905D01*
X0162135Y0166047D01*
X0162067Y0166190D01*
X0162003Y0166335D01*
X0161943Y0166481D01*
X0161887Y0166629D01*
X0161834Y0166778D01*
X0161785Y0166929D01*
X0161740Y0167081D01*
X0161699Y0167234D01*
X0161661Y0167387D01*
X0161628Y0167542D01*
X0161598Y0167698D01*
X0161572Y0167854D01*
X0161551Y0168011D01*
X0161533Y0168168D01*
X0161519Y0168326D01*
X0161509Y0168484D01*
X0161503Y0168642D01*
X0161501Y0168800D01*
X0161501Y0013800D02*
X0161503Y0013958D01*
X0161509Y0014116D01*
X0161519Y0014274D01*
X0161533Y0014432D01*
X0161551Y0014589D01*
X0161572Y0014746D01*
X0161598Y0014902D01*
X0161628Y0015058D01*
X0161661Y0015213D01*
X0161699Y0015366D01*
X0161740Y0015519D01*
X0161785Y0015671D01*
X0161834Y0015822D01*
X0161887Y0015971D01*
X0161943Y0016119D01*
X0162003Y0016265D01*
X0162067Y0016410D01*
X0162135Y0016553D01*
X0162206Y0016695D01*
X0162280Y0016835D01*
X0162358Y0016972D01*
X0162440Y0017108D01*
X0162524Y0017242D01*
X0162613Y0017373D01*
X0162704Y0017502D01*
X0162799Y0017629D01*
X0162896Y0017754D01*
X0162997Y0017876D01*
X0163101Y0017995D01*
X0163208Y0018112D01*
X0163318Y0018226D01*
X0163431Y0018337D01*
X0163546Y0018446D01*
X0163664Y0018551D01*
X0163785Y0018653D01*
X0163908Y0018753D01*
X0164034Y0018849D01*
X0164162Y0018942D01*
X0164292Y0019032D01*
X0164425Y0019118D01*
X0164560Y0019202D01*
X0164696Y0019281D01*
X0164835Y0019358D01*
X0164976Y0019430D01*
X0165118Y0019500D01*
X0165262Y0019565D01*
X0165408Y0019627D01*
X0165555Y0019685D01*
X0165704Y0019740D01*
X0165854Y0019791D01*
X0166005Y0019838D01*
X0166157Y0019881D01*
X0166310Y0019920D01*
X0166465Y0019956D01*
X0166620Y0019987D01*
X0166776Y0020015D01*
X0166932Y0020039D01*
X0167089Y0020059D01*
X0167247Y0020075D01*
X0167404Y0020087D01*
X0167563Y0020095D01*
X0167721Y0020099D01*
X0167879Y0020099D01*
X0168037Y0020095D01*
X0168196Y0020087D01*
X0168353Y0020075D01*
X0168511Y0020059D01*
X0168668Y0020039D01*
X0168824Y0020015D01*
X0168980Y0019987D01*
X0169135Y0019956D01*
X0169290Y0019920D01*
X0169443Y0019881D01*
X0169595Y0019838D01*
X0169746Y0019791D01*
X0169896Y0019740D01*
X0170045Y0019685D01*
X0170192Y0019627D01*
X0170338Y0019565D01*
X0170482Y0019500D01*
X0170624Y0019430D01*
X0170765Y0019358D01*
X0170904Y0019281D01*
X0171040Y0019202D01*
X0171175Y0019118D01*
X0171308Y0019032D01*
X0171438Y0018942D01*
X0171566Y0018849D01*
X0171692Y0018753D01*
X0171815Y0018653D01*
X0171936Y0018551D01*
X0172054Y0018446D01*
X0172169Y0018337D01*
X0172282Y0018226D01*
X0172392Y0018112D01*
X0172499Y0017995D01*
X0172603Y0017876D01*
X0172704Y0017754D01*
X0172801Y0017629D01*
X0172896Y0017502D01*
X0172987Y0017373D01*
X0173076Y0017242D01*
X0173160Y0017108D01*
X0173242Y0016972D01*
X0173320Y0016835D01*
X0173394Y0016695D01*
X0173465Y0016553D01*
X0173533Y0016410D01*
X0173597Y0016265D01*
X0173657Y0016119D01*
X0173713Y0015971D01*
X0173766Y0015822D01*
X0173815Y0015671D01*
X0173860Y0015519D01*
X0173901Y0015366D01*
X0173939Y0015213D01*
X0173972Y0015058D01*
X0174002Y0014902D01*
X0174028Y0014746D01*
X0174049Y0014589D01*
X0174067Y0014432D01*
X0174081Y0014274D01*
X0174091Y0014116D01*
X0174097Y0013958D01*
X0174099Y0013800D01*
X0174097Y0013642D01*
X0174091Y0013484D01*
X0174081Y0013326D01*
X0174067Y0013168D01*
X0174049Y0013011D01*
X0174028Y0012854D01*
X0174002Y0012698D01*
X0173972Y0012542D01*
X0173939Y0012387D01*
X0173901Y0012234D01*
X0173860Y0012081D01*
X0173815Y0011929D01*
X0173766Y0011778D01*
X0173713Y0011629D01*
X0173657Y0011481D01*
X0173597Y0011335D01*
X0173533Y0011190D01*
X0173465Y0011047D01*
X0173394Y0010905D01*
X0173320Y0010765D01*
X0173242Y0010628D01*
X0173160Y0010492D01*
X0173076Y0010358D01*
X0172987Y0010227D01*
X0172896Y0010098D01*
X0172801Y0009971D01*
X0172704Y0009846D01*
X0172603Y0009724D01*
X0172499Y0009605D01*
X0172392Y0009488D01*
X0172282Y0009374D01*
X0172169Y0009263D01*
X0172054Y0009154D01*
X0171936Y0009049D01*
X0171815Y0008947D01*
X0171692Y0008847D01*
X0171566Y0008751D01*
X0171438Y0008658D01*
X0171308Y0008568D01*
X0171175Y0008482D01*
X0171040Y0008398D01*
X0170904Y0008319D01*
X0170765Y0008242D01*
X0170624Y0008170D01*
X0170482Y0008100D01*
X0170338Y0008035D01*
X0170192Y0007973D01*
X0170045Y0007915D01*
X0169896Y0007860D01*
X0169746Y0007809D01*
X0169595Y0007762D01*
X0169443Y0007719D01*
X0169290Y0007680D01*
X0169135Y0007644D01*
X0168980Y0007613D01*
X0168824Y0007585D01*
X0168668Y0007561D01*
X0168511Y0007541D01*
X0168353Y0007525D01*
X0168196Y0007513D01*
X0168037Y0007505D01*
X0167879Y0007501D01*
X0167721Y0007501D01*
X0167563Y0007505D01*
X0167404Y0007513D01*
X0167247Y0007525D01*
X0167089Y0007541D01*
X0166932Y0007561D01*
X0166776Y0007585D01*
X0166620Y0007613D01*
X0166465Y0007644D01*
X0166310Y0007680D01*
X0166157Y0007719D01*
X0166005Y0007762D01*
X0165854Y0007809D01*
X0165704Y0007860D01*
X0165555Y0007915D01*
X0165408Y0007973D01*
X0165262Y0008035D01*
X0165118Y0008100D01*
X0164976Y0008170D01*
X0164835Y0008242D01*
X0164696Y0008319D01*
X0164560Y0008398D01*
X0164425Y0008482D01*
X0164292Y0008568D01*
X0164162Y0008658D01*
X0164034Y0008751D01*
X0163908Y0008847D01*
X0163785Y0008947D01*
X0163664Y0009049D01*
X0163546Y0009154D01*
X0163431Y0009263D01*
X0163318Y0009374D01*
X0163208Y0009488D01*
X0163101Y0009605D01*
X0162997Y0009724D01*
X0162896Y0009846D01*
X0162799Y0009971D01*
X0162704Y0010098D01*
X0162613Y0010227D01*
X0162524Y0010358D01*
X0162440Y0010492D01*
X0162358Y0010628D01*
X0162280Y0010765D01*
X0162206Y0010905D01*
X0162135Y0011047D01*
X0162067Y0011190D01*
X0162003Y0011335D01*
X0161943Y0011481D01*
X0161887Y0011629D01*
X0161834Y0011778D01*
X0161785Y0011929D01*
X0161740Y0012081D01*
X0161699Y0012234D01*
X0161661Y0012387D01*
X0161628Y0012542D01*
X0161598Y0012698D01*
X0161572Y0012854D01*
X0161551Y0013011D01*
X0161533Y0013168D01*
X0161519Y0013326D01*
X0161509Y0013484D01*
X0161503Y0013642D01*
X0161501Y0013800D01*
D11*
X0157800Y0027800D03*
X0157800Y0037800D03*
X0167800Y0037800D03*
X0167800Y0027800D03*
X0167800Y0047800D03*
X0157800Y0047800D03*
D12*
X0118824Y0075900D03*
X0115674Y0075900D03*
X0112524Y0075900D03*
X0109375Y0075900D03*
X0106225Y0075900D03*
X0103076Y0075900D03*
X0099926Y0075900D03*
X0096776Y0075900D03*
X0096776Y0109700D03*
X0099926Y0109700D03*
X0103076Y0109700D03*
X0106225Y0109700D03*
X0109375Y0109700D03*
X0112524Y0109700D03*
X0115674Y0109700D03*
X0118824Y0109700D03*
D13*
X0124700Y0103824D03*
X0124700Y0100674D03*
X0124700Y0097524D03*
X0124700Y0094375D03*
X0124700Y0091225D03*
X0124700Y0088076D03*
X0124700Y0084926D03*
X0124700Y0081776D03*
X0090900Y0081776D03*
X0090900Y0084926D03*
X0090900Y0088076D03*
X0090900Y0091225D03*
X0090900Y0094375D03*
X0090900Y0097524D03*
X0090900Y0100674D03*
X0090900Y0103824D03*
D14*
X0087800Y0049500D03*
X0077800Y0049500D03*
X0067800Y0049500D03*
X0097800Y0049500D03*
X0107800Y0049500D03*
X0117800Y0049500D03*
X0127800Y0049500D03*
X0137800Y0049500D03*
X0137800Y0014100D03*
X0127800Y0014100D03*
X0117800Y0014100D03*
X0107800Y0014100D03*
X0097800Y0014100D03*
X0087800Y0014100D03*
X0077800Y0014100D03*
X0067800Y0014100D03*
D15*
X0083800Y0120454D03*
X0083800Y0127146D03*
X0061800Y0159454D03*
X0061800Y0166146D03*
X0099800Y0168146D03*
X0099800Y0161454D03*
X0116800Y0129146D03*
X0116800Y0122454D03*
X0138800Y0154454D03*
X0138800Y0161146D03*
X0148800Y0161146D03*
X0148800Y0154454D03*
X0157800Y0156146D03*
X0157800Y0149454D03*
D16*
X0044265Y0167800D03*
X0027335Y0167800D03*
D17*
X0138800Y0167847D03*
X0138800Y0173753D03*
X0148800Y0173753D03*
X0148800Y0167847D03*
D18*
X0140202Y0132540D03*
X0152013Y0124666D03*
X0140202Y0116792D03*
X0152013Y0108918D03*
X0140202Y0101044D03*
X0152013Y0093170D03*
X0140202Y0085296D03*
X0152013Y0077422D03*
X0140202Y0069548D03*
X0152013Y0061674D03*
X0065398Y0061674D03*
X0053587Y0069548D03*
X0065398Y0077422D03*
X0053587Y0085296D03*
X0065398Y0093170D03*
X0053587Y0101044D03*
X0065398Y0108918D03*
X0053587Y0116792D03*
X0065398Y0124666D03*
X0053587Y0132540D03*
D19*
X0093517Y0129328D03*
X0093517Y0120272D03*
X0108083Y0120272D03*
X0108083Y0129328D03*
D20*
X0167800Y0133800D03*
X0167800Y0123800D03*
X0167800Y0113800D03*
X0167800Y0103800D03*
X0167800Y0093800D03*
X0167800Y0143800D03*
D21*
X0166454Y0153800D03*
X0173146Y0153800D03*
X0108146Y0147800D03*
X0101454Y0147800D03*
X0070146Y0147800D03*
X0063454Y0147800D03*
D22*
X0033485Y0149225D02*
X0033485Y0154375D01*
X0023643Y0154375D02*
X0023643Y0149225D01*
X0013800Y0149225D02*
X0013800Y0154375D01*
X0013800Y0133375D02*
X0013800Y0128225D01*
X0023643Y0128225D02*
X0023643Y0133375D01*
X0033485Y0133375D02*
X0033485Y0128225D01*
X0033485Y0105375D02*
X0033485Y0100225D01*
X0023643Y0100225D02*
X0023643Y0105375D01*
X0013800Y0105375D02*
X0013800Y0100225D01*
X0013800Y0084375D02*
X0013800Y0079225D01*
X0023643Y0079225D02*
X0023643Y0084375D01*
X0033485Y0084375D02*
X0033485Y0079225D01*
X0033485Y0063375D02*
X0033485Y0058225D01*
X0023643Y0058225D02*
X0023643Y0063375D01*
X0013800Y0063375D02*
X0013800Y0058225D01*
X0013800Y0042375D02*
X0013800Y0037225D01*
X0023643Y0037225D02*
X0023643Y0042375D01*
X0033485Y0042375D02*
X0033485Y0037225D01*
D23*
X0164800Y0060800D02*
X0170800Y0060800D01*
X0170800Y0070800D02*
X0164800Y0070800D01*
X0164800Y0080800D02*
X0170800Y0080800D01*
D24*
X0116540Y0156681D03*
X0109060Y0156681D03*
X0109060Y0166919D03*
X0112800Y0166919D03*
X0116540Y0166919D03*
X0078540Y0166919D03*
X0074800Y0166919D03*
X0071060Y0166919D03*
X0071060Y0156681D03*
X0078540Y0156681D03*
D25*
X0087800Y0158060D03*
X0087800Y0165540D03*
X0125800Y0164540D03*
X0125800Y0157060D03*
D26*
X0125800Y0156800D01*
X0116800Y0156800D01*
X0116540Y0156681D01*
X0116200Y0156800D01*
X0112600Y0160400D01*
X0107800Y0160400D01*
X0080200Y0132800D01*
X0053800Y0132800D01*
X0053587Y0132540D01*
X0065398Y0124666D02*
X0065800Y0124400D01*
X0073000Y0117200D01*
X0069400Y0106400D02*
X0067000Y0104000D01*
X0035200Y0104000D01*
X0034000Y0102800D01*
X0033485Y0102800D01*
X0023800Y0102800D02*
X0023643Y0102800D01*
X0023800Y0102800D02*
X0037000Y0116000D01*
X0037000Y0127400D01*
X0070000Y0160400D01*
X0072400Y0160400D01*
X0076000Y0156800D01*
X0078400Y0156800D01*
X0078540Y0156681D01*
X0079000Y0156800D01*
X0086200Y0156800D01*
X0087400Y0158000D01*
X0087800Y0158060D01*
X0088000Y0158600D01*
X0090400Y0158600D01*
X0099400Y0167600D01*
X0099800Y0168146D01*
X0100000Y0167600D01*
X0108400Y0167600D01*
X0109000Y0167000D01*
X0109060Y0166919D01*
X0109600Y0166400D01*
X0109600Y0165200D01*
X0111400Y0163400D01*
X0114400Y0163400D01*
X0116200Y0165200D01*
X0116540Y0166919D01*
X0116200Y0166400D01*
X0116200Y0165200D01*
X0120400Y0161000D01*
X0128800Y0161000D01*
X0134800Y0155000D01*
X0138400Y0155000D01*
X0138800Y0154454D01*
X0139000Y0155000D01*
X0143800Y0155000D01*
X0146700Y0157800D01*
X0155532Y0157800D01*
X0156239Y0157507D02*
X0157800Y0156146D01*
X0156239Y0157507D02*
X0156195Y0157549D01*
X0156149Y0157587D01*
X0156100Y0157623D01*
X0156049Y0157656D01*
X0155997Y0157685D01*
X0155942Y0157712D01*
X0155887Y0157735D01*
X0155830Y0157755D01*
X0155771Y0157771D01*
X0155712Y0157784D01*
X0155653Y0157793D01*
X0155592Y0157798D01*
X0155532Y0157800D01*
X0148800Y0154454D02*
X0148600Y0154400D01*
X0148600Y0147800D01*
X0119200Y0118400D01*
X0119200Y0110000D01*
X0118824Y0109700D01*
X0119200Y0109400D01*
X0142600Y0109400D01*
X0167800Y0084200D01*
X0167800Y0080800D01*
X0170200Y0084800D02*
X0172600Y0084800D01*
X0175000Y0082400D01*
X0175000Y0079400D01*
X0170800Y0075200D01*
X0163600Y0075200D01*
X0160600Y0072200D01*
X0160600Y0055400D01*
X0167800Y0048200D01*
X0167800Y0047800D01*
X0162400Y0050000D02*
X0162400Y0042200D01*
X0158200Y0038000D01*
X0157800Y0037800D01*
X0167800Y0027800D02*
X0149200Y0009200D01*
X0095200Y0009200D01*
X0094600Y0009800D01*
X0094600Y0015200D01*
X0084400Y0025400D01*
X0084400Y0053600D01*
X0090400Y0059600D01*
X0090400Y0081200D01*
X0090900Y0081776D01*
X0090900Y0084926D02*
X0091000Y0085400D01*
X0098800Y0085400D01*
X0119200Y0105800D01*
X0121600Y0105800D01*
X0122200Y0106400D01*
X0129400Y0106400D01*
X0135400Y0100400D01*
X0135400Y0096800D01*
X0147400Y0084800D01*
X0147400Y0072800D01*
X0159400Y0060800D01*
X0159400Y0053000D01*
X0162400Y0050000D01*
X0142600Y0054200D02*
X0142600Y0044600D01*
X0141400Y0043400D01*
X0094000Y0043400D01*
X0088000Y0049400D01*
X0087800Y0049500D01*
X0093400Y0054200D02*
X0097600Y0050000D01*
X0097800Y0049500D01*
X0093400Y0054200D02*
X0093400Y0079400D01*
X0094600Y0080600D01*
X0095800Y0080600D01*
X0103000Y0087800D01*
X0124600Y0087800D01*
X0124700Y0088076D01*
X0125200Y0090800D02*
X0124700Y0091225D01*
X0125200Y0090800D02*
X0127000Y0090800D01*
X0135400Y0082400D01*
X0135400Y0061400D01*
X0142600Y0054200D01*
X0141400Y0053600D02*
X0141400Y0045200D01*
X0140800Y0044600D01*
X0122800Y0044600D01*
X0118000Y0049400D01*
X0117800Y0049500D01*
X0113800Y0052400D02*
X0097000Y0069200D01*
X0097000Y0075800D01*
X0096776Y0075900D01*
X0096400Y0079400D02*
X0095200Y0079400D01*
X0094600Y0078800D01*
X0094600Y0063200D01*
X0107800Y0050000D01*
X0107800Y0049500D01*
X0119200Y0058400D02*
X0127600Y0050000D01*
X0127800Y0049500D01*
X0119200Y0058400D02*
X0119200Y0075800D01*
X0118824Y0075900D01*
X0116200Y0076400D02*
X0115674Y0075900D01*
X0116200Y0076400D02*
X0116200Y0078200D01*
X0117400Y0079400D01*
X0120400Y0079400D01*
X0124000Y0075800D01*
X0124000Y0063800D01*
X0137800Y0050000D01*
X0137800Y0049500D01*
X0141400Y0053600D02*
X0125200Y0069800D01*
X0125200Y0081200D01*
X0124700Y0081776D01*
X0124600Y0084800D02*
X0124700Y0084926D01*
X0124600Y0084800D02*
X0101800Y0084800D01*
X0096400Y0079400D01*
X0100600Y0080600D02*
X0109600Y0080600D01*
X0112000Y0078200D01*
X0112000Y0076400D01*
X0112524Y0075900D01*
X0109600Y0075800D02*
X0109600Y0073400D01*
X0112000Y0071000D01*
X0109600Y0075800D02*
X0109375Y0075900D01*
X0103076Y0075900D02*
X0103000Y0075800D01*
X0103000Y0071600D01*
X0088000Y0067400D02*
X0088000Y0060200D01*
X0077800Y0050000D01*
X0077800Y0049500D01*
X0070000Y0059600D02*
X0050200Y0039800D01*
X0033485Y0039800D01*
X0033485Y0060800D02*
X0034000Y0060800D01*
X0045400Y0072200D01*
X0050800Y0072200D01*
X0079000Y0100400D01*
X0090400Y0100400D01*
X0090900Y0100674D01*
X0090400Y0103400D02*
X0090900Y0103824D01*
X0090400Y0103400D02*
X0068200Y0103400D01*
X0053200Y0088400D01*
X0040600Y0088400D01*
X0034000Y0081800D01*
X0033485Y0081800D01*
X0065200Y0062000D02*
X0065398Y0061674D01*
X0070000Y0059600D02*
X0070000Y0078800D01*
X0088600Y0097400D01*
X0090400Y0097400D01*
X0090900Y0097524D01*
X0095200Y0104600D02*
X0093400Y0106400D01*
X0069400Y0106400D01*
X0056200Y0113000D02*
X0056200Y0114200D01*
X0053800Y0116600D01*
X0053587Y0116792D01*
X0070146Y0147800D02*
X0070600Y0147800D01*
X0070600Y0156200D01*
X0071060Y0156681D01*
X0073600Y0163400D02*
X0070600Y0166400D01*
X0071060Y0166919D01*
X0070600Y0166400D02*
X0062200Y0166400D01*
X0061800Y0166146D01*
X0061600Y0166400D01*
X0044200Y0166400D01*
X0044265Y0167800D01*
X0073600Y0163400D02*
X0076000Y0163400D01*
X0077200Y0164600D01*
X0077200Y0165200D01*
X0078400Y0166400D01*
X0078540Y0166919D01*
X0108146Y0147800D02*
X0108400Y0147800D01*
X0108400Y0155600D01*
X0109000Y0156200D01*
X0109060Y0156681D01*
X0138800Y0161146D02*
X0139000Y0161600D01*
X0139000Y0167600D01*
X0138800Y0167847D01*
X0148600Y0167600D02*
X0148600Y0161600D01*
X0148800Y0161146D01*
X0148600Y0167600D02*
X0148800Y0167847D01*
X0162700Y0153900D02*
X0166212Y0153900D01*
X0166454Y0153800D02*
X0165400Y0153800D01*
X0165400Y0148400D01*
X0163000Y0146000D01*
X0163000Y0092000D01*
X0170200Y0084800D01*
X0133000Y0098000D02*
X0125200Y0098000D01*
X0124700Y0097524D01*
X0124700Y0094375D02*
X0125200Y0093800D01*
X0131200Y0093800D01*
X0127000Y0101000D02*
X0125200Y0101000D01*
X0124700Y0100674D01*
X0127000Y0101000D02*
X0129400Y0103400D01*
X0124700Y0103824D02*
X0124600Y0103400D01*
X0120400Y0103400D01*
X0115600Y0107600D02*
X0112600Y0104600D01*
X0095200Y0104600D01*
X0105300Y0108800D02*
X0106225Y0109700D01*
X0105300Y0108800D02*
X0107800Y0106300D01*
X0110300Y0106300D01*
X0112800Y0108800D01*
X0112654Y0109413D01*
X0112600Y0109400D01*
X0112524Y0109700D01*
X0112600Y0110000D01*
X0112600Y0111800D01*
X0114400Y0113600D01*
X0113800Y0114200D01*
X0114400Y0113600D02*
X0116800Y0116000D01*
X0116800Y0122454D01*
X0108800Y0114800D02*
X0102800Y0114800D01*
X0112574Y0109750D02*
X0112654Y0109413D01*
X0115600Y0109400D02*
X0115600Y0107600D01*
X0115600Y0109400D02*
X0115674Y0109700D01*
X0085000Y0067400D02*
X0067600Y0050000D01*
X0067800Y0049500D01*
X0067800Y0014100D02*
X0068200Y0014000D01*
X0077800Y0014000D01*
X0077800Y0014100D01*
X0077800Y0014000D02*
X0087400Y0014000D01*
X0087800Y0014100D01*
X0097800Y0014100D02*
X0098200Y0014000D01*
X0107800Y0014000D01*
X0107800Y0014100D01*
X0107800Y0014000D02*
X0117400Y0014000D01*
X0117800Y0014100D01*
X0118000Y0014000D01*
X0127600Y0014000D01*
X0127800Y0014100D01*
X0128200Y0014000D01*
X0137800Y0014000D01*
X0137800Y0014100D01*
X0167800Y0143800D02*
X0167800Y0144200D01*
X0172600Y0149000D01*
X0172600Y0153800D01*
X0173146Y0153800D01*
X0162193Y0153393D02*
X0162151Y0153349D01*
X0162113Y0153303D01*
X0162077Y0153254D01*
X0162044Y0153203D01*
X0162015Y0153151D01*
X0161988Y0153096D01*
X0161965Y0153041D01*
X0161945Y0152984D01*
X0161929Y0152925D01*
X0161916Y0152866D01*
X0161907Y0152807D01*
X0161902Y0152746D01*
X0161900Y0152686D01*
X0161900Y0150800D01*
X0160846Y0149746D01*
X0160139Y0149454D02*
X0157800Y0149454D01*
X0160139Y0149454D02*
X0160199Y0149456D01*
X0160260Y0149461D01*
X0160319Y0149470D01*
X0160378Y0149483D01*
X0160437Y0149499D01*
X0160494Y0149519D01*
X0160549Y0149542D01*
X0160604Y0149569D01*
X0160656Y0149598D01*
X0160707Y0149631D01*
X0160756Y0149667D01*
X0160802Y0149705D01*
X0160846Y0149747D01*
X0162193Y0153393D02*
X0162700Y0153900D01*
D27*
X0113800Y0114200D03*
X0108800Y0114800D03*
X0102800Y0114800D03*
X0120400Y0103400D03*
X0129400Y0103400D03*
X0133000Y0098000D03*
X0131200Y0093800D03*
X0112000Y0071000D03*
X0106800Y0069800D03*
X0103000Y0071600D03*
X0099800Y0069800D03*
X0100600Y0080600D03*
X0088000Y0067400D03*
X0085000Y0067400D03*
X0113800Y0052400D03*
X0056200Y0113000D03*
X0073000Y0117200D03*
D28*
X0070400Y0117294D02*
X0058334Y0117294D01*
X0058334Y0115696D02*
X0070827Y0115696D01*
X0070796Y0115727D02*
X0071527Y0114996D01*
X0072483Y0114600D01*
X0073517Y0114600D01*
X0074473Y0114996D01*
X0075204Y0115727D01*
X0075600Y0116683D01*
X0075600Y0117717D01*
X0075204Y0118673D01*
X0074473Y0119404D01*
X0073517Y0119800D01*
X0072804Y0119800D01*
X0070145Y0122459D01*
X0070145Y0126919D01*
X0069325Y0127739D01*
X0061472Y0127739D01*
X0060652Y0126919D01*
X0060652Y0122413D01*
X0061472Y0121593D01*
X0066203Y0121593D01*
X0070400Y0117396D01*
X0070400Y0116683D01*
X0070796Y0115727D01*
X0068903Y0118893D02*
X0058334Y0118893D01*
X0058334Y0119045D02*
X0057514Y0119865D01*
X0049661Y0119865D01*
X0048841Y0119045D01*
X0048841Y0114539D01*
X0049661Y0113719D01*
X0053684Y0113719D01*
X0053600Y0113517D01*
X0053600Y0112483D01*
X0053996Y0111527D01*
X0054727Y0110796D01*
X0055683Y0110400D01*
X0056717Y0110400D01*
X0057673Y0110796D01*
X0058404Y0111527D01*
X0058800Y0112483D01*
X0058800Y0113517D01*
X0058404Y0114473D01*
X0058334Y0114543D01*
X0058334Y0119045D01*
X0060975Y0122090D02*
X0038700Y0122090D01*
X0038700Y0123688D02*
X0060652Y0123688D01*
X0060652Y0125287D02*
X0038700Y0125287D01*
X0038700Y0126696D02*
X0059488Y0147484D01*
X0059488Y0145595D01*
X0059611Y0145137D01*
X0059848Y0144726D01*
X0060183Y0144391D01*
X0060593Y0144154D01*
X0061051Y0144031D01*
X0063269Y0144031D01*
X0063269Y0147616D01*
X0063638Y0147616D01*
X0063638Y0144031D01*
X0065856Y0144031D01*
X0066314Y0144154D01*
X0066724Y0144391D01*
X0067059Y0144726D01*
X0067077Y0144756D01*
X0067401Y0144431D01*
X0072892Y0144431D01*
X0073712Y0145252D01*
X0073712Y0150348D01*
X0072892Y0151168D01*
X0072300Y0151168D01*
X0072300Y0152919D01*
X0072722Y0152919D01*
X0073543Y0153739D01*
X0073543Y0156853D01*
X0075296Y0155100D01*
X0076057Y0155100D01*
X0076057Y0153739D01*
X0076878Y0152919D01*
X0080203Y0152919D01*
X0081023Y0153739D01*
X0081023Y0155100D01*
X0083447Y0155100D01*
X0083447Y0154921D01*
X0084267Y0154101D01*
X0091333Y0154101D01*
X0092153Y0154921D01*
X0092153Y0157949D01*
X0096031Y0161827D01*
X0096031Y0161638D01*
X0099616Y0161638D01*
X0099616Y0161269D01*
X0099984Y0161269D01*
X0099984Y0157488D01*
X0102005Y0157488D01*
X0102463Y0157611D01*
X0102803Y0157807D01*
X0079496Y0134500D01*
X0058334Y0134500D01*
X0058334Y0134793D01*
X0057514Y0135613D01*
X0049661Y0135613D01*
X0048841Y0134793D01*
X0048841Y0130287D01*
X0049661Y0129467D01*
X0057514Y0129467D01*
X0058334Y0130287D01*
X0058334Y0131100D01*
X0080904Y0131100D01*
X0097788Y0147984D01*
X0101269Y0147984D01*
X0101269Y0147616D01*
X0097488Y0147616D01*
X0097488Y0145595D01*
X0097611Y0145137D01*
X0097848Y0144726D01*
X0098183Y0144391D01*
X0098593Y0144154D01*
X0099051Y0144031D01*
X0101269Y0144031D01*
X0101269Y0147616D01*
X0101638Y0147616D01*
X0101638Y0144031D01*
X0103856Y0144031D01*
X0104314Y0144154D01*
X0104724Y0144391D01*
X0105059Y0144726D01*
X0105077Y0144756D01*
X0105401Y0144431D01*
X0110892Y0144431D01*
X0111712Y0145252D01*
X0111712Y0150348D01*
X0110892Y0151168D01*
X0110100Y0151168D01*
X0110100Y0152919D01*
X0110722Y0152919D01*
X0111543Y0153739D01*
X0111543Y0158700D01*
X0111896Y0158700D01*
X0114057Y0156538D01*
X0114057Y0153739D01*
X0114878Y0152919D01*
X0118203Y0152919D01*
X0119023Y0153739D01*
X0119023Y0155100D01*
X0121447Y0155100D01*
X0121447Y0153921D01*
X0122267Y0153101D01*
X0129333Y0153101D01*
X0130153Y0153921D01*
X0130153Y0157243D01*
X0134096Y0153300D01*
X0135431Y0153300D01*
X0135431Y0151708D01*
X0136252Y0150888D01*
X0141348Y0150888D01*
X0142168Y0151708D01*
X0142168Y0153300D01*
X0143785Y0153300D01*
X0144474Y0153288D01*
X0144487Y0153300D01*
X0144504Y0153300D01*
X0144992Y0153787D01*
X0145431Y0154212D01*
X0145431Y0151708D01*
X0146252Y0150888D01*
X0146900Y0150888D01*
X0146900Y0148504D01*
X0120568Y0122173D01*
X0120568Y0122269D01*
X0116984Y0122269D01*
X0116984Y0118488D01*
X0117500Y0118488D01*
X0117500Y0113600D01*
X0117354Y0113600D01*
X0114770Y0113600D01*
X0114730Y0113640D01*
X0114319Y0113877D01*
X0113861Y0114000D01*
X0112524Y0114000D01*
X0111283Y0114000D01*
X0111400Y0114283D01*
X0111400Y0115317D01*
X0111004Y0116273D01*
X0110570Y0116707D01*
X0112404Y0116707D01*
X0113224Y0117527D01*
X0113224Y0119473D01*
X0113391Y0119183D01*
X0113726Y0118848D01*
X0114137Y0118611D01*
X0114595Y0118488D01*
X0116616Y0118488D01*
X0116616Y0122269D01*
X0116984Y0122269D01*
X0116984Y0122638D01*
X0120568Y0122638D01*
X0120568Y0124856D01*
X0120446Y0125314D01*
X0120209Y0125724D01*
X0119874Y0126059D01*
X0119844Y0126077D01*
X0120168Y0126401D01*
X0120168Y0131892D01*
X0119348Y0132712D01*
X0114252Y0132712D01*
X0113431Y0131892D01*
X0113431Y0131228D01*
X0113224Y0131228D01*
X0113224Y0132073D01*
X0112404Y0132893D01*
X0103763Y0132893D01*
X0102943Y0132073D01*
X0102943Y0130700D01*
X0101013Y0130700D01*
X0099900Y0129587D01*
X0098657Y0128344D01*
X0098657Y0132073D01*
X0097837Y0132893D01*
X0089196Y0132893D01*
X0088376Y0132073D01*
X0088376Y0126582D01*
X0089196Y0125762D01*
X0097837Y0125762D01*
X0098026Y0125952D01*
X0098026Y0123648D01*
X0097837Y0123838D01*
X0089196Y0123838D01*
X0088376Y0123018D01*
X0088376Y0122172D01*
X0087168Y0122172D01*
X0087168Y0123199D01*
X0086844Y0123523D01*
X0086874Y0123541D01*
X0087209Y0123876D01*
X0087446Y0124286D01*
X0087568Y0124744D01*
X0087568Y0126962D01*
X0083984Y0126962D01*
X0083984Y0127331D01*
X0083616Y0127331D01*
X0083616Y0131112D01*
X0081595Y0131112D01*
X0081137Y0130989D01*
X0080726Y0130752D01*
X0080391Y0130417D01*
X0080154Y0130007D01*
X0080031Y0129549D01*
X0080031Y0127331D01*
X0083616Y0127331D01*
X0083616Y0126962D01*
X0080031Y0126962D01*
X0080031Y0124744D01*
X0080154Y0124286D01*
X0080391Y0123876D01*
X0080726Y0123541D01*
X0080756Y0123523D01*
X0080431Y0123199D01*
X0080431Y0117708D01*
X0081252Y0116888D01*
X0086348Y0116888D01*
X0087168Y0117708D01*
X0087168Y0118372D01*
X0088376Y0118372D01*
X0088376Y0117527D01*
X0089196Y0116707D01*
X0094395Y0116707D01*
X0094876Y0116226D01*
X0094876Y0113380D01*
X0094276Y0112780D01*
X0094276Y0107928D01*
X0094104Y0108100D01*
X0070145Y0108100D01*
X0070145Y0111171D01*
X0069325Y0111991D01*
X0061472Y0111991D01*
X0060652Y0111171D01*
X0060652Y0106665D01*
X0061472Y0105845D01*
X0066441Y0105845D01*
X0066296Y0105700D01*
X0037460Y0105700D01*
X0037460Y0106165D01*
X0036855Y0107626D01*
X0035737Y0108744D01*
X0034276Y0109350D01*
X0032754Y0109350D01*
X0038700Y0115296D01*
X0038700Y0126696D01*
X0038890Y0126885D02*
X0060652Y0126885D01*
X0058129Y0130082D02*
X0080198Y0130082D01*
X0080031Y0128484D02*
X0040488Y0128484D01*
X0042087Y0130082D02*
X0049046Y0130082D01*
X0048841Y0131681D02*
X0043685Y0131681D01*
X0045284Y0133279D02*
X0048841Y0133279D01*
X0048926Y0134878D02*
X0046882Y0134878D01*
X0048481Y0136476D02*
X0081472Y0136476D01*
X0079874Y0134878D02*
X0058249Y0134878D01*
X0053276Y0141272D02*
X0086268Y0141272D01*
X0087866Y0142870D02*
X0054875Y0142870D01*
X0056473Y0144469D02*
X0060105Y0144469D01*
X0059488Y0146068D02*
X0058072Y0146068D01*
X0056460Y0149265D02*
X0043952Y0149265D01*
X0045550Y0150863D02*
X0058059Y0150863D01*
X0059657Y0152462D02*
X0046165Y0152462D01*
X0046165Y0151478D02*
X0046165Y0163506D01*
X0047344Y0163506D01*
X0048165Y0164326D01*
X0048165Y0164700D01*
X0058431Y0164700D01*
X0058431Y0163401D01*
X0058756Y0163077D01*
X0058726Y0163059D01*
X0058391Y0162724D01*
X0058154Y0162314D01*
X0058031Y0161856D01*
X0058031Y0159638D01*
X0061616Y0159638D01*
X0061616Y0159269D01*
X0061984Y0159269D01*
X0061984Y0155488D01*
X0062684Y0155488D01*
X0037460Y0130264D01*
X0037460Y0134165D01*
X0036855Y0135626D01*
X0035737Y0136744D01*
X0034276Y0137350D01*
X0032694Y0137350D01*
X0031233Y0136744D01*
X0030115Y0135626D01*
X0029510Y0134165D01*
X0029510Y0127435D01*
X0030115Y0125974D01*
X0031233Y0124856D01*
X0032694Y0124250D01*
X0034276Y0124250D01*
X0035300Y0124675D01*
X0035300Y0116704D01*
X0026617Y0108021D01*
X0025894Y0108744D01*
X0024433Y0109350D01*
X0022852Y0109350D01*
X0021391Y0108744D01*
X0020273Y0107626D01*
X0019668Y0106165D01*
X0019668Y0099435D01*
X0020273Y0097974D01*
X0021391Y0096856D01*
X0021743Y0096710D01*
X0021743Y0087890D01*
X0021391Y0087744D01*
X0020273Y0086626D01*
X0019668Y0085165D01*
X0019668Y0078435D01*
X0020273Y0076974D01*
X0021391Y0075856D01*
X0021743Y0075710D01*
X0021743Y0066890D01*
X0021391Y0066744D01*
X0020273Y0065626D01*
X0019668Y0064165D01*
X0019668Y0057435D01*
X0020273Y0055974D01*
X0021391Y0054856D01*
X0021743Y0054710D01*
X0021743Y0045890D01*
X0021391Y0045744D01*
X0020273Y0044626D01*
X0019668Y0043165D01*
X0019668Y0036435D01*
X0020273Y0034974D01*
X0021391Y0033856D01*
X0022852Y0033250D01*
X0024433Y0033250D01*
X0025894Y0033856D01*
X0027012Y0034974D01*
X0027617Y0036435D01*
X0027617Y0043165D01*
X0027012Y0044626D01*
X0025894Y0045744D01*
X0025543Y0045890D01*
X0025543Y0054710D01*
X0025894Y0054856D01*
X0027012Y0055974D01*
X0027617Y0057435D01*
X0027617Y0064165D01*
X0027012Y0065626D01*
X0025894Y0066744D01*
X0025543Y0066890D01*
X0025543Y0075710D01*
X0025894Y0075856D01*
X0027012Y0076974D01*
X0027617Y0078435D01*
X0027617Y0085165D01*
X0027012Y0086626D01*
X0025894Y0087744D01*
X0025543Y0087890D01*
X0025543Y0096710D01*
X0025894Y0096856D01*
X0027012Y0097974D01*
X0027617Y0099435D01*
X0027617Y0104213D01*
X0029510Y0106106D01*
X0029510Y0099435D01*
X0030115Y0097974D01*
X0031233Y0096856D01*
X0032694Y0096250D01*
X0034276Y0096250D01*
X0035737Y0096856D01*
X0036855Y0097974D01*
X0037460Y0099435D01*
X0037460Y0102300D01*
X0048841Y0102300D01*
X0048841Y0098791D01*
X0049661Y0097971D01*
X0057514Y0097971D01*
X0058334Y0098791D01*
X0058334Y0102300D01*
X0064696Y0102300D01*
X0052496Y0090100D01*
X0039896Y0090100D01*
X0036638Y0086843D01*
X0035737Y0087744D01*
X0034276Y0088350D01*
X0032694Y0088350D01*
X0031233Y0087744D01*
X0030115Y0086626D01*
X0029510Y0085165D01*
X0029510Y0078435D01*
X0030115Y0076974D01*
X0031233Y0075856D01*
X0032694Y0075250D01*
X0034276Y0075250D01*
X0035737Y0075856D01*
X0036855Y0076974D01*
X0037460Y0078435D01*
X0037460Y0082856D01*
X0041304Y0086700D01*
X0048841Y0086700D01*
X0048841Y0083043D01*
X0049661Y0082223D01*
X0057514Y0082223D01*
X0058334Y0083043D01*
X0058334Y0087549D01*
X0057514Y0088369D01*
X0055573Y0088369D01*
X0060652Y0093448D01*
X0060652Y0090917D01*
X0061472Y0090097D01*
X0066293Y0090097D01*
X0050096Y0073900D01*
X0044696Y0073900D01*
X0036638Y0065843D01*
X0035737Y0066744D01*
X0034276Y0067350D01*
X0032694Y0067350D01*
X0031233Y0066744D01*
X0030115Y0065626D01*
X0029510Y0064165D01*
X0029510Y0057435D01*
X0030115Y0055974D01*
X0031233Y0054856D01*
X0032694Y0054250D01*
X0034276Y0054250D01*
X0035737Y0054856D01*
X0036855Y0055974D01*
X0037460Y0057435D01*
X0037460Y0061856D01*
X0046104Y0070500D01*
X0048841Y0070500D01*
X0048841Y0067295D01*
X0049661Y0066475D01*
X0057514Y0066475D01*
X0058334Y0067295D01*
X0058334Y0071801D01*
X0057514Y0072621D01*
X0053625Y0072621D01*
X0060652Y0079648D01*
X0060652Y0075169D01*
X0061472Y0074349D01*
X0068300Y0074349D01*
X0068300Y0065147D01*
X0065435Y0065147D01*
X0065435Y0061711D01*
X0065362Y0061711D01*
X0065362Y0065147D01*
X0061815Y0065147D01*
X0061357Y0065025D01*
X0060947Y0064788D01*
X0060612Y0064452D01*
X0060375Y0064042D01*
X0060252Y0063584D01*
X0060252Y0061711D01*
X0065362Y0061711D01*
X0065362Y0061637D01*
X0065435Y0061637D01*
X0065435Y0058201D01*
X0066197Y0058201D01*
X0049496Y0041500D01*
X0037460Y0041500D01*
X0037460Y0043165D01*
X0036855Y0044626D01*
X0035737Y0045744D01*
X0034276Y0046350D01*
X0032694Y0046350D01*
X0031233Y0045744D01*
X0030115Y0044626D01*
X0029510Y0043165D01*
X0029510Y0036435D01*
X0030115Y0034974D01*
X0031233Y0033856D01*
X0032694Y0033250D01*
X0034276Y0033250D01*
X0035737Y0033856D01*
X0036855Y0034974D01*
X0037460Y0036435D01*
X0037460Y0038100D01*
X0050904Y0038100D01*
X0051900Y0039096D01*
X0064250Y0051446D01*
X0064250Y0044970D01*
X0065070Y0044150D01*
X0070530Y0044150D01*
X0071350Y0044970D01*
X0071350Y0051346D01*
X0084804Y0064800D01*
X0085517Y0064800D01*
X0086300Y0065124D01*
X0086300Y0060904D01*
X0080246Y0054850D01*
X0075070Y0054850D01*
X0074250Y0054030D01*
X0074250Y0044970D01*
X0075070Y0044150D01*
X0080530Y0044150D01*
X0081350Y0044970D01*
X0081350Y0051146D01*
X0082700Y0052496D01*
X0082700Y0024696D01*
X0088075Y0019321D01*
X0088075Y0014375D01*
X0091750Y0014375D01*
X0091750Y0015646D01*
X0092900Y0014496D01*
X0092900Y0009096D01*
X0093500Y0008496D01*
X0094496Y0007500D01*
X0149904Y0007500D01*
X0165396Y0022992D01*
X0165688Y0022700D01*
X0169912Y0022700D01*
X0172900Y0025688D01*
X0172900Y0029912D01*
X0170012Y0032800D01*
X0172900Y0035688D01*
X0172900Y0039912D01*
X0170012Y0042800D01*
X0172900Y0045688D01*
X0172900Y0049912D01*
X0169912Y0052900D01*
X0165688Y0052900D01*
X0165596Y0052808D01*
X0162300Y0056104D01*
X0162300Y0056687D01*
X0162957Y0056352D01*
X0163676Y0056118D01*
X0164422Y0056000D01*
X0167600Y0056000D01*
X0167600Y0060600D01*
X0168000Y0060600D01*
X0168000Y0061000D01*
X0167600Y0061000D01*
X0167600Y0065600D01*
X0164422Y0065600D01*
X0163676Y0065482D01*
X0162957Y0065248D01*
X0162300Y0064913D01*
X0162300Y0067077D01*
X0162308Y0067070D01*
X0163925Y0066400D01*
X0171675Y0066400D01*
X0173292Y0067070D01*
X0174530Y0068308D01*
X0175200Y0069925D01*
X0175200Y0071675D01*
X0174530Y0073292D01*
X0173292Y0074530D01*
X0172756Y0074752D01*
X0176000Y0077996D01*
X0176000Y0005600D01*
X0004600Y0005600D01*
X0004600Y0177000D01*
X0136522Y0177000D01*
X0136120Y0176768D01*
X0135785Y0176433D01*
X0135548Y0176022D01*
X0135425Y0175565D01*
X0135425Y0173753D01*
X0138800Y0173753D01*
X0142175Y0173753D01*
X0142175Y0175565D01*
X0142052Y0176022D01*
X0141815Y0176433D01*
X0141480Y0176768D01*
X0141078Y0177000D01*
X0146522Y0177000D01*
X0146120Y0176768D01*
X0145785Y0176433D01*
X0145548Y0176022D01*
X0145425Y0175565D01*
X0145425Y0173753D01*
X0148800Y0173753D01*
X0152175Y0173753D01*
X0152175Y0175565D01*
X0152052Y0176022D01*
X0151815Y0176433D01*
X0151480Y0176768D01*
X0151078Y0177000D01*
X0176000Y0177000D01*
X0176000Y0157060D01*
X0175892Y0157168D01*
X0170401Y0157168D01*
X0169800Y0156567D01*
X0169199Y0157168D01*
X0163708Y0157168D01*
X0162888Y0156348D01*
X0162888Y0155600D01*
X0161996Y0155600D01*
X0161489Y0155093D01*
X0161489Y0155093D01*
X0161168Y0154773D01*
X0161168Y0158892D01*
X0160348Y0159712D01*
X0155252Y0159712D01*
X0155040Y0159500D01*
X0152168Y0159500D01*
X0152168Y0163892D01*
X0151348Y0164712D01*
X0150300Y0164712D01*
X0150300Y0164872D01*
X0150955Y0164872D01*
X0151775Y0165693D01*
X0151775Y0170002D01*
X0151201Y0170576D01*
X0151480Y0170738D01*
X0151815Y0171073D01*
X0152052Y0171483D01*
X0152175Y0171941D01*
X0152175Y0173753D01*
X0148800Y0173753D01*
X0148800Y0173753D01*
X0148800Y0173753D01*
X0145425Y0173753D01*
X0145425Y0171941D01*
X0145548Y0171483D01*
X0145785Y0171073D01*
X0146120Y0170738D01*
X0146399Y0170576D01*
X0145825Y0170002D01*
X0145825Y0165693D01*
X0146645Y0164872D01*
X0146900Y0164872D01*
X0146900Y0164712D01*
X0146252Y0164712D01*
X0145431Y0163892D01*
X0145431Y0158938D01*
X0143113Y0156700D01*
X0142168Y0156700D01*
X0142168Y0157199D01*
X0141567Y0157800D01*
X0142168Y0158401D01*
X0142168Y0163892D01*
X0141348Y0164712D01*
X0140700Y0164712D01*
X0140700Y0164872D01*
X0140955Y0164872D01*
X0141775Y0165693D01*
X0141775Y0170002D01*
X0141201Y0170576D01*
X0141480Y0170738D01*
X0141815Y0171073D01*
X0142052Y0171483D01*
X0142175Y0171941D01*
X0142175Y0173753D01*
X0138800Y0173753D01*
X0138800Y0173753D01*
X0138800Y0173753D01*
X0135425Y0173753D01*
X0135425Y0171941D01*
X0135548Y0171483D01*
X0135785Y0171073D01*
X0136120Y0170738D01*
X0136399Y0170576D01*
X0135825Y0170002D01*
X0135825Y0165693D01*
X0136645Y0164872D01*
X0137300Y0164872D01*
X0137300Y0164712D01*
X0136252Y0164712D01*
X0135431Y0163892D01*
X0135431Y0158401D01*
X0136033Y0157800D01*
X0135431Y0157199D01*
X0135431Y0156773D01*
X0130533Y0161671D01*
X0130553Y0161744D01*
X0130553Y0164061D01*
X0126280Y0164061D01*
X0126280Y0165020D01*
X0130553Y0165020D01*
X0130553Y0167336D01*
X0130430Y0167794D01*
X0130193Y0168204D01*
X0129858Y0168540D01*
X0129448Y0168777D01*
X0128990Y0168899D01*
X0126280Y0168899D01*
X0126280Y0165020D01*
X0125320Y0165020D01*
X0125320Y0164061D01*
X0121047Y0164061D01*
X0121047Y0162757D01*
X0119023Y0164781D01*
X0119023Y0169861D01*
X0118203Y0170681D01*
X0115028Y0170681D01*
X0114988Y0170721D01*
X0114577Y0170958D01*
X0114120Y0171081D01*
X0112800Y0171081D01*
X0111480Y0171081D01*
X0111023Y0170958D01*
X0110612Y0170721D01*
X0110572Y0170681D01*
X0107397Y0170681D01*
X0106577Y0169861D01*
X0106577Y0169300D01*
X0103168Y0169300D01*
X0103168Y0170892D01*
X0102348Y0171712D01*
X0097252Y0171712D01*
X0096431Y0170892D01*
X0096431Y0167036D01*
X0092553Y0163157D01*
X0092553Y0165061D01*
X0088280Y0165061D01*
X0088280Y0166020D01*
X0092553Y0166020D01*
X0092553Y0168336D01*
X0092430Y0168794D01*
X0092193Y0169204D01*
X0091858Y0169540D01*
X0091448Y0169777D01*
X0090990Y0169899D01*
X0088280Y0169899D01*
X0088280Y0166020D01*
X0087320Y0166020D01*
X0087320Y0165061D01*
X0083047Y0165061D01*
X0083047Y0162744D01*
X0083170Y0162286D01*
X0083407Y0161876D01*
X0083742Y0161541D01*
X0083772Y0161523D01*
X0083447Y0161199D01*
X0083447Y0158500D01*
X0081023Y0158500D01*
X0081023Y0159624D01*
X0080203Y0160444D01*
X0076878Y0160444D01*
X0076057Y0159624D01*
X0076057Y0159147D01*
X0074100Y0161104D01*
X0073504Y0161700D01*
X0076704Y0161700D01*
X0077700Y0162696D01*
X0078160Y0163156D01*
X0080203Y0163156D01*
X0081023Y0163976D01*
X0081023Y0169861D01*
X0080203Y0170681D01*
X0077028Y0170681D01*
X0076988Y0170721D01*
X0076577Y0170958D01*
X0076120Y0171081D01*
X0074800Y0171081D01*
X0073480Y0171081D01*
X0073023Y0170958D01*
X0072612Y0170721D01*
X0072572Y0170681D01*
X0069397Y0170681D01*
X0068577Y0169861D01*
X0068577Y0168100D01*
X0065168Y0168100D01*
X0065168Y0168892D01*
X0064348Y0169712D01*
X0059252Y0169712D01*
X0058431Y0168892D01*
X0058431Y0168100D01*
X0048165Y0168100D01*
X0048165Y0171274D01*
X0047344Y0172094D01*
X0041185Y0172094D01*
X0040365Y0171274D01*
X0040365Y0164326D01*
X0041185Y0163506D01*
X0042365Y0163506D01*
X0042365Y0153052D01*
X0037256Y0147943D01*
X0037460Y0148435D01*
X0037460Y0155165D01*
X0036855Y0156626D01*
X0035737Y0157744D01*
X0034276Y0158350D01*
X0032694Y0158350D01*
X0031233Y0157744D01*
X0030115Y0156626D01*
X0029510Y0155165D01*
X0029510Y0148435D01*
X0030115Y0146974D01*
X0031233Y0145856D01*
X0032694Y0145250D01*
X0034276Y0145250D01*
X0034767Y0145454D01*
X0033013Y0143700D01*
X0027013Y0143700D01*
X0023013Y0139700D01*
X0021900Y0138587D01*
X0021900Y0136955D01*
X0021391Y0136744D01*
X0020273Y0135626D01*
X0019668Y0134165D01*
X0019668Y0127435D01*
X0020273Y0125974D01*
X0021391Y0124856D01*
X0022852Y0124250D01*
X0024433Y0124250D01*
X0025894Y0124856D01*
X0027012Y0125974D01*
X0027617Y0127435D01*
X0027617Y0134165D01*
X0027012Y0135626D01*
X0025894Y0136744D01*
X0025700Y0136825D01*
X0025700Y0137013D01*
X0028587Y0139900D01*
X0034587Y0139900D01*
X0035700Y0141013D01*
X0046165Y0151478D01*
X0046165Y0154060D02*
X0061256Y0154060D01*
X0061616Y0155488D02*
X0059595Y0155488D01*
X0059137Y0155611D01*
X0058726Y0155848D01*
X0058391Y0156183D01*
X0058154Y0156593D01*
X0058031Y0157051D01*
X0058031Y0159269D01*
X0061616Y0159269D01*
X0061616Y0155488D01*
X0061616Y0155659D02*
X0061984Y0155659D01*
X0061984Y0157257D02*
X0061616Y0157257D01*
X0061616Y0158856D02*
X0061984Y0158856D01*
X0061984Y0159269D02*
X0061984Y0159638D01*
X0065568Y0159638D01*
X0065568Y0161856D01*
X0065446Y0162314D01*
X0065209Y0162724D01*
X0064874Y0163059D01*
X0064844Y0163077D01*
X0065168Y0163401D01*
X0065168Y0164700D01*
X0068577Y0164700D01*
X0068577Y0163976D01*
X0069397Y0163156D01*
X0071440Y0163156D01*
X0072496Y0162100D01*
X0069296Y0162100D01*
X0068300Y0161104D01*
X0065568Y0158373D01*
X0065568Y0159269D01*
X0061984Y0159269D01*
X0065568Y0158856D02*
X0066051Y0158856D01*
X0065568Y0160454D02*
X0067650Y0160454D01*
X0068300Y0161104D02*
X0068300Y0161104D01*
X0069248Y0162053D02*
X0065516Y0162053D01*
X0065168Y0163651D02*
X0068902Y0163651D01*
X0068577Y0168447D02*
X0065168Y0168447D01*
X0068762Y0170045D02*
X0048165Y0170045D01*
X0048165Y0168447D02*
X0058431Y0168447D01*
X0058431Y0163651D02*
X0047489Y0163651D01*
X0046165Y0162053D02*
X0058084Y0162053D01*
X0058031Y0160454D02*
X0046165Y0160454D01*
X0046165Y0158856D02*
X0058031Y0158856D01*
X0058031Y0157257D02*
X0046165Y0157257D01*
X0046165Y0155659D02*
X0059054Y0155659D01*
X0063269Y0151265D02*
X0068577Y0156573D01*
X0068577Y0153739D01*
X0068900Y0153417D01*
X0068900Y0151168D01*
X0067401Y0151168D01*
X0067077Y0150844D01*
X0067059Y0150874D01*
X0066724Y0151209D01*
X0066314Y0151446D01*
X0065856Y0151568D01*
X0063638Y0151568D01*
X0063638Y0147984D01*
X0063269Y0147984D01*
X0063269Y0151265D01*
X0063269Y0150863D02*
X0063638Y0150863D01*
X0063638Y0149265D02*
X0063269Y0149265D01*
X0064466Y0152462D02*
X0068900Y0152462D01*
X0068577Y0154060D02*
X0066064Y0154060D01*
X0067663Y0155659D02*
X0068577Y0155659D01*
X0072300Y0152462D02*
X0097457Y0152462D01*
X0099056Y0154060D02*
X0081023Y0154060D01*
X0081023Y0158856D02*
X0083447Y0158856D01*
X0083447Y0160454D02*
X0074750Y0160454D01*
X0077057Y0162053D02*
X0083305Y0162053D01*
X0083047Y0163651D02*
X0080698Y0163651D01*
X0081023Y0165250D02*
X0087320Y0165250D01*
X0087320Y0166020D02*
X0083047Y0166020D01*
X0083047Y0168336D01*
X0083170Y0168794D01*
X0083407Y0169204D01*
X0083742Y0169540D01*
X0084152Y0169777D01*
X0084610Y0169899D01*
X0087320Y0169899D01*
X0087320Y0166020D01*
X0087320Y0166848D02*
X0088280Y0166848D01*
X0088280Y0165250D02*
X0094645Y0165250D01*
X0093047Y0163651D02*
X0092553Y0163651D01*
X0092553Y0166848D02*
X0096244Y0166848D01*
X0096431Y0168447D02*
X0092523Y0168447D01*
X0096431Y0170045D02*
X0080838Y0170045D01*
X0081023Y0168447D02*
X0083077Y0168447D01*
X0083047Y0166848D02*
X0081023Y0166848D01*
X0087320Y0168447D02*
X0088280Y0168447D01*
X0094658Y0160454D02*
X0096031Y0160454D01*
X0096031Y0161269D02*
X0096031Y0159051D01*
X0096154Y0158593D01*
X0096391Y0158183D01*
X0096726Y0157848D01*
X0097137Y0157611D01*
X0097595Y0157488D01*
X0099616Y0157488D01*
X0099616Y0161269D01*
X0096031Y0161269D01*
X0096084Y0158856D02*
X0093060Y0158856D01*
X0092153Y0157257D02*
X0102253Y0157257D01*
X0103250Y0158254D02*
X0106100Y0161104D01*
X0107096Y0162100D01*
X0110296Y0162100D01*
X0109240Y0163156D01*
X0107397Y0163156D01*
X0106577Y0163976D01*
X0106577Y0165900D01*
X0103168Y0165900D01*
X0103168Y0165401D01*
X0102844Y0165077D01*
X0102874Y0165059D01*
X0103209Y0164724D01*
X0103446Y0164314D01*
X0103568Y0163856D01*
X0103568Y0161638D01*
X0099984Y0161638D01*
X0099984Y0161269D01*
X0103568Y0161269D01*
X0103568Y0159051D01*
X0103446Y0158593D01*
X0103250Y0158254D01*
X0103516Y0158856D02*
X0103851Y0158856D01*
X0103568Y0160454D02*
X0105450Y0160454D01*
X0107048Y0162053D02*
X0103568Y0162053D01*
X0103568Y0163651D02*
X0106902Y0163651D01*
X0106577Y0165250D02*
X0103017Y0165250D01*
X0099984Y0160454D02*
X0099616Y0160454D01*
X0099616Y0158856D02*
X0099984Y0158856D01*
X0100654Y0155659D02*
X0092153Y0155659D01*
X0095859Y0150863D02*
X0073197Y0150863D01*
X0073712Y0149265D02*
X0094260Y0149265D01*
X0092662Y0147666D02*
X0073712Y0147666D01*
X0073712Y0146068D02*
X0091063Y0146068D01*
X0089465Y0144469D02*
X0072929Y0144469D01*
X0067364Y0144469D02*
X0066802Y0144469D01*
X0063638Y0144469D02*
X0063269Y0144469D01*
X0063269Y0146068D02*
X0063638Y0146068D01*
X0067065Y0150863D02*
X0067096Y0150863D01*
X0073543Y0154060D02*
X0076057Y0154060D01*
X0074737Y0155659D02*
X0073543Y0155659D01*
X0074800Y0166919D02*
X0074800Y0171081D01*
X0074800Y0166919D01*
X0074800Y0166919D01*
X0074800Y0168447D02*
X0074800Y0168447D01*
X0074800Y0170045D02*
X0074800Y0170045D01*
X0054862Y0147666D02*
X0042353Y0147666D01*
X0040755Y0146068D02*
X0053263Y0146068D01*
X0051665Y0144469D02*
X0039156Y0144469D01*
X0037557Y0142870D02*
X0050066Y0142870D01*
X0048468Y0141272D02*
X0035959Y0141272D01*
X0033782Y0144469D02*
X0004600Y0144469D01*
X0004600Y0142870D02*
X0026183Y0142870D01*
X0024585Y0141272D02*
X0004600Y0141272D01*
X0004600Y0139673D02*
X0022986Y0139673D01*
X0021900Y0138075D02*
X0004600Y0138075D01*
X0004600Y0136476D02*
X0010715Y0136476D01*
X0010950Y0136712D02*
X0010463Y0136225D01*
X0010058Y0135668D01*
X0009746Y0135054D01*
X0009533Y0134399D01*
X0009425Y0133719D01*
X0009425Y0130800D01*
X0013800Y0130800D01*
X0018175Y0130800D01*
X0018175Y0133719D01*
X0018067Y0134399D01*
X0017854Y0135054D01*
X0017542Y0135668D01*
X0017137Y0136225D01*
X0016650Y0136712D01*
X0016093Y0137116D01*
X0015479Y0137429D01*
X0014824Y0137642D01*
X0014144Y0137750D01*
X0013800Y0137750D01*
X0013456Y0137750D01*
X0012776Y0137642D01*
X0012121Y0137429D01*
X0011507Y0137116D01*
X0010950Y0136712D01*
X0009688Y0134878D02*
X0004600Y0134878D01*
X0004600Y0133279D02*
X0009425Y0133279D01*
X0009425Y0131681D02*
X0004600Y0131681D01*
X0004600Y0130082D02*
X0009425Y0130082D01*
X0009425Y0130800D02*
X0009425Y0127881D01*
X0009533Y0127201D01*
X0009746Y0126546D01*
X0010058Y0125932D01*
X0010463Y0125375D01*
X0010950Y0124888D01*
X0011507Y0124484D01*
X0012121Y0124171D01*
X0012776Y0123958D01*
X0013456Y0123850D01*
X0013800Y0123850D01*
X0013800Y0130800D01*
X0013800Y0130800D01*
X0013800Y0130800D01*
X0013800Y0137750D01*
X0013800Y0130800D01*
X0018175Y0130800D01*
X0018175Y0127881D01*
X0018067Y0127201D01*
X0017854Y0126546D01*
X0017542Y0125932D01*
X0017137Y0125375D01*
X0016650Y0124888D01*
X0016093Y0124484D01*
X0015479Y0124171D01*
X0014824Y0123958D01*
X0014144Y0123850D01*
X0013800Y0123850D01*
X0013800Y0130800D01*
X0013800Y0130800D01*
X0013800Y0130800D01*
X0009425Y0130800D01*
X0009425Y0128484D02*
X0004600Y0128484D01*
X0004600Y0126885D02*
X0009635Y0126885D01*
X0010551Y0125287D02*
X0004600Y0125287D01*
X0004600Y0123688D02*
X0035300Y0123688D01*
X0035300Y0122090D02*
X0004600Y0122090D01*
X0004600Y0120491D02*
X0035300Y0120491D01*
X0035300Y0118893D02*
X0004600Y0118893D01*
X0004600Y0117294D02*
X0035300Y0117294D01*
X0034292Y0115696D02*
X0004600Y0115696D01*
X0004600Y0114097D02*
X0032693Y0114097D01*
X0031095Y0112499D02*
X0004600Y0112499D01*
X0004600Y0110900D02*
X0029496Y0110900D01*
X0027898Y0109302D02*
X0024549Y0109302D01*
X0022736Y0109302D02*
X0015729Y0109302D01*
X0015479Y0109429D02*
X0014824Y0109642D01*
X0014144Y0109750D01*
X0013800Y0109750D01*
X0013456Y0109750D01*
X0012776Y0109642D01*
X0012121Y0109429D01*
X0011507Y0109116D01*
X0010950Y0108712D01*
X0010463Y0108225D01*
X0010058Y0107668D01*
X0009746Y0107054D01*
X0009533Y0106399D01*
X0009425Y0105719D01*
X0009425Y0102800D01*
X0013800Y0102800D01*
X0018175Y0102800D01*
X0018175Y0105719D01*
X0018067Y0106399D01*
X0017854Y0107054D01*
X0017542Y0107668D01*
X0017137Y0108225D01*
X0016650Y0108712D01*
X0016093Y0109116D01*
X0015479Y0109429D01*
X0013800Y0109302D02*
X0013800Y0109302D01*
X0013800Y0109750D02*
X0013800Y0102800D01*
X0013800Y0102800D01*
X0013800Y0102800D01*
X0013800Y0109750D01*
X0011871Y0109302D02*
X0004600Y0109302D01*
X0004600Y0107703D02*
X0010084Y0107703D01*
X0009486Y0106105D02*
X0004600Y0106105D01*
X0004600Y0104506D02*
X0009425Y0104506D01*
X0009425Y0102908D02*
X0004600Y0102908D01*
X0004600Y0101309D02*
X0009425Y0101309D01*
X0009425Y0099881D02*
X0009533Y0099201D01*
X0009746Y0098546D01*
X0010058Y0097932D01*
X0010463Y0097375D01*
X0010950Y0096888D01*
X0011507Y0096484D01*
X0012121Y0096171D01*
X0012776Y0095958D01*
X0013456Y0095850D01*
X0013800Y0095850D01*
X0013800Y0102800D01*
X0018175Y0102800D01*
X0018175Y0099881D01*
X0018067Y0099201D01*
X0017854Y0098546D01*
X0017542Y0097932D01*
X0017137Y0097375D01*
X0016650Y0096888D01*
X0016093Y0096484D01*
X0015479Y0096171D01*
X0014824Y0095958D01*
X0014144Y0095850D01*
X0013800Y0095850D01*
X0013800Y0102800D01*
X0013800Y0102800D01*
X0013800Y0102800D01*
X0009425Y0102800D01*
X0009425Y0099881D01*
X0009452Y0099711D02*
X0004600Y0099711D01*
X0004600Y0098112D02*
X0009967Y0098112D01*
X0011466Y0096514D02*
X0004600Y0096514D01*
X0004600Y0094915D02*
X0021743Y0094915D01*
X0021743Y0093317D02*
X0004600Y0093317D01*
X0004600Y0091718D02*
X0021743Y0091718D01*
X0021743Y0090120D02*
X0004600Y0090120D01*
X0004600Y0088521D02*
X0012404Y0088521D01*
X0012121Y0088429D02*
X0011507Y0088116D01*
X0010950Y0087712D01*
X0010463Y0087225D01*
X0010058Y0086668D01*
X0009746Y0086054D01*
X0009533Y0085399D01*
X0009425Y0084719D01*
X0009425Y0081800D01*
X0013800Y0081800D01*
X0018175Y0081800D01*
X0018175Y0084719D01*
X0018067Y0085399D01*
X0017854Y0086054D01*
X0017542Y0086668D01*
X0017137Y0087225D01*
X0016650Y0087712D01*
X0016093Y0088116D01*
X0015479Y0088429D01*
X0014824Y0088642D01*
X0014144Y0088750D01*
X0013800Y0088750D01*
X0013456Y0088750D01*
X0012776Y0088642D01*
X0012121Y0088429D01*
X0013800Y0088521D02*
X0013800Y0088521D01*
X0013800Y0088750D02*
X0013800Y0081800D01*
X0013800Y0081800D01*
X0013800Y0081800D01*
X0013800Y0088750D01*
X0015196Y0088521D02*
X0021743Y0088521D01*
X0020569Y0086923D02*
X0017356Y0086923D01*
X0018079Y0085324D02*
X0019733Y0085324D01*
X0019668Y0083726D02*
X0018175Y0083726D01*
X0018175Y0082127D02*
X0019668Y0082127D01*
X0018175Y0081800D02*
X0013800Y0081800D01*
X0013800Y0074850D01*
X0013800Y0081800D01*
X0013800Y0081800D01*
X0013800Y0081800D01*
X0009425Y0081800D01*
X0009425Y0078881D01*
X0009533Y0078201D01*
X0009746Y0077546D01*
X0010058Y0076932D01*
X0010463Y0076375D01*
X0010950Y0075888D01*
X0011507Y0075484D01*
X0012121Y0075171D01*
X0012776Y0074958D01*
X0013456Y0074850D01*
X0013800Y0074850D01*
X0014144Y0074850D01*
X0014824Y0074958D01*
X0015479Y0075171D01*
X0016093Y0075484D01*
X0016650Y0075888D01*
X0017137Y0076375D01*
X0017542Y0076932D01*
X0017854Y0077546D01*
X0018067Y0078201D01*
X0018175Y0078881D01*
X0018175Y0081800D01*
X0018175Y0080529D02*
X0019668Y0080529D01*
X0019668Y0078930D02*
X0018175Y0078930D01*
X0017745Y0077332D02*
X0020125Y0077332D01*
X0021687Y0075733D02*
X0016436Y0075733D01*
X0013800Y0075733D02*
X0013800Y0075733D01*
X0013800Y0077332D02*
X0013800Y0077332D01*
X0013800Y0078930D02*
X0013800Y0078930D01*
X0013800Y0080529D02*
X0013800Y0080529D01*
X0013800Y0082127D02*
X0013800Y0082127D01*
X0013800Y0083726D02*
X0013800Y0083726D01*
X0013800Y0085324D02*
X0013800Y0085324D01*
X0013800Y0086923D02*
X0013800Y0086923D01*
X0010244Y0086923D02*
X0004600Y0086923D01*
X0004600Y0085324D02*
X0009521Y0085324D01*
X0009425Y0083726D02*
X0004600Y0083726D01*
X0004600Y0082127D02*
X0009425Y0082127D01*
X0009425Y0080529D02*
X0004600Y0080529D01*
X0004600Y0078930D02*
X0009425Y0078930D01*
X0009855Y0077332D02*
X0004600Y0077332D01*
X0004600Y0075733D02*
X0011164Y0075733D01*
X0004600Y0074134D02*
X0021743Y0074134D01*
X0021743Y0072536D02*
X0004600Y0072536D01*
X0004600Y0070937D02*
X0021743Y0070937D01*
X0021743Y0069339D02*
X0004600Y0069339D01*
X0004600Y0067740D02*
X0013398Y0067740D01*
X0013456Y0067750D02*
X0012776Y0067642D01*
X0012121Y0067429D01*
X0011507Y0067116D01*
X0010950Y0066712D01*
X0010463Y0066225D01*
X0010058Y0065668D01*
X0009746Y0065054D01*
X0009533Y0064399D01*
X0009425Y0063719D01*
X0009425Y0060800D01*
X0013800Y0060800D01*
X0018175Y0060800D01*
X0018175Y0063719D01*
X0018067Y0064399D01*
X0017854Y0065054D01*
X0017542Y0065668D01*
X0017137Y0066225D01*
X0016650Y0066712D01*
X0016093Y0067116D01*
X0015479Y0067429D01*
X0014824Y0067642D01*
X0014144Y0067750D01*
X0013800Y0067750D01*
X0013456Y0067750D01*
X0013800Y0067750D02*
X0013800Y0060800D01*
X0013800Y0060800D01*
X0013800Y0060800D01*
X0013800Y0067750D01*
X0013800Y0067740D02*
X0013800Y0067740D01*
X0014202Y0067740D02*
X0021743Y0067740D01*
X0020788Y0066142D02*
X0017197Y0066142D01*
X0018020Y0064543D02*
X0019824Y0064543D01*
X0019668Y0062945D02*
X0018175Y0062945D01*
X0018175Y0061346D02*
X0019668Y0061346D01*
X0018175Y0060800D02*
X0013800Y0060800D01*
X0013800Y0053850D01*
X0013800Y0060800D01*
X0013800Y0060800D01*
X0013800Y0060800D01*
X0009425Y0060800D01*
X0009425Y0057881D01*
X0009533Y0057201D01*
X0009746Y0056546D01*
X0010058Y0055932D01*
X0010463Y0055375D01*
X0010950Y0054888D01*
X0011507Y0054484D01*
X0012121Y0054171D01*
X0012776Y0053958D01*
X0013456Y0053850D01*
X0013800Y0053850D01*
X0014144Y0053850D01*
X0014824Y0053958D01*
X0015479Y0054171D01*
X0016093Y0054484D01*
X0016650Y0054888D01*
X0017137Y0055375D01*
X0017542Y0055932D01*
X0017854Y0056546D01*
X0018067Y0057201D01*
X0018175Y0057881D01*
X0018175Y0060800D01*
X0018175Y0059748D02*
X0019668Y0059748D01*
X0019668Y0058149D02*
X0018175Y0058149D01*
X0017856Y0056551D02*
X0020034Y0056551D01*
X0021294Y0054952D02*
X0016714Y0054952D01*
X0013800Y0054952D02*
X0013800Y0054952D01*
X0013800Y0056551D02*
X0013800Y0056551D01*
X0013800Y0058149D02*
X0013800Y0058149D01*
X0013800Y0059748D02*
X0013800Y0059748D01*
X0013800Y0061346D02*
X0013800Y0061346D01*
X0013800Y0062945D02*
X0013800Y0062945D01*
X0013800Y0064543D02*
X0013800Y0064543D01*
X0013800Y0066142D02*
X0013800Y0066142D01*
X0010403Y0066142D02*
X0004600Y0066142D01*
X0004600Y0064543D02*
X0009580Y0064543D01*
X0009425Y0062945D02*
X0004600Y0062945D01*
X0004600Y0061346D02*
X0009425Y0061346D01*
X0009425Y0059748D02*
X0004600Y0059748D01*
X0004600Y0058149D02*
X0009425Y0058149D01*
X0009744Y0056551D02*
X0004600Y0056551D01*
X0004600Y0054952D02*
X0010886Y0054952D01*
X0004600Y0053354D02*
X0021743Y0053354D01*
X0021743Y0051755D02*
X0004600Y0051755D01*
X0004600Y0050157D02*
X0021743Y0050157D01*
X0021743Y0048558D02*
X0004600Y0048558D01*
X0004600Y0046960D02*
X0021743Y0046960D01*
X0021008Y0045361D02*
X0017000Y0045361D01*
X0017137Y0045225D02*
X0016650Y0045712D01*
X0016093Y0046116D01*
X0015479Y0046429D01*
X0014824Y0046642D01*
X0014144Y0046750D01*
X0013800Y0046750D01*
X0013456Y0046750D01*
X0012776Y0046642D01*
X0012121Y0046429D01*
X0011507Y0046116D01*
X0010950Y0045712D01*
X0010463Y0045225D01*
X0010058Y0044668D01*
X0009746Y0044054D01*
X0009533Y0043399D01*
X0009425Y0042719D01*
X0009425Y0039800D01*
X0013800Y0039800D01*
X0018175Y0039800D01*
X0018175Y0042719D01*
X0018067Y0043399D01*
X0017854Y0044054D01*
X0017542Y0044668D01*
X0017137Y0045225D01*
X0017949Y0043763D02*
X0019915Y0043763D01*
X0019668Y0042164D02*
X0018175Y0042164D01*
X0018175Y0040566D02*
X0019668Y0040566D01*
X0019668Y0038967D02*
X0018175Y0038967D01*
X0018175Y0039800D02*
X0013800Y0039800D01*
X0013800Y0039800D01*
X0013800Y0039800D01*
X0013800Y0046750D01*
X0013800Y0039800D01*
X0013800Y0032850D01*
X0013800Y0039800D01*
X0013800Y0039800D01*
X0013800Y0039800D01*
X0009425Y0039800D01*
X0009425Y0036881D01*
X0009533Y0036201D01*
X0009746Y0035546D01*
X0010058Y0034932D01*
X0010463Y0034375D01*
X0010950Y0033888D01*
X0011507Y0033484D01*
X0012121Y0033171D01*
X0012776Y0032958D01*
X0013456Y0032850D01*
X0013800Y0032850D01*
X0014144Y0032850D01*
X0014824Y0032958D01*
X0015479Y0033171D01*
X0016093Y0033484D01*
X0016650Y0033888D01*
X0017137Y0034375D01*
X0017542Y0034932D01*
X0017854Y0035546D01*
X0018067Y0036201D01*
X0018175Y0036881D01*
X0018175Y0039800D01*
X0018175Y0037369D02*
X0019668Y0037369D01*
X0019943Y0035770D02*
X0017927Y0035770D01*
X0016933Y0034172D02*
X0021075Y0034172D01*
X0026210Y0034172D02*
X0030917Y0034172D01*
X0029785Y0035770D02*
X0027342Y0035770D01*
X0027617Y0037369D02*
X0029510Y0037369D01*
X0029510Y0038967D02*
X0027617Y0038967D01*
X0027617Y0040566D02*
X0029510Y0040566D01*
X0029510Y0042164D02*
X0027617Y0042164D01*
X0027370Y0043763D02*
X0029758Y0043763D01*
X0030850Y0045361D02*
X0026277Y0045361D01*
X0025543Y0046960D02*
X0054956Y0046960D01*
X0056554Y0048558D02*
X0025543Y0048558D01*
X0025543Y0050157D02*
X0058153Y0050157D01*
X0059751Y0051755D02*
X0025543Y0051755D01*
X0025543Y0053354D02*
X0061350Y0053354D01*
X0062948Y0054952D02*
X0035833Y0054952D01*
X0037094Y0056551D02*
X0064547Y0056551D01*
X0065362Y0058201D02*
X0065362Y0061637D01*
X0060252Y0061637D01*
X0060252Y0059764D01*
X0060375Y0059306D01*
X0060612Y0058896D01*
X0060947Y0058560D01*
X0061357Y0058323D01*
X0061815Y0058201D01*
X0065362Y0058201D01*
X0066145Y0058149D02*
X0037460Y0058149D01*
X0037460Y0059748D02*
X0060256Y0059748D01*
X0060252Y0061346D02*
X0037460Y0061346D01*
X0038549Y0062945D02*
X0060252Y0062945D01*
X0060703Y0064543D02*
X0040148Y0064543D01*
X0041746Y0066142D02*
X0068300Y0066142D01*
X0068300Y0067740D02*
X0058334Y0067740D01*
X0058334Y0069339D02*
X0068300Y0069339D01*
X0068300Y0070937D02*
X0058334Y0070937D01*
X0057599Y0072536D02*
X0068300Y0072536D01*
X0068300Y0074134D02*
X0055139Y0074134D01*
X0056737Y0075733D02*
X0060652Y0075733D01*
X0060652Y0077332D02*
X0058336Y0077332D01*
X0059934Y0078930D02*
X0060652Y0078930D01*
X0058323Y0082127D02*
X0037460Y0082127D01*
X0037460Y0080529D02*
X0056724Y0080529D01*
X0055126Y0078930D02*
X0037460Y0078930D01*
X0037003Y0077332D02*
X0053527Y0077332D01*
X0051929Y0075733D02*
X0035441Y0075733D01*
X0031529Y0075733D02*
X0025598Y0075733D01*
X0025543Y0074134D02*
X0050330Y0074134D01*
X0048841Y0069339D02*
X0044943Y0069339D01*
X0043345Y0067740D02*
X0048841Y0067740D01*
X0043332Y0072536D02*
X0025543Y0072536D01*
X0025543Y0070937D02*
X0041733Y0070937D01*
X0040135Y0069339D02*
X0025543Y0069339D01*
X0025543Y0067740D02*
X0038536Y0067740D01*
X0036938Y0066142D02*
X0036339Y0066142D01*
X0030631Y0066142D02*
X0026497Y0066142D01*
X0027461Y0064543D02*
X0029667Y0064543D01*
X0029510Y0062945D02*
X0027617Y0062945D01*
X0027617Y0061346D02*
X0029510Y0061346D01*
X0029510Y0059748D02*
X0027617Y0059748D01*
X0027617Y0058149D02*
X0029510Y0058149D01*
X0029876Y0056551D02*
X0027251Y0056551D01*
X0025991Y0054952D02*
X0031137Y0054952D01*
X0036120Y0045361D02*
X0053357Y0045361D01*
X0051759Y0043763D02*
X0037212Y0043763D01*
X0037460Y0042164D02*
X0050160Y0042164D01*
X0051771Y0038967D02*
X0082700Y0038967D01*
X0082700Y0037369D02*
X0037460Y0037369D01*
X0037185Y0035770D02*
X0082700Y0035770D01*
X0082700Y0034172D02*
X0036053Y0034172D01*
X0019666Y0018388D02*
X0017388Y0020666D01*
X0014411Y0021899D01*
X0011189Y0021899D01*
X0008212Y0020666D01*
X0005934Y0018388D01*
X0004701Y0015411D01*
X0004701Y0012189D01*
X0005934Y0009212D01*
X0008212Y0006934D01*
X0011189Y0005701D01*
X0014411Y0005701D01*
X0017388Y0006934D01*
X0019666Y0009212D01*
X0020899Y0012189D01*
X0020899Y0015411D01*
X0019666Y0018388D01*
X0019750Y0018187D02*
X0063850Y0018187D01*
X0063850Y0018287D02*
X0063850Y0014375D01*
X0067525Y0014375D01*
X0067525Y0019850D01*
X0065413Y0019850D01*
X0064955Y0019727D01*
X0064545Y0019490D01*
X0064210Y0019155D01*
X0063973Y0018745D01*
X0063850Y0018287D01*
X0063850Y0016588D02*
X0020412Y0016588D01*
X0020899Y0014990D02*
X0063850Y0014990D01*
X0063850Y0013825D02*
X0063850Y0009913D01*
X0063973Y0009455D01*
X0064210Y0009045D01*
X0064545Y0008710D01*
X0064955Y0008473D01*
X0065413Y0008350D01*
X0067525Y0008350D01*
X0067525Y0013825D01*
X0068075Y0013825D01*
X0068075Y0014375D01*
X0071750Y0014375D01*
X0071750Y0018287D01*
X0071627Y0018745D01*
X0071390Y0019155D01*
X0071055Y0019490D01*
X0070645Y0019727D01*
X0070187Y0019850D01*
X0068075Y0019850D01*
X0068075Y0014375D01*
X0067525Y0014375D01*
X0067525Y0013825D01*
X0063850Y0013825D01*
X0063850Y0013391D02*
X0020899Y0013391D01*
X0020735Y0011793D02*
X0063850Y0011793D01*
X0063850Y0010194D02*
X0020073Y0010194D01*
X0019050Y0008596D02*
X0064742Y0008596D01*
X0067525Y0008596D02*
X0068075Y0008596D01*
X0068075Y0008350D02*
X0070187Y0008350D01*
X0070645Y0008473D01*
X0071055Y0008710D01*
X0071390Y0009045D01*
X0071627Y0009455D01*
X0071750Y0009913D01*
X0071750Y0013825D01*
X0068075Y0013825D01*
X0068075Y0008350D01*
X0068075Y0010194D02*
X0067525Y0010194D01*
X0067525Y0011793D02*
X0068075Y0011793D01*
X0068075Y0013391D02*
X0067525Y0013391D01*
X0067525Y0014990D02*
X0068075Y0014990D01*
X0068075Y0016588D02*
X0067525Y0016588D01*
X0067525Y0018187D02*
X0068075Y0018187D01*
X0068075Y0019785D02*
X0067525Y0019785D01*
X0065171Y0019785D02*
X0018269Y0019785D01*
X0015656Y0021384D02*
X0086012Y0021384D01*
X0085413Y0019850D02*
X0084955Y0019727D01*
X0084545Y0019490D01*
X0084210Y0019155D01*
X0083973Y0018745D01*
X0083850Y0018287D01*
X0083850Y0014375D01*
X0087525Y0014375D01*
X0087525Y0019850D01*
X0085413Y0019850D01*
X0085171Y0019785D02*
X0080429Y0019785D01*
X0080645Y0019727D02*
X0080187Y0019850D01*
X0078075Y0019850D01*
X0078075Y0014375D01*
X0081750Y0014375D01*
X0081750Y0018287D01*
X0081627Y0018745D01*
X0081390Y0019155D01*
X0081055Y0019490D01*
X0080645Y0019727D01*
X0081750Y0018187D02*
X0083850Y0018187D01*
X0083850Y0016588D02*
X0081750Y0016588D01*
X0081750Y0014990D02*
X0083850Y0014990D01*
X0083850Y0013825D02*
X0083850Y0009913D01*
X0083973Y0009455D01*
X0084210Y0009045D01*
X0084545Y0008710D01*
X0084955Y0008473D01*
X0085413Y0008350D01*
X0087525Y0008350D01*
X0087525Y0013825D01*
X0088075Y0013825D01*
X0088075Y0014375D01*
X0087525Y0014375D01*
X0087525Y0013825D01*
X0083850Y0013825D01*
X0083850Y0013391D02*
X0081750Y0013391D01*
X0081750Y0013825D02*
X0078075Y0013825D01*
X0078075Y0014375D01*
X0077525Y0014375D01*
X0077525Y0019850D01*
X0075413Y0019850D01*
X0074955Y0019727D01*
X0074545Y0019490D01*
X0074210Y0019155D01*
X0073973Y0018745D01*
X0073850Y0018287D01*
X0073850Y0014375D01*
X0077525Y0014375D01*
X0077525Y0013825D01*
X0078075Y0013825D01*
X0078075Y0008350D01*
X0080187Y0008350D01*
X0080645Y0008473D01*
X0081055Y0008710D01*
X0081390Y0009045D01*
X0081627Y0009455D01*
X0081750Y0009913D01*
X0081750Y0013825D01*
X0081750Y0011793D02*
X0083850Y0011793D01*
X0083850Y0010194D02*
X0081750Y0010194D01*
X0080858Y0008596D02*
X0084742Y0008596D01*
X0087525Y0008596D02*
X0088075Y0008596D01*
X0088075Y0008350D02*
X0090187Y0008350D01*
X0090645Y0008473D01*
X0091055Y0008710D01*
X0091390Y0009045D01*
X0091627Y0009455D01*
X0091750Y0009913D01*
X0091750Y0013825D01*
X0088075Y0013825D01*
X0088075Y0008350D01*
X0088075Y0010194D02*
X0087525Y0010194D01*
X0087525Y0011793D02*
X0088075Y0011793D01*
X0088075Y0013391D02*
X0087525Y0013391D01*
X0087525Y0014990D02*
X0088075Y0014990D01*
X0088075Y0016588D02*
X0087525Y0016588D01*
X0087525Y0018187D02*
X0088075Y0018187D01*
X0087611Y0019785D02*
X0087525Y0019785D01*
X0089222Y0022982D02*
X0155405Y0022982D01*
X0155688Y0022700D02*
X0159912Y0022700D01*
X0162800Y0025588D01*
X0162992Y0025396D01*
X0148496Y0010900D01*
X0141750Y0010900D01*
X0141750Y0013825D01*
X0138075Y0013825D01*
X0138075Y0014375D01*
X0137525Y0014375D01*
X0137525Y0019850D01*
X0135413Y0019850D01*
X0134955Y0019727D01*
X0134545Y0019490D01*
X0134210Y0019155D01*
X0133973Y0018745D01*
X0133850Y0018287D01*
X0133850Y0014375D01*
X0137525Y0014375D01*
X0137525Y0013825D01*
X0133850Y0013825D01*
X0133850Y0010900D01*
X0131750Y0010900D01*
X0131750Y0013825D01*
X0128075Y0013825D01*
X0128075Y0014375D01*
X0127525Y0014375D01*
X0127525Y0019850D01*
X0125413Y0019850D01*
X0124955Y0019727D01*
X0124545Y0019490D01*
X0124210Y0019155D01*
X0123973Y0018745D01*
X0123850Y0018287D01*
X0123850Y0014375D01*
X0127525Y0014375D01*
X0127525Y0013825D01*
X0123850Y0013825D01*
X0123850Y0010900D01*
X0121750Y0010900D01*
X0121750Y0013825D01*
X0118075Y0013825D01*
X0118075Y0014375D01*
X0117525Y0014375D01*
X0117525Y0019850D01*
X0115413Y0019850D01*
X0114955Y0019727D01*
X0114545Y0019490D01*
X0114210Y0019155D01*
X0113973Y0018745D01*
X0113850Y0018287D01*
X0113850Y0014375D01*
X0117525Y0014375D01*
X0117525Y0013825D01*
X0113850Y0013825D01*
X0113850Y0010900D01*
X0111750Y0010900D01*
X0111750Y0013825D01*
X0108075Y0013825D01*
X0108075Y0014375D01*
X0107525Y0014375D01*
X0107525Y0019850D01*
X0105413Y0019850D01*
X0104955Y0019727D01*
X0104545Y0019490D01*
X0104210Y0019155D01*
X0103973Y0018745D01*
X0103850Y0018287D01*
X0103850Y0014375D01*
X0107525Y0014375D01*
X0107525Y0013825D01*
X0103850Y0013825D01*
X0103850Y0010900D01*
X0101750Y0010900D01*
X0101750Y0013825D01*
X0098075Y0013825D01*
X0098075Y0014375D01*
X0097525Y0014375D01*
X0097525Y0019850D01*
X0095413Y0019850D01*
X0094955Y0019727D01*
X0094545Y0019490D01*
X0094210Y0019155D01*
X0093973Y0018745D01*
X0093864Y0018340D01*
X0086100Y0026104D01*
X0086100Y0044150D01*
X0090530Y0044150D01*
X0090688Y0044308D01*
X0093296Y0041700D01*
X0142104Y0041700D01*
X0143100Y0042696D01*
X0144300Y0043896D01*
X0144300Y0054904D01*
X0143304Y0055900D01*
X0137100Y0062104D01*
X0137100Y0066475D01*
X0144128Y0066475D01*
X0144948Y0067295D01*
X0144948Y0071801D01*
X0144128Y0072621D01*
X0137100Y0072621D01*
X0137100Y0082223D01*
X0144128Y0082223D01*
X0144948Y0083043D01*
X0144948Y0084848D01*
X0145700Y0084096D01*
X0145700Y0072096D01*
X0153049Y0064747D01*
X0148086Y0064747D01*
X0147266Y0063927D01*
X0147266Y0059421D01*
X0148086Y0058601D01*
X0155939Y0058601D01*
X0156759Y0059421D01*
X0156759Y0061037D01*
X0157700Y0060096D01*
X0157700Y0052296D01*
X0158000Y0051996D01*
X0158000Y0048000D01*
X0157600Y0048000D01*
X0157600Y0053300D01*
X0155522Y0053300D01*
X0152300Y0050078D01*
X0152300Y0048000D01*
X0157600Y0048000D01*
X0157600Y0047600D01*
X0152300Y0047600D01*
X0152300Y0045522D01*
X0155305Y0042517D01*
X0152700Y0039912D01*
X0152700Y0035688D01*
X0155588Y0032800D01*
X0152700Y0029912D01*
X0152700Y0025688D01*
X0155688Y0022700D01*
X0153807Y0024581D02*
X0087623Y0024581D01*
X0086100Y0026179D02*
X0152700Y0026179D01*
X0152700Y0027778D02*
X0086100Y0027778D01*
X0086100Y0029376D02*
X0152700Y0029376D01*
X0153762Y0030975D02*
X0086100Y0030975D01*
X0086100Y0032573D02*
X0155361Y0032573D01*
X0154216Y0034172D02*
X0086100Y0034172D01*
X0086100Y0035770D02*
X0152700Y0035770D01*
X0152700Y0037369D02*
X0086100Y0037369D01*
X0086100Y0038967D02*
X0152700Y0038967D01*
X0153353Y0040566D02*
X0086100Y0040566D01*
X0086100Y0042164D02*
X0092832Y0042164D01*
X0091233Y0043763D02*
X0086100Y0043763D01*
X0082700Y0043763D02*
X0056567Y0043763D01*
X0058165Y0045361D02*
X0064250Y0045361D01*
X0064250Y0046960D02*
X0059764Y0046960D01*
X0061362Y0048558D02*
X0064250Y0048558D01*
X0064250Y0050157D02*
X0062961Y0050157D01*
X0071350Y0050157D02*
X0074250Y0050157D01*
X0074250Y0051755D02*
X0071759Y0051755D01*
X0073358Y0053354D02*
X0074250Y0053354D01*
X0074957Y0054952D02*
X0080348Y0054952D01*
X0081947Y0056551D02*
X0076555Y0056551D01*
X0078154Y0058149D02*
X0083545Y0058149D01*
X0085144Y0059748D02*
X0079752Y0059748D01*
X0081351Y0061346D02*
X0086300Y0061346D01*
X0086300Y0062945D02*
X0082949Y0062945D01*
X0084548Y0064543D02*
X0086300Y0064543D01*
X0082700Y0051755D02*
X0081959Y0051755D01*
X0081350Y0050157D02*
X0082700Y0050157D01*
X0082700Y0048558D02*
X0081350Y0048558D01*
X0081350Y0046960D02*
X0082700Y0046960D01*
X0082700Y0045361D02*
X0081350Y0045361D01*
X0082700Y0042164D02*
X0054968Y0042164D01*
X0053370Y0040566D02*
X0082700Y0040566D01*
X0082700Y0032573D02*
X0004600Y0032573D01*
X0004600Y0030975D02*
X0082700Y0030975D01*
X0082700Y0029376D02*
X0004600Y0029376D01*
X0004600Y0027778D02*
X0082700Y0027778D01*
X0082700Y0026179D02*
X0004600Y0026179D01*
X0004600Y0024581D02*
X0082815Y0024581D01*
X0084414Y0022982D02*
X0004600Y0022982D01*
X0004600Y0021384D02*
X0009944Y0021384D01*
X0007331Y0019785D02*
X0004600Y0019785D01*
X0004600Y0018187D02*
X0005850Y0018187D01*
X0005188Y0016588D02*
X0004600Y0016588D01*
X0004600Y0014990D02*
X0004701Y0014990D01*
X0004701Y0013391D02*
X0004600Y0013391D01*
X0004600Y0011793D02*
X0004865Y0011793D01*
X0004600Y0010194D02*
X0005527Y0010194D01*
X0004600Y0008596D02*
X0006550Y0008596D01*
X0008149Y0006997D02*
X0004600Y0006997D01*
X0017451Y0006997D02*
X0163149Y0006997D01*
X0163212Y0006934D02*
X0166189Y0005701D01*
X0169411Y0005701D01*
X0172388Y0006934D01*
X0174666Y0009212D01*
X0175899Y0012189D01*
X0175899Y0015411D01*
X0174666Y0018388D01*
X0172388Y0020666D01*
X0169411Y0021899D01*
X0166189Y0021899D01*
X0163212Y0020666D01*
X0160934Y0018388D01*
X0159701Y0015411D01*
X0159701Y0012189D01*
X0160934Y0009212D01*
X0163212Y0006934D01*
X0161550Y0008596D02*
X0151000Y0008596D01*
X0152598Y0010194D02*
X0160527Y0010194D01*
X0159865Y0011793D02*
X0154197Y0011793D01*
X0155795Y0013391D02*
X0159701Y0013391D01*
X0159701Y0014990D02*
X0157394Y0014990D01*
X0158992Y0016588D02*
X0160188Y0016588D01*
X0160591Y0018187D02*
X0160850Y0018187D01*
X0162189Y0019785D02*
X0162331Y0019785D01*
X0163788Y0021384D02*
X0164944Y0021384D01*
X0165386Y0022982D02*
X0165405Y0022982D01*
X0162176Y0024581D02*
X0161793Y0024581D01*
X0160578Y0022982D02*
X0160195Y0022982D01*
X0158979Y0021384D02*
X0090821Y0021384D01*
X0092419Y0019785D02*
X0095171Y0019785D01*
X0097525Y0019785D02*
X0098075Y0019785D01*
X0098075Y0019850D02*
X0098075Y0014375D01*
X0101750Y0014375D01*
X0101750Y0018287D01*
X0101627Y0018745D01*
X0101390Y0019155D01*
X0101055Y0019490D01*
X0100645Y0019727D01*
X0100187Y0019850D01*
X0098075Y0019850D01*
X0098075Y0018187D02*
X0097525Y0018187D01*
X0097525Y0016588D02*
X0098075Y0016588D01*
X0098075Y0014990D02*
X0097525Y0014990D01*
X0101750Y0014990D02*
X0103850Y0014990D01*
X0103850Y0016588D02*
X0101750Y0016588D01*
X0101750Y0018187D02*
X0103850Y0018187D01*
X0105171Y0019785D02*
X0100429Y0019785D01*
X0101750Y0013391D02*
X0103850Y0013391D01*
X0103850Y0011793D02*
X0101750Y0011793D01*
X0107525Y0014990D02*
X0108075Y0014990D01*
X0108075Y0014375D02*
X0108075Y0019850D01*
X0110187Y0019850D01*
X0110645Y0019727D01*
X0111055Y0019490D01*
X0111390Y0019155D01*
X0111627Y0018745D01*
X0111750Y0018287D01*
X0111750Y0014375D01*
X0108075Y0014375D01*
X0108075Y0016588D02*
X0107525Y0016588D01*
X0107525Y0018187D02*
X0108075Y0018187D01*
X0108075Y0019785D02*
X0107525Y0019785D01*
X0110429Y0019785D02*
X0115171Y0019785D01*
X0113850Y0018187D02*
X0111750Y0018187D01*
X0111750Y0016588D02*
X0113850Y0016588D01*
X0113850Y0014990D02*
X0111750Y0014990D01*
X0111750Y0013391D02*
X0113850Y0013391D01*
X0113850Y0011793D02*
X0111750Y0011793D01*
X0117525Y0014990D02*
X0118075Y0014990D01*
X0118075Y0014375D02*
X0118075Y0019850D01*
X0120187Y0019850D01*
X0120645Y0019727D01*
X0121055Y0019490D01*
X0121390Y0019155D01*
X0121627Y0018745D01*
X0121750Y0018287D01*
X0121750Y0014375D01*
X0118075Y0014375D01*
X0118075Y0016588D02*
X0117525Y0016588D01*
X0117525Y0018187D02*
X0118075Y0018187D01*
X0118075Y0019785D02*
X0117525Y0019785D01*
X0120429Y0019785D02*
X0125171Y0019785D01*
X0123850Y0018187D02*
X0121750Y0018187D01*
X0121750Y0016588D02*
X0123850Y0016588D01*
X0123850Y0014990D02*
X0121750Y0014990D01*
X0121750Y0013391D02*
X0123850Y0013391D01*
X0123850Y0011793D02*
X0121750Y0011793D01*
X0127525Y0014990D02*
X0128075Y0014990D01*
X0128075Y0014375D02*
X0128075Y0019850D01*
X0130187Y0019850D01*
X0130645Y0019727D01*
X0131055Y0019490D01*
X0131390Y0019155D01*
X0131627Y0018745D01*
X0131750Y0018287D01*
X0131750Y0014375D01*
X0128075Y0014375D01*
X0128075Y0016588D02*
X0127525Y0016588D01*
X0127525Y0018187D02*
X0128075Y0018187D01*
X0128075Y0019785D02*
X0127525Y0019785D01*
X0130429Y0019785D02*
X0135171Y0019785D01*
X0133850Y0018187D02*
X0131750Y0018187D01*
X0131750Y0016588D02*
X0133850Y0016588D01*
X0133850Y0014990D02*
X0131750Y0014990D01*
X0131750Y0013391D02*
X0133850Y0013391D01*
X0133850Y0011793D02*
X0131750Y0011793D01*
X0137525Y0014990D02*
X0138075Y0014990D01*
X0138075Y0014375D02*
X0138075Y0019850D01*
X0140187Y0019850D01*
X0140645Y0019727D01*
X0141055Y0019490D01*
X0141390Y0019155D01*
X0141627Y0018745D01*
X0141750Y0018287D01*
X0141750Y0014375D01*
X0138075Y0014375D01*
X0138075Y0016588D02*
X0137525Y0016588D01*
X0137525Y0018187D02*
X0138075Y0018187D01*
X0138075Y0019785D02*
X0137525Y0019785D01*
X0140429Y0019785D02*
X0157381Y0019785D01*
X0155782Y0018187D02*
X0141750Y0018187D01*
X0141750Y0016588D02*
X0154184Y0016588D01*
X0152585Y0014990D02*
X0141750Y0014990D01*
X0141750Y0013391D02*
X0150987Y0013391D01*
X0149388Y0011793D02*
X0141750Y0011793D01*
X0170195Y0022982D02*
X0176000Y0022982D01*
X0176000Y0021384D02*
X0170656Y0021384D01*
X0173269Y0019785D02*
X0176000Y0019785D01*
X0176000Y0018187D02*
X0174750Y0018187D01*
X0175412Y0016588D02*
X0176000Y0016588D01*
X0176000Y0014990D02*
X0175899Y0014990D01*
X0175899Y0013391D02*
X0176000Y0013391D01*
X0176000Y0011793D02*
X0175735Y0011793D01*
X0176000Y0010194D02*
X0175073Y0010194D01*
X0176000Y0008596D02*
X0174050Y0008596D01*
X0172451Y0006997D02*
X0176000Y0006997D01*
X0176000Y0024581D02*
X0171793Y0024581D01*
X0172900Y0026179D02*
X0176000Y0026179D01*
X0176000Y0027778D02*
X0172900Y0027778D01*
X0172900Y0029376D02*
X0176000Y0029376D01*
X0176000Y0030975D02*
X0171838Y0030975D01*
X0170239Y0032573D02*
X0176000Y0032573D01*
X0176000Y0034172D02*
X0171384Y0034172D01*
X0172900Y0035770D02*
X0176000Y0035770D01*
X0176000Y0037369D02*
X0172900Y0037369D01*
X0172900Y0038967D02*
X0176000Y0038967D01*
X0176000Y0040566D02*
X0172247Y0040566D01*
X0170648Y0042164D02*
X0176000Y0042164D01*
X0176000Y0043763D02*
X0170975Y0043763D01*
X0172574Y0045361D02*
X0176000Y0045361D01*
X0176000Y0046960D02*
X0172900Y0046960D01*
X0172900Y0048558D02*
X0176000Y0048558D01*
X0176000Y0050157D02*
X0172656Y0050157D01*
X0171057Y0051755D02*
X0176000Y0051755D01*
X0176000Y0053354D02*
X0165050Y0053354D01*
X0163452Y0054952D02*
X0176000Y0054952D01*
X0176000Y0056551D02*
X0173034Y0056551D01*
X0173316Y0056695D02*
X0173927Y0057139D01*
X0174461Y0057673D01*
X0174905Y0058284D01*
X0175248Y0058957D01*
X0175482Y0059676D01*
X0175600Y0060422D01*
X0175600Y0060600D01*
X0168000Y0060600D01*
X0168000Y0056000D01*
X0171178Y0056000D01*
X0171924Y0056118D01*
X0172643Y0056352D01*
X0173316Y0056695D01*
X0174807Y0058149D02*
X0176000Y0058149D01*
X0176000Y0059748D02*
X0175493Y0059748D01*
X0175600Y0061000D02*
X0175600Y0061178D01*
X0175482Y0061924D01*
X0175248Y0062643D01*
X0174905Y0063316D01*
X0174461Y0063927D01*
X0173927Y0064461D01*
X0173316Y0064905D01*
X0172643Y0065248D01*
X0171924Y0065482D01*
X0171178Y0065600D01*
X0168000Y0065600D01*
X0168000Y0061000D01*
X0175600Y0061000D01*
X0175573Y0061346D02*
X0176000Y0061346D01*
X0176000Y0062945D02*
X0175094Y0062945D01*
X0176000Y0064543D02*
X0173814Y0064543D01*
X0176000Y0066142D02*
X0162300Y0066142D01*
X0167600Y0064543D02*
X0168000Y0064543D01*
X0168000Y0062945D02*
X0167600Y0062945D01*
X0167600Y0061346D02*
X0168000Y0061346D01*
X0168000Y0059748D02*
X0167600Y0059748D01*
X0167600Y0058149D02*
X0168000Y0058149D01*
X0168000Y0056551D02*
X0167600Y0056551D01*
X0162566Y0056551D02*
X0162300Y0056551D01*
X0157700Y0056551D02*
X0142653Y0056551D01*
X0141055Y0058149D02*
X0157700Y0058149D01*
X0157700Y0059748D02*
X0156759Y0059748D01*
X0157700Y0054952D02*
X0144252Y0054952D01*
X0144300Y0053354D02*
X0157700Y0053354D01*
X0157600Y0051755D02*
X0158000Y0051755D01*
X0158000Y0050157D02*
X0157600Y0050157D01*
X0157600Y0048558D02*
X0158000Y0048558D01*
X0153977Y0051755D02*
X0144300Y0051755D01*
X0144300Y0050157D02*
X0152379Y0050157D01*
X0152300Y0048558D02*
X0144300Y0048558D01*
X0144300Y0046960D02*
X0152300Y0046960D01*
X0152461Y0045361D02*
X0144300Y0045361D01*
X0144167Y0043763D02*
X0154059Y0043763D01*
X0154952Y0042164D02*
X0142568Y0042164D01*
X0139456Y0059748D02*
X0147266Y0059748D01*
X0147266Y0061346D02*
X0137858Y0061346D01*
X0137100Y0062945D02*
X0147266Y0062945D01*
X0147882Y0064543D02*
X0137100Y0064543D01*
X0137100Y0066142D02*
X0151654Y0066142D01*
X0150055Y0067740D02*
X0144948Y0067740D01*
X0144948Y0069339D02*
X0148457Y0069339D01*
X0146858Y0070937D02*
X0144948Y0070937D01*
X0144213Y0072536D02*
X0145700Y0072536D01*
X0145700Y0074134D02*
X0137100Y0074134D01*
X0137100Y0075733D02*
X0145700Y0075733D01*
X0145700Y0077332D02*
X0137100Y0077332D01*
X0137100Y0078930D02*
X0145700Y0078930D01*
X0145700Y0080529D02*
X0137100Y0080529D01*
X0137100Y0082127D02*
X0145700Y0082127D01*
X0145700Y0083726D02*
X0144948Y0083726D01*
X0167600Y0094000D02*
X0167600Y0103600D01*
X0168000Y0103600D01*
X0168000Y0104000D01*
X0173300Y0104000D01*
X0173300Y0104233D01*
X0173165Y0105088D01*
X0172897Y0105911D01*
X0172504Y0106683D01*
X0171995Y0107383D01*
X0171383Y0107995D01*
X0170683Y0108504D01*
X0169911Y0108897D01*
X0169563Y0109010D01*
X0170689Y0109476D01*
X0172124Y0110911D01*
X0172900Y0112786D01*
X0172900Y0114814D01*
X0172124Y0116689D01*
X0170689Y0118124D01*
X0169056Y0118800D01*
X0170689Y0119476D01*
X0172124Y0120911D01*
X0172900Y0122786D01*
X0172900Y0124814D01*
X0172124Y0126689D01*
X0170689Y0128124D01*
X0169056Y0128800D01*
X0170689Y0129476D01*
X0172124Y0130911D01*
X0172900Y0132786D01*
X0172900Y0134814D01*
X0172124Y0136689D01*
X0170689Y0138124D01*
X0169056Y0138800D01*
X0170689Y0139476D01*
X0172124Y0140911D01*
X0172900Y0142786D01*
X0172900Y0144814D01*
X0172290Y0146286D01*
X0174300Y0148296D01*
X0174300Y0150431D01*
X0175892Y0150431D01*
X0176000Y0150540D01*
X0176000Y0083804D01*
X0175704Y0084100D01*
X0173304Y0086500D01*
X0170904Y0086500D01*
X0168985Y0088419D01*
X0169088Y0088435D01*
X0169911Y0088703D01*
X0170683Y0089096D01*
X0171383Y0089605D01*
X0171995Y0090217D01*
X0172504Y0090917D01*
X0172897Y0091689D01*
X0173165Y0092512D01*
X0173300Y0093367D01*
X0173300Y0093600D01*
X0168000Y0093600D01*
X0168000Y0094000D01*
X0173300Y0094000D01*
X0173300Y0094233D01*
X0173165Y0095088D01*
X0172897Y0095911D01*
X0172504Y0096683D01*
X0171995Y0097383D01*
X0171383Y0097995D01*
X0170683Y0098504D01*
X0170102Y0098800D01*
X0170683Y0099096D01*
X0171383Y0099605D01*
X0171995Y0100217D01*
X0172504Y0100917D01*
X0172897Y0101689D01*
X0173165Y0102512D01*
X0173300Y0103367D01*
X0173300Y0103600D01*
X0168000Y0103600D01*
X0168000Y0098300D01*
X0168000Y0094000D01*
X0167600Y0094000D01*
X0167600Y0094915D02*
X0168000Y0094915D01*
X0168000Y0096514D02*
X0167600Y0096514D01*
X0167600Y0098112D02*
X0168000Y0098112D01*
X0168000Y0099711D02*
X0167600Y0099711D01*
X0167600Y0101309D02*
X0168000Y0101309D01*
X0168000Y0102908D02*
X0167600Y0102908D01*
X0171489Y0099711D02*
X0176000Y0099711D01*
X0176000Y0101309D02*
X0172704Y0101309D01*
X0173227Y0102908D02*
X0176000Y0102908D01*
X0176000Y0104506D02*
X0173257Y0104506D01*
X0172798Y0106105D02*
X0176000Y0106105D01*
X0176000Y0107703D02*
X0171675Y0107703D01*
X0170267Y0109302D02*
X0176000Y0109302D01*
X0176000Y0110900D02*
X0172113Y0110900D01*
X0172781Y0112499D02*
X0176000Y0112499D01*
X0176000Y0114097D02*
X0172900Y0114097D01*
X0172535Y0115696D02*
X0176000Y0115696D01*
X0176000Y0117294D02*
X0171518Y0117294D01*
X0169280Y0118893D02*
X0176000Y0118893D01*
X0176000Y0120491D02*
X0171704Y0120491D01*
X0172612Y0122090D02*
X0176000Y0122090D01*
X0176000Y0123688D02*
X0172900Y0123688D01*
X0172704Y0125287D02*
X0176000Y0125287D01*
X0176000Y0126885D02*
X0171927Y0126885D01*
X0169819Y0128484D02*
X0176000Y0128484D01*
X0176000Y0130082D02*
X0171295Y0130082D01*
X0172442Y0131681D02*
X0176000Y0131681D01*
X0176000Y0133279D02*
X0172900Y0133279D01*
X0172874Y0134878D02*
X0176000Y0134878D01*
X0176000Y0136476D02*
X0172212Y0136476D01*
X0170738Y0138075D02*
X0176000Y0138075D01*
X0176000Y0139673D02*
X0170886Y0139673D01*
X0172273Y0141272D02*
X0176000Y0141272D01*
X0176000Y0142870D02*
X0172900Y0142870D01*
X0172900Y0144469D02*
X0176000Y0144469D01*
X0176000Y0146068D02*
X0172381Y0146068D01*
X0173670Y0147666D02*
X0176000Y0147666D01*
X0176000Y0149265D02*
X0174300Y0149265D01*
X0176000Y0157257D02*
X0161168Y0157257D01*
X0161168Y0155659D02*
X0162888Y0155659D01*
X0161168Y0158856D02*
X0176000Y0158856D01*
X0176000Y0160454D02*
X0152168Y0160454D01*
X0152168Y0162053D02*
X0163093Y0162053D01*
X0163212Y0161934D02*
X0160934Y0164212D01*
X0159701Y0167189D01*
X0159701Y0170411D01*
X0160934Y0173388D01*
X0163212Y0175666D01*
X0166189Y0176899D01*
X0169411Y0176899D01*
X0172388Y0175666D01*
X0174666Y0173388D01*
X0175899Y0170411D01*
X0175899Y0167189D01*
X0174666Y0164212D01*
X0172388Y0161934D01*
X0169411Y0160701D01*
X0166189Y0160701D01*
X0163212Y0161934D01*
X0161495Y0163651D02*
X0152168Y0163651D01*
X0151332Y0165250D02*
X0160504Y0165250D01*
X0159842Y0166848D02*
X0151775Y0166848D01*
X0151775Y0168447D02*
X0159701Y0168447D01*
X0159701Y0170045D02*
X0151732Y0170045D01*
X0152095Y0171644D02*
X0160211Y0171644D01*
X0160873Y0173242D02*
X0152175Y0173242D01*
X0152175Y0174841D02*
X0162387Y0174841D01*
X0165078Y0176439D02*
X0151809Y0176439D01*
X0145791Y0176439D02*
X0141809Y0176439D01*
X0142175Y0174841D02*
X0145425Y0174841D01*
X0145425Y0173242D02*
X0142175Y0173242D01*
X0142095Y0171644D02*
X0145505Y0171644D01*
X0145868Y0170045D02*
X0141732Y0170045D01*
X0141775Y0168447D02*
X0145825Y0168447D01*
X0145825Y0166848D02*
X0141775Y0166848D01*
X0141332Y0165250D02*
X0146268Y0165250D01*
X0145431Y0163651D02*
X0142168Y0163651D01*
X0142168Y0162053D02*
X0145431Y0162053D01*
X0145431Y0160454D02*
X0142168Y0160454D01*
X0142168Y0158856D02*
X0145346Y0158856D01*
X0143690Y0157257D02*
X0142110Y0157257D01*
X0145274Y0154060D02*
X0145431Y0154060D01*
X0145431Y0152462D02*
X0142168Y0152462D01*
X0146062Y0147666D02*
X0111712Y0147666D01*
X0111712Y0146068D02*
X0144463Y0146068D01*
X0142865Y0144469D02*
X0110929Y0144469D01*
X0111712Y0149265D02*
X0146900Y0149265D01*
X0146900Y0150863D02*
X0111197Y0150863D01*
X0110100Y0152462D02*
X0135431Y0152462D01*
X0133336Y0154060D02*
X0130153Y0154060D01*
X0130153Y0155659D02*
X0131737Y0155659D01*
X0133349Y0158856D02*
X0135431Y0158856D01*
X0135431Y0160454D02*
X0131750Y0160454D01*
X0130553Y0162053D02*
X0135431Y0162053D01*
X0135431Y0163651D02*
X0130553Y0163651D01*
X0130553Y0165250D02*
X0136268Y0165250D01*
X0135825Y0166848D02*
X0130553Y0166848D01*
X0129951Y0168447D02*
X0135825Y0168447D01*
X0135868Y0170045D02*
X0118838Y0170045D01*
X0119023Y0168447D02*
X0121649Y0168447D01*
X0121742Y0168540D02*
X0121407Y0168204D01*
X0121170Y0167794D01*
X0121047Y0167336D01*
X0121047Y0165020D01*
X0125320Y0165020D01*
X0125320Y0168899D01*
X0122610Y0168899D01*
X0122152Y0168777D01*
X0121742Y0168540D01*
X0121047Y0166848D02*
X0119023Y0166848D01*
X0119023Y0165250D02*
X0121047Y0165250D01*
X0121047Y0163651D02*
X0120153Y0163651D01*
X0125320Y0165250D02*
X0126280Y0165250D01*
X0126280Y0166848D02*
X0125320Y0166848D01*
X0125320Y0168447D02*
X0126280Y0168447D01*
X0135505Y0171644D02*
X0102417Y0171644D01*
X0103168Y0170045D02*
X0106762Y0170045D01*
X0112800Y0170045D02*
X0112800Y0170045D01*
X0112800Y0171081D02*
X0112800Y0166919D01*
X0112800Y0166919D01*
X0112800Y0171081D01*
X0112800Y0168447D02*
X0112800Y0168447D01*
X0113339Y0157257D02*
X0111543Y0157257D01*
X0111543Y0155659D02*
X0114057Y0155659D01*
X0114057Y0154060D02*
X0111543Y0154060D01*
X0106700Y0153617D02*
X0106700Y0151168D01*
X0105401Y0151168D01*
X0105077Y0150844D01*
X0105059Y0150874D01*
X0104724Y0151209D01*
X0104314Y0151446D01*
X0103856Y0151568D01*
X0101638Y0151568D01*
X0101638Y0147984D01*
X0101269Y0147984D01*
X0101269Y0151465D01*
X0106577Y0156773D01*
X0106577Y0153739D01*
X0106700Y0153617D01*
X0106577Y0154060D02*
X0103864Y0154060D01*
X0102266Y0152462D02*
X0106700Y0152462D01*
X0105096Y0150863D02*
X0105065Y0150863D01*
X0101638Y0150863D02*
X0101269Y0150863D01*
X0101269Y0149265D02*
X0101638Y0149265D01*
X0101269Y0147666D02*
X0097470Y0147666D01*
X0097488Y0146068D02*
X0095872Y0146068D01*
X0094273Y0144469D02*
X0098105Y0144469D01*
X0101269Y0144469D02*
X0101638Y0144469D01*
X0101638Y0146068D02*
X0101269Y0146068D01*
X0104802Y0144469D02*
X0105364Y0144469D01*
X0105463Y0155659D02*
X0106577Y0155659D01*
X0119023Y0154060D02*
X0121447Y0154060D01*
X0134947Y0157257D02*
X0135490Y0157257D01*
X0141266Y0142870D02*
X0092675Y0142870D01*
X0091076Y0141272D02*
X0139668Y0141272D01*
X0138069Y0139673D02*
X0089478Y0139673D01*
X0087879Y0138075D02*
X0136471Y0138075D01*
X0134872Y0136476D02*
X0086281Y0136476D01*
X0084682Y0134878D02*
X0133274Y0134878D01*
X0131675Y0133279D02*
X0083084Y0133279D01*
X0081485Y0131681D02*
X0088376Y0131681D01*
X0088376Y0130082D02*
X0087402Y0130082D01*
X0087446Y0130007D02*
X0087209Y0130417D01*
X0086874Y0130752D01*
X0086463Y0130989D01*
X0086005Y0131112D01*
X0083984Y0131112D01*
X0083984Y0127331D01*
X0087568Y0127331D01*
X0087568Y0129549D01*
X0087446Y0130007D01*
X0087568Y0128484D02*
X0088376Y0128484D01*
X0088376Y0126885D02*
X0087568Y0126885D01*
X0087568Y0125287D02*
X0098026Y0125287D01*
X0097986Y0123688D02*
X0098026Y0123688D01*
X0098657Y0128484D02*
X0098797Y0128484D01*
X0098657Y0130082D02*
X0100395Y0130082D01*
X0098657Y0131681D02*
X0102943Y0131681D01*
X0113224Y0131681D02*
X0113431Y0131681D01*
X0120168Y0131681D02*
X0130077Y0131681D01*
X0128478Y0130082D02*
X0120168Y0130082D01*
X0120168Y0128484D02*
X0126880Y0128484D01*
X0125281Y0126885D02*
X0120168Y0126885D01*
X0120453Y0125287D02*
X0123683Y0125287D01*
X0122084Y0123688D02*
X0120568Y0123688D01*
X0116984Y0122090D02*
X0116616Y0122090D01*
X0116616Y0120491D02*
X0116984Y0120491D01*
X0116984Y0118893D02*
X0116616Y0118893D01*
X0117500Y0117294D02*
X0112991Y0117294D01*
X0113224Y0118893D02*
X0113681Y0118893D01*
X0111243Y0115696D02*
X0117500Y0115696D01*
X0117500Y0114097D02*
X0111323Y0114097D01*
X0112524Y0114000D02*
X0112524Y0109700D01*
X0112524Y0109700D01*
X0112524Y0114000D01*
X0112524Y0112499D02*
X0112524Y0112499D01*
X0112524Y0110900D02*
X0112524Y0110900D01*
X0094876Y0114097D02*
X0058560Y0114097D01*
X0058800Y0112499D02*
X0094276Y0112499D01*
X0094276Y0110900D02*
X0070145Y0110900D01*
X0070145Y0109302D02*
X0094276Y0109302D01*
X0094876Y0115696D02*
X0075173Y0115696D01*
X0075600Y0117294D02*
X0080845Y0117294D01*
X0080431Y0118893D02*
X0074984Y0118893D01*
X0072113Y0120491D02*
X0080431Y0120491D01*
X0080431Y0122090D02*
X0070514Y0122090D01*
X0070145Y0123688D02*
X0080579Y0123688D01*
X0080031Y0125287D02*
X0070145Y0125287D01*
X0070145Y0126885D02*
X0080031Y0126885D01*
X0083616Y0128484D02*
X0083984Y0128484D01*
X0083984Y0130082D02*
X0083616Y0130082D01*
X0087021Y0123688D02*
X0089047Y0123688D01*
X0088609Y0117294D02*
X0086755Y0117294D01*
X0067305Y0120491D02*
X0038700Y0120491D01*
X0038700Y0118893D02*
X0048841Y0118893D01*
X0048841Y0117294D02*
X0038700Y0117294D01*
X0038700Y0115696D02*
X0048841Y0115696D01*
X0049283Y0114097D02*
X0037501Y0114097D01*
X0035903Y0112499D02*
X0053600Y0112499D01*
X0054623Y0110900D02*
X0034304Y0110900D01*
X0034391Y0109302D02*
X0060652Y0109302D01*
X0060652Y0110900D02*
X0057777Y0110900D01*
X0060652Y0107703D02*
X0036778Y0107703D01*
X0037460Y0106105D02*
X0061212Y0106105D01*
X0063705Y0101309D02*
X0058334Y0101309D01*
X0058334Y0099711D02*
X0062107Y0099711D01*
X0060508Y0098112D02*
X0057655Y0098112D01*
X0058910Y0096514D02*
X0034911Y0096514D01*
X0036912Y0098112D02*
X0049520Y0098112D01*
X0048841Y0099711D02*
X0037460Y0099711D01*
X0037460Y0101309D02*
X0048841Y0101309D01*
X0055712Y0093317D02*
X0025543Y0093317D01*
X0025543Y0094915D02*
X0057311Y0094915D01*
X0058922Y0091718D02*
X0060652Y0091718D01*
X0060652Y0093317D02*
X0060521Y0093317D01*
X0061449Y0090120D02*
X0057324Y0090120D01*
X0055725Y0088521D02*
X0064717Y0088521D01*
X0063118Y0086923D02*
X0058334Y0086923D01*
X0058334Y0085324D02*
X0061520Y0085324D01*
X0059921Y0083726D02*
X0058334Y0083726D01*
X0052515Y0090120D02*
X0025543Y0090120D01*
X0025543Y0091718D02*
X0054114Y0091718D01*
X0048841Y0085324D02*
X0039928Y0085324D01*
X0038330Y0083726D02*
X0048841Y0083726D01*
X0038317Y0088521D02*
X0025543Y0088521D01*
X0026716Y0086923D02*
X0030412Y0086923D01*
X0029576Y0085324D02*
X0027552Y0085324D01*
X0027617Y0083726D02*
X0029510Y0083726D01*
X0029510Y0082127D02*
X0027617Y0082127D01*
X0027617Y0080529D02*
X0029510Y0080529D01*
X0029510Y0078930D02*
X0027617Y0078930D01*
X0027160Y0077332D02*
X0029967Y0077332D01*
X0036558Y0086923D02*
X0036718Y0086923D01*
X0032059Y0096514D02*
X0025543Y0096514D01*
X0027070Y0098112D02*
X0030058Y0098112D01*
X0029510Y0099711D02*
X0027617Y0099711D01*
X0027617Y0101309D02*
X0029510Y0101309D01*
X0029510Y0102908D02*
X0027617Y0102908D01*
X0027910Y0104506D02*
X0029510Y0104506D01*
X0029509Y0106105D02*
X0029510Y0106105D01*
X0020350Y0107703D02*
X0017516Y0107703D01*
X0018114Y0106105D02*
X0019668Y0106105D01*
X0019668Y0104506D02*
X0018175Y0104506D01*
X0018175Y0102908D02*
X0019668Y0102908D01*
X0019668Y0101309D02*
X0018175Y0101309D01*
X0018148Y0099711D02*
X0019668Y0099711D01*
X0020215Y0098112D02*
X0017633Y0098112D01*
X0016134Y0096514D02*
X0021743Y0096514D01*
X0013800Y0096514D02*
X0013800Y0096514D01*
X0013800Y0098112D02*
X0013800Y0098112D01*
X0013800Y0099711D02*
X0013800Y0099711D01*
X0013800Y0101309D02*
X0013800Y0101309D01*
X0013800Y0102908D02*
X0013800Y0102908D01*
X0013800Y0104506D02*
X0013800Y0104506D01*
X0013800Y0106105D02*
X0013800Y0106105D01*
X0013800Y0107703D02*
X0013800Y0107703D01*
X0013800Y0125287D02*
X0013800Y0125287D01*
X0013800Y0126885D02*
X0013800Y0126885D01*
X0013800Y0128484D02*
X0013800Y0128484D01*
X0013800Y0130082D02*
X0013800Y0130082D01*
X0013800Y0131681D02*
X0013800Y0131681D01*
X0013800Y0133279D02*
X0013800Y0133279D01*
X0013800Y0134878D02*
X0013800Y0134878D01*
X0013800Y0136476D02*
X0013800Y0136476D01*
X0016885Y0136476D02*
X0021123Y0136476D01*
X0019963Y0134878D02*
X0017912Y0134878D01*
X0018175Y0133279D02*
X0019668Y0133279D01*
X0019668Y0131681D02*
X0018175Y0131681D01*
X0018175Y0130082D02*
X0019668Y0130082D01*
X0019668Y0128484D02*
X0018175Y0128484D01*
X0017965Y0126885D02*
X0019895Y0126885D01*
X0020960Y0125287D02*
X0017049Y0125287D01*
X0026325Y0125287D02*
X0030802Y0125287D01*
X0029738Y0126885D02*
X0027390Y0126885D01*
X0027617Y0128484D02*
X0029510Y0128484D01*
X0029510Y0130082D02*
X0027617Y0130082D01*
X0027617Y0131681D02*
X0029510Y0131681D01*
X0029510Y0133279D02*
X0027617Y0133279D01*
X0027322Y0134878D02*
X0029805Y0134878D01*
X0030965Y0136476D02*
X0026162Y0136476D01*
X0026762Y0138075D02*
X0045271Y0138075D01*
X0046869Y0139673D02*
X0028360Y0139673D01*
X0025894Y0145856D02*
X0024433Y0145250D01*
X0022852Y0145250D01*
X0021391Y0145856D01*
X0020273Y0146974D01*
X0019668Y0148435D01*
X0019668Y0155165D01*
X0020273Y0156626D01*
X0021391Y0157744D01*
X0021743Y0157890D01*
X0021743Y0164894D01*
X0023435Y0166587D01*
X0023435Y0171274D01*
X0024256Y0172094D01*
X0030415Y0172094D01*
X0031235Y0171274D01*
X0031235Y0164326D01*
X0030415Y0163506D01*
X0025729Y0163506D01*
X0025543Y0163320D01*
X0025543Y0157890D01*
X0025894Y0157744D01*
X0027012Y0156626D01*
X0027617Y0155165D01*
X0027617Y0148435D01*
X0027012Y0146974D01*
X0025894Y0145856D01*
X0026106Y0146068D02*
X0031022Y0146068D01*
X0029829Y0147666D02*
X0027299Y0147666D01*
X0027617Y0149265D02*
X0029510Y0149265D01*
X0029510Y0150863D02*
X0027617Y0150863D01*
X0027617Y0152462D02*
X0029510Y0152462D01*
X0029510Y0154060D02*
X0027617Y0154060D01*
X0027413Y0155659D02*
X0029715Y0155659D01*
X0030746Y0157257D02*
X0026381Y0157257D01*
X0025543Y0158856D02*
X0042365Y0158856D01*
X0042365Y0160454D02*
X0025543Y0160454D01*
X0025543Y0162053D02*
X0042365Y0162053D01*
X0041040Y0163651D02*
X0030560Y0163651D01*
X0031235Y0165250D02*
X0040365Y0165250D01*
X0040365Y0166848D02*
X0031235Y0166848D01*
X0031235Y0168447D02*
X0040365Y0168447D01*
X0040365Y0170045D02*
X0031235Y0170045D01*
X0030865Y0171644D02*
X0040735Y0171644D01*
X0047794Y0171644D02*
X0097183Y0171644D01*
X0084669Y0139673D02*
X0051678Y0139673D01*
X0050079Y0138075D02*
X0083071Y0138075D01*
X0043672Y0136476D02*
X0036005Y0136476D01*
X0037165Y0134878D02*
X0042074Y0134878D01*
X0040475Y0133279D02*
X0037460Y0133279D01*
X0037460Y0131681D02*
X0038877Y0131681D01*
X0038578Y0149265D02*
X0037460Y0149265D01*
X0037460Y0150863D02*
X0040176Y0150863D01*
X0041775Y0152462D02*
X0037460Y0152462D01*
X0037460Y0154060D02*
X0042365Y0154060D01*
X0042365Y0155659D02*
X0037256Y0155659D01*
X0036224Y0157257D02*
X0042365Y0157257D01*
X0023435Y0166848D02*
X0020758Y0166848D01*
X0020899Y0167189D02*
X0019666Y0164212D01*
X0017388Y0161934D01*
X0014411Y0160701D01*
X0011189Y0160701D01*
X0008212Y0161934D01*
X0005934Y0164212D01*
X0004701Y0167189D01*
X0004701Y0170411D01*
X0005934Y0173388D01*
X0008212Y0175666D01*
X0011189Y0176899D01*
X0014411Y0176899D01*
X0017388Y0175666D01*
X0019666Y0173388D01*
X0020899Y0170411D01*
X0020899Y0167189D01*
X0020899Y0168447D02*
X0023435Y0168447D01*
X0023435Y0170045D02*
X0020899Y0170045D01*
X0020389Y0171644D02*
X0023806Y0171644D01*
X0019727Y0173242D02*
X0135425Y0173242D01*
X0135425Y0174841D02*
X0018213Y0174841D01*
X0015522Y0176439D02*
X0135791Y0176439D01*
X0170522Y0176439D02*
X0176000Y0176439D01*
X0176000Y0174841D02*
X0173213Y0174841D01*
X0174727Y0173242D02*
X0176000Y0173242D01*
X0176000Y0171644D02*
X0175389Y0171644D01*
X0175899Y0170045D02*
X0176000Y0170045D01*
X0176000Y0168447D02*
X0175899Y0168447D01*
X0176000Y0166848D02*
X0175758Y0166848D01*
X0176000Y0165250D02*
X0175096Y0165250D01*
X0176000Y0163651D02*
X0174105Y0163651D01*
X0172507Y0162053D02*
X0176000Y0162053D01*
X0176000Y0098112D02*
X0171222Y0098112D01*
X0172590Y0096514D02*
X0176000Y0096514D01*
X0176000Y0094915D02*
X0173192Y0094915D01*
X0173292Y0093317D02*
X0176000Y0093317D01*
X0176000Y0091718D02*
X0172907Y0091718D01*
X0171898Y0090120D02*
X0176000Y0090120D01*
X0176000Y0088521D02*
X0169352Y0088521D01*
X0170482Y0086923D02*
X0176000Y0086923D01*
X0176000Y0085324D02*
X0174480Y0085324D01*
X0175336Y0077332D02*
X0176000Y0077332D01*
X0176000Y0075733D02*
X0173737Y0075733D01*
X0173688Y0074134D02*
X0176000Y0074134D01*
X0176000Y0072536D02*
X0174843Y0072536D01*
X0175200Y0070937D02*
X0176000Y0070937D01*
X0176000Y0069339D02*
X0174957Y0069339D01*
X0173963Y0067740D02*
X0176000Y0067740D01*
X0120346Y0054850D02*
X0115070Y0054850D01*
X0114956Y0054736D01*
X0114317Y0055000D01*
X0113604Y0055000D01*
X0101086Y0067518D01*
X0101273Y0067596D01*
X0102004Y0068327D01*
X0102312Y0069071D01*
X0102483Y0069000D01*
X0103517Y0069000D01*
X0104200Y0069283D01*
X0104200Y0069283D01*
X0104596Y0068327D01*
X0105327Y0067596D01*
X0106283Y0067200D01*
X0107317Y0067200D01*
X0108273Y0067596D01*
X0109004Y0068327D01*
X0109400Y0069283D01*
X0109400Y0070317D01*
X0109004Y0071273D01*
X0108700Y0071577D01*
X0108700Y0071600D01*
X0109375Y0071600D01*
X0110712Y0071600D01*
X0111170Y0071723D01*
X0111580Y0071960D01*
X0111620Y0072000D01*
X0117500Y0072000D01*
X0117500Y0057696D01*
X0120346Y0054850D01*
X0120243Y0054952D02*
X0114432Y0054952D01*
X0112053Y0056551D02*
X0118645Y0056551D01*
X0117500Y0058149D02*
X0110455Y0058149D01*
X0108856Y0059748D02*
X0117500Y0059748D01*
X0117500Y0061346D02*
X0107258Y0061346D01*
X0105659Y0062945D02*
X0117500Y0062945D01*
X0117500Y0064543D02*
X0104061Y0064543D01*
X0102462Y0066142D02*
X0117500Y0066142D01*
X0117500Y0067740D02*
X0108417Y0067740D01*
X0109400Y0069339D02*
X0117500Y0069339D01*
X0117500Y0070937D02*
X0109143Y0070937D01*
X0109375Y0071600D02*
X0109375Y0075900D01*
X0109375Y0071600D01*
X0109375Y0072536D02*
X0109375Y0072536D01*
X0109375Y0074134D02*
X0109375Y0074134D01*
X0109375Y0075733D02*
X0109375Y0075733D01*
X0109375Y0075900D02*
X0109375Y0075900D01*
X0105183Y0067740D02*
X0101417Y0067740D01*
X0074250Y0048558D02*
X0071350Y0048558D01*
X0071350Y0046960D02*
X0074250Y0046960D01*
X0074250Y0045361D02*
X0071350Y0045361D01*
X0065435Y0059748D02*
X0065362Y0059748D01*
X0065362Y0061346D02*
X0065435Y0061346D01*
X0065435Y0062945D02*
X0065362Y0062945D01*
X0065362Y0064543D02*
X0065435Y0064543D01*
X0070429Y0019785D02*
X0075171Y0019785D01*
X0073850Y0018187D02*
X0071750Y0018187D01*
X0071750Y0016588D02*
X0073850Y0016588D01*
X0073850Y0014990D02*
X0071750Y0014990D01*
X0071750Y0013391D02*
X0073850Y0013391D01*
X0073850Y0013825D02*
X0073850Y0009913D01*
X0073973Y0009455D01*
X0074210Y0009045D01*
X0074545Y0008710D01*
X0074955Y0008473D01*
X0075413Y0008350D01*
X0077525Y0008350D01*
X0077525Y0013825D01*
X0073850Y0013825D01*
X0073850Y0011793D02*
X0071750Y0011793D01*
X0071750Y0010194D02*
X0073850Y0010194D01*
X0074742Y0008596D02*
X0070858Y0008596D01*
X0077525Y0008596D02*
X0078075Y0008596D01*
X0078075Y0010194D02*
X0077525Y0010194D01*
X0077525Y0011793D02*
X0078075Y0011793D01*
X0078075Y0013391D02*
X0077525Y0013391D01*
X0077525Y0014990D02*
X0078075Y0014990D01*
X0078075Y0016588D02*
X0077525Y0016588D01*
X0077525Y0018187D02*
X0078075Y0018187D01*
X0078075Y0019785D02*
X0077525Y0019785D01*
X0090858Y0008596D02*
X0093400Y0008596D01*
X0092900Y0010194D02*
X0091750Y0010194D01*
X0091750Y0011793D02*
X0092900Y0011793D01*
X0092900Y0013391D02*
X0091750Y0013391D01*
X0091750Y0014990D02*
X0092406Y0014990D01*
X0013800Y0034172D02*
X0013800Y0034172D01*
X0013800Y0035770D02*
X0013800Y0035770D01*
X0013800Y0037369D02*
X0013800Y0037369D01*
X0013800Y0038967D02*
X0013800Y0038967D01*
X0013800Y0040566D02*
X0013800Y0040566D01*
X0013800Y0042164D02*
X0013800Y0042164D01*
X0013800Y0043763D02*
X0013800Y0043763D01*
X0013800Y0045361D02*
X0013800Y0045361D01*
X0010600Y0045361D02*
X0004600Y0045361D01*
X0004600Y0043763D02*
X0009651Y0043763D01*
X0009425Y0042164D02*
X0004600Y0042164D01*
X0004600Y0040566D02*
X0009425Y0040566D01*
X0009425Y0038967D02*
X0004600Y0038967D01*
X0004600Y0037369D02*
X0009425Y0037369D01*
X0009673Y0035770D02*
X0004600Y0035770D01*
X0004600Y0034172D02*
X0010667Y0034172D01*
X0013456Y0144850D02*
X0012776Y0144958D01*
X0012121Y0145171D01*
X0011507Y0145484D01*
X0010950Y0145888D01*
X0010463Y0146375D01*
X0010058Y0146932D01*
X0009746Y0147546D01*
X0009533Y0148201D01*
X0009425Y0148881D01*
X0009425Y0151800D01*
X0013800Y0151800D01*
X0018175Y0151800D01*
X0018175Y0154719D01*
X0018067Y0155399D01*
X0017854Y0156054D01*
X0017542Y0156668D01*
X0017137Y0157225D01*
X0016650Y0157712D01*
X0016093Y0158116D01*
X0015479Y0158429D01*
X0014824Y0158642D01*
X0014144Y0158750D01*
X0013800Y0158750D01*
X0013456Y0158750D01*
X0012776Y0158642D01*
X0012121Y0158429D01*
X0011507Y0158116D01*
X0010950Y0157712D01*
X0010463Y0157225D01*
X0010058Y0156668D01*
X0009746Y0156054D01*
X0009533Y0155399D01*
X0009425Y0154719D01*
X0009425Y0151800D01*
X0013800Y0151800D01*
X0013800Y0151800D01*
X0013800Y0151800D01*
X0013800Y0158750D01*
X0013800Y0151800D01*
X0018175Y0151800D01*
X0018175Y0148881D01*
X0018067Y0148201D01*
X0017854Y0147546D01*
X0017542Y0146932D01*
X0017137Y0146375D01*
X0016650Y0145888D01*
X0016093Y0145484D01*
X0015479Y0145171D01*
X0014824Y0144958D01*
X0014144Y0144850D01*
X0013800Y0144850D01*
X0013800Y0151800D01*
X0013800Y0144850D01*
X0013456Y0144850D01*
X0013800Y0146068D02*
X0013800Y0146068D01*
X0013800Y0147666D02*
X0013800Y0147666D01*
X0013800Y0149265D02*
X0013800Y0149265D01*
X0013800Y0150863D02*
X0013800Y0150863D01*
X0013800Y0151800D02*
X0013800Y0151800D01*
X0013800Y0151800D01*
X0013800Y0152462D02*
X0013800Y0152462D01*
X0013800Y0154060D02*
X0013800Y0154060D01*
X0013800Y0155659D02*
X0013800Y0155659D01*
X0013800Y0157257D02*
X0013800Y0157257D01*
X0017105Y0157257D02*
X0020904Y0157257D01*
X0021743Y0158856D02*
X0004600Y0158856D01*
X0004600Y0160454D02*
X0021743Y0160454D01*
X0021743Y0162053D02*
X0017507Y0162053D01*
X0019105Y0163651D02*
X0021743Y0163651D01*
X0022098Y0165250D02*
X0020096Y0165250D01*
X0019872Y0155659D02*
X0017983Y0155659D01*
X0018175Y0154060D02*
X0019668Y0154060D01*
X0019668Y0152462D02*
X0018175Y0152462D01*
X0018175Y0150863D02*
X0019668Y0150863D01*
X0019668Y0149265D02*
X0018175Y0149265D01*
X0017893Y0147666D02*
X0019986Y0147666D01*
X0021179Y0146068D02*
X0016829Y0146068D01*
X0010771Y0146068D02*
X0004600Y0146068D01*
X0004600Y0147666D02*
X0009707Y0147666D01*
X0009425Y0149265D02*
X0004600Y0149265D01*
X0004600Y0150863D02*
X0009425Y0150863D01*
X0009425Y0152462D02*
X0004600Y0152462D01*
X0004600Y0154060D02*
X0009425Y0154060D01*
X0009617Y0155659D02*
X0004600Y0155659D01*
X0004600Y0157257D02*
X0010495Y0157257D01*
X0008093Y0162053D02*
X0004600Y0162053D01*
X0004600Y0163651D02*
X0006495Y0163651D01*
X0005504Y0165250D02*
X0004600Y0165250D01*
X0004600Y0166848D02*
X0004842Y0166848D01*
X0004701Y0168447D02*
X0004600Y0168447D01*
X0004600Y0170045D02*
X0004701Y0170045D01*
X0004600Y0171644D02*
X0005211Y0171644D01*
X0004600Y0173242D02*
X0005873Y0173242D01*
X0004600Y0174841D02*
X0007387Y0174841D01*
X0010078Y0176439D02*
X0004600Y0176439D01*
D29*
X0023643Y0164107D02*
X0027335Y0167800D01*
X0023643Y0164107D02*
X0023643Y0151800D01*
X0027800Y0141800D02*
X0023800Y0137800D01*
X0023800Y0130957D01*
X0023643Y0130800D01*
X0027800Y0141800D02*
X0033800Y0141800D01*
X0044265Y0152265D01*
X0044265Y0167800D01*
X0083800Y0120454D02*
X0083981Y0120272D01*
X0093517Y0120272D01*
X0096800Y0116989D01*
X0096800Y0116800D01*
X0096776Y0116776D01*
X0096776Y0109700D01*
X0099926Y0109700D02*
X0099926Y0126926D01*
X0101800Y0128800D01*
X0107556Y0128800D01*
X0108083Y0129328D01*
X0116619Y0129328D01*
X0116800Y0129146D01*
X0108800Y0114800D02*
X0108800Y0110275D01*
X0109375Y0109700D01*
X0103076Y0109700D02*
X0102800Y0109976D01*
X0102800Y0114800D01*
X0099926Y0075900D02*
X0099800Y0075774D01*
X0099800Y0069800D01*
X0106225Y0075900D02*
X0106800Y0075325D01*
X0106800Y0069800D01*
X0023643Y0060800D02*
X0023643Y0039800D01*
X0023643Y0060800D02*
X0023643Y0081800D01*
X0023643Y0102800D01*
X0166212Y0153900D02*
X0166245Y0153898D01*
X0166279Y0153893D01*
X0166311Y0153885D01*
X0166342Y0153874D01*
X0166373Y0153860D01*
X0166401Y0153843D01*
X0166428Y0153823D01*
X0166453Y0153800D01*
M02*
