G75*
%MOIN*%
%OFA0B0*%
%FSLAX25Y25*%
%IPPOS*%
%LPD*%
%AMOC8*
5,1,8,0,0,1.08239X$1,22.5*
%
%ADD10C,0.00000*%
%ADD11C,0.12998*%
%ADD12OC8,0.07800*%
%ADD13R,0.02600X0.05400*%
%ADD14R,0.05400X0.02600*%
%ADD15R,0.04700X0.08300*%
%ADD16R,0.04337X0.04731*%
%ADD17R,0.05400X0.06187*%
%ADD18R,0.03550X0.03550*%
%ADD19R,0.07093X0.03746*%
%ADD20R,0.07880X0.04731*%
%ADD21C,0.07800*%
%ADD22R,0.04731X0.04337*%
%ADD23C,0.05550*%
%ADD24C,0.06400*%
%ADD25R,0.02565X0.05124*%
%ADD26R,0.06306X0.05518*%
D10*
X0002800Y0003800D02*
X0002800Y0178800D01*
X0177800Y0178800D01*
X0177800Y0003800D01*
X0002800Y0003800D01*
X0006501Y0013800D02*
X0006503Y0013958D01*
X0006509Y0014116D01*
X0006519Y0014274D01*
X0006533Y0014432D01*
X0006551Y0014589D01*
X0006572Y0014746D01*
X0006598Y0014902D01*
X0006628Y0015058D01*
X0006661Y0015213D01*
X0006699Y0015366D01*
X0006740Y0015519D01*
X0006785Y0015671D01*
X0006834Y0015822D01*
X0006887Y0015971D01*
X0006943Y0016119D01*
X0007003Y0016265D01*
X0007067Y0016410D01*
X0007135Y0016553D01*
X0007206Y0016695D01*
X0007280Y0016835D01*
X0007358Y0016972D01*
X0007440Y0017108D01*
X0007524Y0017242D01*
X0007613Y0017373D01*
X0007704Y0017502D01*
X0007799Y0017629D01*
X0007896Y0017754D01*
X0007997Y0017876D01*
X0008101Y0017995D01*
X0008208Y0018112D01*
X0008318Y0018226D01*
X0008431Y0018337D01*
X0008546Y0018446D01*
X0008664Y0018551D01*
X0008785Y0018653D01*
X0008908Y0018753D01*
X0009034Y0018849D01*
X0009162Y0018942D01*
X0009292Y0019032D01*
X0009425Y0019118D01*
X0009560Y0019202D01*
X0009696Y0019281D01*
X0009835Y0019358D01*
X0009976Y0019430D01*
X0010118Y0019500D01*
X0010262Y0019565D01*
X0010408Y0019627D01*
X0010555Y0019685D01*
X0010704Y0019740D01*
X0010854Y0019791D01*
X0011005Y0019838D01*
X0011157Y0019881D01*
X0011310Y0019920D01*
X0011465Y0019956D01*
X0011620Y0019987D01*
X0011776Y0020015D01*
X0011932Y0020039D01*
X0012089Y0020059D01*
X0012247Y0020075D01*
X0012404Y0020087D01*
X0012563Y0020095D01*
X0012721Y0020099D01*
X0012879Y0020099D01*
X0013037Y0020095D01*
X0013196Y0020087D01*
X0013353Y0020075D01*
X0013511Y0020059D01*
X0013668Y0020039D01*
X0013824Y0020015D01*
X0013980Y0019987D01*
X0014135Y0019956D01*
X0014290Y0019920D01*
X0014443Y0019881D01*
X0014595Y0019838D01*
X0014746Y0019791D01*
X0014896Y0019740D01*
X0015045Y0019685D01*
X0015192Y0019627D01*
X0015338Y0019565D01*
X0015482Y0019500D01*
X0015624Y0019430D01*
X0015765Y0019358D01*
X0015904Y0019281D01*
X0016040Y0019202D01*
X0016175Y0019118D01*
X0016308Y0019032D01*
X0016438Y0018942D01*
X0016566Y0018849D01*
X0016692Y0018753D01*
X0016815Y0018653D01*
X0016936Y0018551D01*
X0017054Y0018446D01*
X0017169Y0018337D01*
X0017282Y0018226D01*
X0017392Y0018112D01*
X0017499Y0017995D01*
X0017603Y0017876D01*
X0017704Y0017754D01*
X0017801Y0017629D01*
X0017896Y0017502D01*
X0017987Y0017373D01*
X0018076Y0017242D01*
X0018160Y0017108D01*
X0018242Y0016972D01*
X0018320Y0016835D01*
X0018394Y0016695D01*
X0018465Y0016553D01*
X0018533Y0016410D01*
X0018597Y0016265D01*
X0018657Y0016119D01*
X0018713Y0015971D01*
X0018766Y0015822D01*
X0018815Y0015671D01*
X0018860Y0015519D01*
X0018901Y0015366D01*
X0018939Y0015213D01*
X0018972Y0015058D01*
X0019002Y0014902D01*
X0019028Y0014746D01*
X0019049Y0014589D01*
X0019067Y0014432D01*
X0019081Y0014274D01*
X0019091Y0014116D01*
X0019097Y0013958D01*
X0019099Y0013800D01*
X0019097Y0013642D01*
X0019091Y0013484D01*
X0019081Y0013326D01*
X0019067Y0013168D01*
X0019049Y0013011D01*
X0019028Y0012854D01*
X0019002Y0012698D01*
X0018972Y0012542D01*
X0018939Y0012387D01*
X0018901Y0012234D01*
X0018860Y0012081D01*
X0018815Y0011929D01*
X0018766Y0011778D01*
X0018713Y0011629D01*
X0018657Y0011481D01*
X0018597Y0011335D01*
X0018533Y0011190D01*
X0018465Y0011047D01*
X0018394Y0010905D01*
X0018320Y0010765D01*
X0018242Y0010628D01*
X0018160Y0010492D01*
X0018076Y0010358D01*
X0017987Y0010227D01*
X0017896Y0010098D01*
X0017801Y0009971D01*
X0017704Y0009846D01*
X0017603Y0009724D01*
X0017499Y0009605D01*
X0017392Y0009488D01*
X0017282Y0009374D01*
X0017169Y0009263D01*
X0017054Y0009154D01*
X0016936Y0009049D01*
X0016815Y0008947D01*
X0016692Y0008847D01*
X0016566Y0008751D01*
X0016438Y0008658D01*
X0016308Y0008568D01*
X0016175Y0008482D01*
X0016040Y0008398D01*
X0015904Y0008319D01*
X0015765Y0008242D01*
X0015624Y0008170D01*
X0015482Y0008100D01*
X0015338Y0008035D01*
X0015192Y0007973D01*
X0015045Y0007915D01*
X0014896Y0007860D01*
X0014746Y0007809D01*
X0014595Y0007762D01*
X0014443Y0007719D01*
X0014290Y0007680D01*
X0014135Y0007644D01*
X0013980Y0007613D01*
X0013824Y0007585D01*
X0013668Y0007561D01*
X0013511Y0007541D01*
X0013353Y0007525D01*
X0013196Y0007513D01*
X0013037Y0007505D01*
X0012879Y0007501D01*
X0012721Y0007501D01*
X0012563Y0007505D01*
X0012404Y0007513D01*
X0012247Y0007525D01*
X0012089Y0007541D01*
X0011932Y0007561D01*
X0011776Y0007585D01*
X0011620Y0007613D01*
X0011465Y0007644D01*
X0011310Y0007680D01*
X0011157Y0007719D01*
X0011005Y0007762D01*
X0010854Y0007809D01*
X0010704Y0007860D01*
X0010555Y0007915D01*
X0010408Y0007973D01*
X0010262Y0008035D01*
X0010118Y0008100D01*
X0009976Y0008170D01*
X0009835Y0008242D01*
X0009696Y0008319D01*
X0009560Y0008398D01*
X0009425Y0008482D01*
X0009292Y0008568D01*
X0009162Y0008658D01*
X0009034Y0008751D01*
X0008908Y0008847D01*
X0008785Y0008947D01*
X0008664Y0009049D01*
X0008546Y0009154D01*
X0008431Y0009263D01*
X0008318Y0009374D01*
X0008208Y0009488D01*
X0008101Y0009605D01*
X0007997Y0009724D01*
X0007896Y0009846D01*
X0007799Y0009971D01*
X0007704Y0010098D01*
X0007613Y0010227D01*
X0007524Y0010358D01*
X0007440Y0010492D01*
X0007358Y0010628D01*
X0007280Y0010765D01*
X0007206Y0010905D01*
X0007135Y0011047D01*
X0007067Y0011190D01*
X0007003Y0011335D01*
X0006943Y0011481D01*
X0006887Y0011629D01*
X0006834Y0011778D01*
X0006785Y0011929D01*
X0006740Y0012081D01*
X0006699Y0012234D01*
X0006661Y0012387D01*
X0006628Y0012542D01*
X0006598Y0012698D01*
X0006572Y0012854D01*
X0006551Y0013011D01*
X0006533Y0013168D01*
X0006519Y0013326D01*
X0006509Y0013484D01*
X0006503Y0013642D01*
X0006501Y0013800D01*
X0006501Y0168800D02*
X0006503Y0168958D01*
X0006509Y0169116D01*
X0006519Y0169274D01*
X0006533Y0169432D01*
X0006551Y0169589D01*
X0006572Y0169746D01*
X0006598Y0169902D01*
X0006628Y0170058D01*
X0006661Y0170213D01*
X0006699Y0170366D01*
X0006740Y0170519D01*
X0006785Y0170671D01*
X0006834Y0170822D01*
X0006887Y0170971D01*
X0006943Y0171119D01*
X0007003Y0171265D01*
X0007067Y0171410D01*
X0007135Y0171553D01*
X0007206Y0171695D01*
X0007280Y0171835D01*
X0007358Y0171972D01*
X0007440Y0172108D01*
X0007524Y0172242D01*
X0007613Y0172373D01*
X0007704Y0172502D01*
X0007799Y0172629D01*
X0007896Y0172754D01*
X0007997Y0172876D01*
X0008101Y0172995D01*
X0008208Y0173112D01*
X0008318Y0173226D01*
X0008431Y0173337D01*
X0008546Y0173446D01*
X0008664Y0173551D01*
X0008785Y0173653D01*
X0008908Y0173753D01*
X0009034Y0173849D01*
X0009162Y0173942D01*
X0009292Y0174032D01*
X0009425Y0174118D01*
X0009560Y0174202D01*
X0009696Y0174281D01*
X0009835Y0174358D01*
X0009976Y0174430D01*
X0010118Y0174500D01*
X0010262Y0174565D01*
X0010408Y0174627D01*
X0010555Y0174685D01*
X0010704Y0174740D01*
X0010854Y0174791D01*
X0011005Y0174838D01*
X0011157Y0174881D01*
X0011310Y0174920D01*
X0011465Y0174956D01*
X0011620Y0174987D01*
X0011776Y0175015D01*
X0011932Y0175039D01*
X0012089Y0175059D01*
X0012247Y0175075D01*
X0012404Y0175087D01*
X0012563Y0175095D01*
X0012721Y0175099D01*
X0012879Y0175099D01*
X0013037Y0175095D01*
X0013196Y0175087D01*
X0013353Y0175075D01*
X0013511Y0175059D01*
X0013668Y0175039D01*
X0013824Y0175015D01*
X0013980Y0174987D01*
X0014135Y0174956D01*
X0014290Y0174920D01*
X0014443Y0174881D01*
X0014595Y0174838D01*
X0014746Y0174791D01*
X0014896Y0174740D01*
X0015045Y0174685D01*
X0015192Y0174627D01*
X0015338Y0174565D01*
X0015482Y0174500D01*
X0015624Y0174430D01*
X0015765Y0174358D01*
X0015904Y0174281D01*
X0016040Y0174202D01*
X0016175Y0174118D01*
X0016308Y0174032D01*
X0016438Y0173942D01*
X0016566Y0173849D01*
X0016692Y0173753D01*
X0016815Y0173653D01*
X0016936Y0173551D01*
X0017054Y0173446D01*
X0017169Y0173337D01*
X0017282Y0173226D01*
X0017392Y0173112D01*
X0017499Y0172995D01*
X0017603Y0172876D01*
X0017704Y0172754D01*
X0017801Y0172629D01*
X0017896Y0172502D01*
X0017987Y0172373D01*
X0018076Y0172242D01*
X0018160Y0172108D01*
X0018242Y0171972D01*
X0018320Y0171835D01*
X0018394Y0171695D01*
X0018465Y0171553D01*
X0018533Y0171410D01*
X0018597Y0171265D01*
X0018657Y0171119D01*
X0018713Y0170971D01*
X0018766Y0170822D01*
X0018815Y0170671D01*
X0018860Y0170519D01*
X0018901Y0170366D01*
X0018939Y0170213D01*
X0018972Y0170058D01*
X0019002Y0169902D01*
X0019028Y0169746D01*
X0019049Y0169589D01*
X0019067Y0169432D01*
X0019081Y0169274D01*
X0019091Y0169116D01*
X0019097Y0168958D01*
X0019099Y0168800D01*
X0019097Y0168642D01*
X0019091Y0168484D01*
X0019081Y0168326D01*
X0019067Y0168168D01*
X0019049Y0168011D01*
X0019028Y0167854D01*
X0019002Y0167698D01*
X0018972Y0167542D01*
X0018939Y0167387D01*
X0018901Y0167234D01*
X0018860Y0167081D01*
X0018815Y0166929D01*
X0018766Y0166778D01*
X0018713Y0166629D01*
X0018657Y0166481D01*
X0018597Y0166335D01*
X0018533Y0166190D01*
X0018465Y0166047D01*
X0018394Y0165905D01*
X0018320Y0165765D01*
X0018242Y0165628D01*
X0018160Y0165492D01*
X0018076Y0165358D01*
X0017987Y0165227D01*
X0017896Y0165098D01*
X0017801Y0164971D01*
X0017704Y0164846D01*
X0017603Y0164724D01*
X0017499Y0164605D01*
X0017392Y0164488D01*
X0017282Y0164374D01*
X0017169Y0164263D01*
X0017054Y0164154D01*
X0016936Y0164049D01*
X0016815Y0163947D01*
X0016692Y0163847D01*
X0016566Y0163751D01*
X0016438Y0163658D01*
X0016308Y0163568D01*
X0016175Y0163482D01*
X0016040Y0163398D01*
X0015904Y0163319D01*
X0015765Y0163242D01*
X0015624Y0163170D01*
X0015482Y0163100D01*
X0015338Y0163035D01*
X0015192Y0162973D01*
X0015045Y0162915D01*
X0014896Y0162860D01*
X0014746Y0162809D01*
X0014595Y0162762D01*
X0014443Y0162719D01*
X0014290Y0162680D01*
X0014135Y0162644D01*
X0013980Y0162613D01*
X0013824Y0162585D01*
X0013668Y0162561D01*
X0013511Y0162541D01*
X0013353Y0162525D01*
X0013196Y0162513D01*
X0013037Y0162505D01*
X0012879Y0162501D01*
X0012721Y0162501D01*
X0012563Y0162505D01*
X0012404Y0162513D01*
X0012247Y0162525D01*
X0012089Y0162541D01*
X0011932Y0162561D01*
X0011776Y0162585D01*
X0011620Y0162613D01*
X0011465Y0162644D01*
X0011310Y0162680D01*
X0011157Y0162719D01*
X0011005Y0162762D01*
X0010854Y0162809D01*
X0010704Y0162860D01*
X0010555Y0162915D01*
X0010408Y0162973D01*
X0010262Y0163035D01*
X0010118Y0163100D01*
X0009976Y0163170D01*
X0009835Y0163242D01*
X0009696Y0163319D01*
X0009560Y0163398D01*
X0009425Y0163482D01*
X0009292Y0163568D01*
X0009162Y0163658D01*
X0009034Y0163751D01*
X0008908Y0163847D01*
X0008785Y0163947D01*
X0008664Y0164049D01*
X0008546Y0164154D01*
X0008431Y0164263D01*
X0008318Y0164374D01*
X0008208Y0164488D01*
X0008101Y0164605D01*
X0007997Y0164724D01*
X0007896Y0164846D01*
X0007799Y0164971D01*
X0007704Y0165098D01*
X0007613Y0165227D01*
X0007524Y0165358D01*
X0007440Y0165492D01*
X0007358Y0165628D01*
X0007280Y0165765D01*
X0007206Y0165905D01*
X0007135Y0166047D01*
X0007067Y0166190D01*
X0007003Y0166335D01*
X0006943Y0166481D01*
X0006887Y0166629D01*
X0006834Y0166778D01*
X0006785Y0166929D01*
X0006740Y0167081D01*
X0006699Y0167234D01*
X0006661Y0167387D01*
X0006628Y0167542D01*
X0006598Y0167698D01*
X0006572Y0167854D01*
X0006551Y0168011D01*
X0006533Y0168168D01*
X0006519Y0168326D01*
X0006509Y0168484D01*
X0006503Y0168642D01*
X0006501Y0168800D01*
X0161501Y0168800D02*
X0161503Y0168958D01*
X0161509Y0169116D01*
X0161519Y0169274D01*
X0161533Y0169432D01*
X0161551Y0169589D01*
X0161572Y0169746D01*
X0161598Y0169902D01*
X0161628Y0170058D01*
X0161661Y0170213D01*
X0161699Y0170366D01*
X0161740Y0170519D01*
X0161785Y0170671D01*
X0161834Y0170822D01*
X0161887Y0170971D01*
X0161943Y0171119D01*
X0162003Y0171265D01*
X0162067Y0171410D01*
X0162135Y0171553D01*
X0162206Y0171695D01*
X0162280Y0171835D01*
X0162358Y0171972D01*
X0162440Y0172108D01*
X0162524Y0172242D01*
X0162613Y0172373D01*
X0162704Y0172502D01*
X0162799Y0172629D01*
X0162896Y0172754D01*
X0162997Y0172876D01*
X0163101Y0172995D01*
X0163208Y0173112D01*
X0163318Y0173226D01*
X0163431Y0173337D01*
X0163546Y0173446D01*
X0163664Y0173551D01*
X0163785Y0173653D01*
X0163908Y0173753D01*
X0164034Y0173849D01*
X0164162Y0173942D01*
X0164292Y0174032D01*
X0164425Y0174118D01*
X0164560Y0174202D01*
X0164696Y0174281D01*
X0164835Y0174358D01*
X0164976Y0174430D01*
X0165118Y0174500D01*
X0165262Y0174565D01*
X0165408Y0174627D01*
X0165555Y0174685D01*
X0165704Y0174740D01*
X0165854Y0174791D01*
X0166005Y0174838D01*
X0166157Y0174881D01*
X0166310Y0174920D01*
X0166465Y0174956D01*
X0166620Y0174987D01*
X0166776Y0175015D01*
X0166932Y0175039D01*
X0167089Y0175059D01*
X0167247Y0175075D01*
X0167404Y0175087D01*
X0167563Y0175095D01*
X0167721Y0175099D01*
X0167879Y0175099D01*
X0168037Y0175095D01*
X0168196Y0175087D01*
X0168353Y0175075D01*
X0168511Y0175059D01*
X0168668Y0175039D01*
X0168824Y0175015D01*
X0168980Y0174987D01*
X0169135Y0174956D01*
X0169290Y0174920D01*
X0169443Y0174881D01*
X0169595Y0174838D01*
X0169746Y0174791D01*
X0169896Y0174740D01*
X0170045Y0174685D01*
X0170192Y0174627D01*
X0170338Y0174565D01*
X0170482Y0174500D01*
X0170624Y0174430D01*
X0170765Y0174358D01*
X0170904Y0174281D01*
X0171040Y0174202D01*
X0171175Y0174118D01*
X0171308Y0174032D01*
X0171438Y0173942D01*
X0171566Y0173849D01*
X0171692Y0173753D01*
X0171815Y0173653D01*
X0171936Y0173551D01*
X0172054Y0173446D01*
X0172169Y0173337D01*
X0172282Y0173226D01*
X0172392Y0173112D01*
X0172499Y0172995D01*
X0172603Y0172876D01*
X0172704Y0172754D01*
X0172801Y0172629D01*
X0172896Y0172502D01*
X0172987Y0172373D01*
X0173076Y0172242D01*
X0173160Y0172108D01*
X0173242Y0171972D01*
X0173320Y0171835D01*
X0173394Y0171695D01*
X0173465Y0171553D01*
X0173533Y0171410D01*
X0173597Y0171265D01*
X0173657Y0171119D01*
X0173713Y0170971D01*
X0173766Y0170822D01*
X0173815Y0170671D01*
X0173860Y0170519D01*
X0173901Y0170366D01*
X0173939Y0170213D01*
X0173972Y0170058D01*
X0174002Y0169902D01*
X0174028Y0169746D01*
X0174049Y0169589D01*
X0174067Y0169432D01*
X0174081Y0169274D01*
X0174091Y0169116D01*
X0174097Y0168958D01*
X0174099Y0168800D01*
X0174097Y0168642D01*
X0174091Y0168484D01*
X0174081Y0168326D01*
X0174067Y0168168D01*
X0174049Y0168011D01*
X0174028Y0167854D01*
X0174002Y0167698D01*
X0173972Y0167542D01*
X0173939Y0167387D01*
X0173901Y0167234D01*
X0173860Y0167081D01*
X0173815Y0166929D01*
X0173766Y0166778D01*
X0173713Y0166629D01*
X0173657Y0166481D01*
X0173597Y0166335D01*
X0173533Y0166190D01*
X0173465Y0166047D01*
X0173394Y0165905D01*
X0173320Y0165765D01*
X0173242Y0165628D01*
X0173160Y0165492D01*
X0173076Y0165358D01*
X0172987Y0165227D01*
X0172896Y0165098D01*
X0172801Y0164971D01*
X0172704Y0164846D01*
X0172603Y0164724D01*
X0172499Y0164605D01*
X0172392Y0164488D01*
X0172282Y0164374D01*
X0172169Y0164263D01*
X0172054Y0164154D01*
X0171936Y0164049D01*
X0171815Y0163947D01*
X0171692Y0163847D01*
X0171566Y0163751D01*
X0171438Y0163658D01*
X0171308Y0163568D01*
X0171175Y0163482D01*
X0171040Y0163398D01*
X0170904Y0163319D01*
X0170765Y0163242D01*
X0170624Y0163170D01*
X0170482Y0163100D01*
X0170338Y0163035D01*
X0170192Y0162973D01*
X0170045Y0162915D01*
X0169896Y0162860D01*
X0169746Y0162809D01*
X0169595Y0162762D01*
X0169443Y0162719D01*
X0169290Y0162680D01*
X0169135Y0162644D01*
X0168980Y0162613D01*
X0168824Y0162585D01*
X0168668Y0162561D01*
X0168511Y0162541D01*
X0168353Y0162525D01*
X0168196Y0162513D01*
X0168037Y0162505D01*
X0167879Y0162501D01*
X0167721Y0162501D01*
X0167563Y0162505D01*
X0167404Y0162513D01*
X0167247Y0162525D01*
X0167089Y0162541D01*
X0166932Y0162561D01*
X0166776Y0162585D01*
X0166620Y0162613D01*
X0166465Y0162644D01*
X0166310Y0162680D01*
X0166157Y0162719D01*
X0166005Y0162762D01*
X0165854Y0162809D01*
X0165704Y0162860D01*
X0165555Y0162915D01*
X0165408Y0162973D01*
X0165262Y0163035D01*
X0165118Y0163100D01*
X0164976Y0163170D01*
X0164835Y0163242D01*
X0164696Y0163319D01*
X0164560Y0163398D01*
X0164425Y0163482D01*
X0164292Y0163568D01*
X0164162Y0163658D01*
X0164034Y0163751D01*
X0163908Y0163847D01*
X0163785Y0163947D01*
X0163664Y0164049D01*
X0163546Y0164154D01*
X0163431Y0164263D01*
X0163318Y0164374D01*
X0163208Y0164488D01*
X0163101Y0164605D01*
X0162997Y0164724D01*
X0162896Y0164846D01*
X0162799Y0164971D01*
X0162704Y0165098D01*
X0162613Y0165227D01*
X0162524Y0165358D01*
X0162440Y0165492D01*
X0162358Y0165628D01*
X0162280Y0165765D01*
X0162206Y0165905D01*
X0162135Y0166047D01*
X0162067Y0166190D01*
X0162003Y0166335D01*
X0161943Y0166481D01*
X0161887Y0166629D01*
X0161834Y0166778D01*
X0161785Y0166929D01*
X0161740Y0167081D01*
X0161699Y0167234D01*
X0161661Y0167387D01*
X0161628Y0167542D01*
X0161598Y0167698D01*
X0161572Y0167854D01*
X0161551Y0168011D01*
X0161533Y0168168D01*
X0161519Y0168326D01*
X0161509Y0168484D01*
X0161503Y0168642D01*
X0161501Y0168800D01*
X0161501Y0013800D02*
X0161503Y0013958D01*
X0161509Y0014116D01*
X0161519Y0014274D01*
X0161533Y0014432D01*
X0161551Y0014589D01*
X0161572Y0014746D01*
X0161598Y0014902D01*
X0161628Y0015058D01*
X0161661Y0015213D01*
X0161699Y0015366D01*
X0161740Y0015519D01*
X0161785Y0015671D01*
X0161834Y0015822D01*
X0161887Y0015971D01*
X0161943Y0016119D01*
X0162003Y0016265D01*
X0162067Y0016410D01*
X0162135Y0016553D01*
X0162206Y0016695D01*
X0162280Y0016835D01*
X0162358Y0016972D01*
X0162440Y0017108D01*
X0162524Y0017242D01*
X0162613Y0017373D01*
X0162704Y0017502D01*
X0162799Y0017629D01*
X0162896Y0017754D01*
X0162997Y0017876D01*
X0163101Y0017995D01*
X0163208Y0018112D01*
X0163318Y0018226D01*
X0163431Y0018337D01*
X0163546Y0018446D01*
X0163664Y0018551D01*
X0163785Y0018653D01*
X0163908Y0018753D01*
X0164034Y0018849D01*
X0164162Y0018942D01*
X0164292Y0019032D01*
X0164425Y0019118D01*
X0164560Y0019202D01*
X0164696Y0019281D01*
X0164835Y0019358D01*
X0164976Y0019430D01*
X0165118Y0019500D01*
X0165262Y0019565D01*
X0165408Y0019627D01*
X0165555Y0019685D01*
X0165704Y0019740D01*
X0165854Y0019791D01*
X0166005Y0019838D01*
X0166157Y0019881D01*
X0166310Y0019920D01*
X0166465Y0019956D01*
X0166620Y0019987D01*
X0166776Y0020015D01*
X0166932Y0020039D01*
X0167089Y0020059D01*
X0167247Y0020075D01*
X0167404Y0020087D01*
X0167563Y0020095D01*
X0167721Y0020099D01*
X0167879Y0020099D01*
X0168037Y0020095D01*
X0168196Y0020087D01*
X0168353Y0020075D01*
X0168511Y0020059D01*
X0168668Y0020039D01*
X0168824Y0020015D01*
X0168980Y0019987D01*
X0169135Y0019956D01*
X0169290Y0019920D01*
X0169443Y0019881D01*
X0169595Y0019838D01*
X0169746Y0019791D01*
X0169896Y0019740D01*
X0170045Y0019685D01*
X0170192Y0019627D01*
X0170338Y0019565D01*
X0170482Y0019500D01*
X0170624Y0019430D01*
X0170765Y0019358D01*
X0170904Y0019281D01*
X0171040Y0019202D01*
X0171175Y0019118D01*
X0171308Y0019032D01*
X0171438Y0018942D01*
X0171566Y0018849D01*
X0171692Y0018753D01*
X0171815Y0018653D01*
X0171936Y0018551D01*
X0172054Y0018446D01*
X0172169Y0018337D01*
X0172282Y0018226D01*
X0172392Y0018112D01*
X0172499Y0017995D01*
X0172603Y0017876D01*
X0172704Y0017754D01*
X0172801Y0017629D01*
X0172896Y0017502D01*
X0172987Y0017373D01*
X0173076Y0017242D01*
X0173160Y0017108D01*
X0173242Y0016972D01*
X0173320Y0016835D01*
X0173394Y0016695D01*
X0173465Y0016553D01*
X0173533Y0016410D01*
X0173597Y0016265D01*
X0173657Y0016119D01*
X0173713Y0015971D01*
X0173766Y0015822D01*
X0173815Y0015671D01*
X0173860Y0015519D01*
X0173901Y0015366D01*
X0173939Y0015213D01*
X0173972Y0015058D01*
X0174002Y0014902D01*
X0174028Y0014746D01*
X0174049Y0014589D01*
X0174067Y0014432D01*
X0174081Y0014274D01*
X0174091Y0014116D01*
X0174097Y0013958D01*
X0174099Y0013800D01*
X0174097Y0013642D01*
X0174091Y0013484D01*
X0174081Y0013326D01*
X0174067Y0013168D01*
X0174049Y0013011D01*
X0174028Y0012854D01*
X0174002Y0012698D01*
X0173972Y0012542D01*
X0173939Y0012387D01*
X0173901Y0012234D01*
X0173860Y0012081D01*
X0173815Y0011929D01*
X0173766Y0011778D01*
X0173713Y0011629D01*
X0173657Y0011481D01*
X0173597Y0011335D01*
X0173533Y0011190D01*
X0173465Y0011047D01*
X0173394Y0010905D01*
X0173320Y0010765D01*
X0173242Y0010628D01*
X0173160Y0010492D01*
X0173076Y0010358D01*
X0172987Y0010227D01*
X0172896Y0010098D01*
X0172801Y0009971D01*
X0172704Y0009846D01*
X0172603Y0009724D01*
X0172499Y0009605D01*
X0172392Y0009488D01*
X0172282Y0009374D01*
X0172169Y0009263D01*
X0172054Y0009154D01*
X0171936Y0009049D01*
X0171815Y0008947D01*
X0171692Y0008847D01*
X0171566Y0008751D01*
X0171438Y0008658D01*
X0171308Y0008568D01*
X0171175Y0008482D01*
X0171040Y0008398D01*
X0170904Y0008319D01*
X0170765Y0008242D01*
X0170624Y0008170D01*
X0170482Y0008100D01*
X0170338Y0008035D01*
X0170192Y0007973D01*
X0170045Y0007915D01*
X0169896Y0007860D01*
X0169746Y0007809D01*
X0169595Y0007762D01*
X0169443Y0007719D01*
X0169290Y0007680D01*
X0169135Y0007644D01*
X0168980Y0007613D01*
X0168824Y0007585D01*
X0168668Y0007561D01*
X0168511Y0007541D01*
X0168353Y0007525D01*
X0168196Y0007513D01*
X0168037Y0007505D01*
X0167879Y0007501D01*
X0167721Y0007501D01*
X0167563Y0007505D01*
X0167404Y0007513D01*
X0167247Y0007525D01*
X0167089Y0007541D01*
X0166932Y0007561D01*
X0166776Y0007585D01*
X0166620Y0007613D01*
X0166465Y0007644D01*
X0166310Y0007680D01*
X0166157Y0007719D01*
X0166005Y0007762D01*
X0165854Y0007809D01*
X0165704Y0007860D01*
X0165555Y0007915D01*
X0165408Y0007973D01*
X0165262Y0008035D01*
X0165118Y0008100D01*
X0164976Y0008170D01*
X0164835Y0008242D01*
X0164696Y0008319D01*
X0164560Y0008398D01*
X0164425Y0008482D01*
X0164292Y0008568D01*
X0164162Y0008658D01*
X0164034Y0008751D01*
X0163908Y0008847D01*
X0163785Y0008947D01*
X0163664Y0009049D01*
X0163546Y0009154D01*
X0163431Y0009263D01*
X0163318Y0009374D01*
X0163208Y0009488D01*
X0163101Y0009605D01*
X0162997Y0009724D01*
X0162896Y0009846D01*
X0162799Y0009971D01*
X0162704Y0010098D01*
X0162613Y0010227D01*
X0162524Y0010358D01*
X0162440Y0010492D01*
X0162358Y0010628D01*
X0162280Y0010765D01*
X0162206Y0010905D01*
X0162135Y0011047D01*
X0162067Y0011190D01*
X0162003Y0011335D01*
X0161943Y0011481D01*
X0161887Y0011629D01*
X0161834Y0011778D01*
X0161785Y0011929D01*
X0161740Y0012081D01*
X0161699Y0012234D01*
X0161661Y0012387D01*
X0161628Y0012542D01*
X0161598Y0012698D01*
X0161572Y0012854D01*
X0161551Y0013011D01*
X0161533Y0013168D01*
X0161519Y0013326D01*
X0161509Y0013484D01*
X0161503Y0013642D01*
X0161501Y0013800D01*
D11*
X0167800Y0013800D03*
X0167800Y0168800D03*
X0012800Y0168800D03*
X0012800Y0013800D03*
D12*
X0157800Y0027800D03*
X0157800Y0037800D03*
X0167800Y0037800D03*
X0167800Y0027800D03*
X0167800Y0047800D03*
X0157800Y0047800D03*
D13*
X0118824Y0075900D03*
X0115674Y0075900D03*
X0112524Y0075900D03*
X0109375Y0075900D03*
X0106225Y0075900D03*
X0103076Y0075900D03*
X0099926Y0075900D03*
X0096776Y0075900D03*
X0096776Y0109700D03*
X0099926Y0109700D03*
X0103076Y0109700D03*
X0106225Y0109700D03*
X0109375Y0109700D03*
X0112524Y0109700D03*
X0115674Y0109700D03*
X0118824Y0109700D03*
D14*
X0124700Y0103824D03*
X0124700Y0100674D03*
X0124700Y0097524D03*
X0124700Y0094375D03*
X0124700Y0091225D03*
X0124700Y0088076D03*
X0124700Y0084926D03*
X0124700Y0081776D03*
X0090900Y0081776D03*
X0090900Y0084926D03*
X0090900Y0088076D03*
X0090900Y0091225D03*
X0090900Y0094375D03*
X0090900Y0097524D03*
X0090900Y0100674D03*
X0090900Y0103824D03*
D15*
X0087800Y0049500D03*
X0077800Y0049500D03*
X0067800Y0049500D03*
X0097800Y0049500D03*
X0107800Y0049500D03*
X0117800Y0049500D03*
X0127800Y0049500D03*
X0137800Y0049500D03*
X0137800Y0014100D03*
X0127800Y0014100D03*
X0117800Y0014100D03*
X0107800Y0014100D03*
X0097800Y0014100D03*
X0087800Y0014100D03*
X0077800Y0014100D03*
X0067800Y0014100D03*
D16*
X0083800Y0120454D03*
X0083800Y0127146D03*
X0061800Y0159454D03*
X0061800Y0166146D03*
X0099800Y0168146D03*
X0099800Y0161454D03*
X0116800Y0129146D03*
X0116800Y0122454D03*
X0138800Y0154454D03*
X0138800Y0161146D03*
X0148800Y0161146D03*
X0148800Y0154454D03*
X0157800Y0152454D03*
X0157800Y0159146D03*
D17*
X0044265Y0167800D03*
X0027335Y0167800D03*
D18*
X0138800Y0167847D03*
X0138800Y0173753D03*
X0148800Y0173753D03*
X0148800Y0167847D03*
D19*
X0140202Y0132540D03*
X0152013Y0124666D03*
X0140202Y0116792D03*
X0152013Y0108918D03*
X0140202Y0101044D03*
X0152013Y0093170D03*
X0140202Y0085296D03*
X0152013Y0077422D03*
X0140202Y0069548D03*
X0152013Y0061674D03*
X0065398Y0061674D03*
X0053587Y0069548D03*
X0065398Y0077422D03*
X0053587Y0085296D03*
X0065398Y0093170D03*
X0053587Y0101044D03*
X0065398Y0108918D03*
X0053587Y0116792D03*
X0065398Y0124666D03*
X0053587Y0132540D03*
D20*
X0093517Y0129328D03*
X0093517Y0120272D03*
X0108083Y0120272D03*
X0108083Y0129328D03*
D21*
X0167800Y0133800D03*
X0167800Y0123800D03*
X0167800Y0113800D03*
X0167800Y0103800D03*
X0167800Y0093800D03*
X0167800Y0143800D03*
D22*
X0166454Y0153800D03*
X0173146Y0153800D03*
X0108146Y0147800D03*
X0101454Y0147800D03*
X0070146Y0147800D03*
X0063454Y0147800D03*
D23*
X0033485Y0149225D02*
X0033485Y0154375D01*
X0023643Y0154375D02*
X0023643Y0149225D01*
X0013800Y0149225D02*
X0013800Y0154375D01*
X0013800Y0133375D02*
X0013800Y0128225D01*
X0023643Y0128225D02*
X0023643Y0133375D01*
X0033485Y0133375D02*
X0033485Y0128225D01*
X0033485Y0105375D02*
X0033485Y0100225D01*
X0023643Y0100225D02*
X0023643Y0105375D01*
X0013800Y0105375D02*
X0013800Y0100225D01*
X0013800Y0084375D02*
X0013800Y0079225D01*
X0023643Y0079225D02*
X0023643Y0084375D01*
X0033485Y0084375D02*
X0033485Y0079225D01*
X0033485Y0063375D02*
X0033485Y0058225D01*
X0023643Y0058225D02*
X0023643Y0063375D01*
X0013800Y0063375D02*
X0013800Y0058225D01*
X0013800Y0042375D02*
X0013800Y0037225D01*
X0023643Y0037225D02*
X0023643Y0042375D01*
X0033485Y0042375D02*
X0033485Y0037225D01*
D24*
X0164800Y0060800D02*
X0170800Y0060800D01*
X0170800Y0070800D02*
X0164800Y0070800D01*
X0164800Y0080800D02*
X0170800Y0080800D01*
D25*
X0116540Y0156681D03*
X0109060Y0156681D03*
X0109060Y0166919D03*
X0112800Y0166919D03*
X0116540Y0166919D03*
X0078540Y0166919D03*
X0074800Y0166919D03*
X0071060Y0166919D03*
X0071060Y0156681D03*
X0078540Y0156681D03*
D26*
X0087800Y0158060D03*
X0087800Y0165540D03*
X0125800Y0164540D03*
X0125800Y0157060D03*
M02*
