%
M48
M72
T01C0.0120
T02C0.0315
T03C0.0400
T04C0.1260
%
T01
X5620Y11300
X7300Y11720
X10280Y11480
X10880Y11480
X11380Y11420
X12040Y10340
X12940Y10340
X13300Y9800
X13120Y9380
X11200Y7100
X10680Y6980
X10300Y7160
X9980Y6980
X10060Y8060
X8800Y6740
X8500Y6740
X11380Y5240
T02
X1380Y15180
X2364Y15180
X3349Y15180
X3349Y13080
X2364Y13080
X1380Y13080
X1380Y10280
X2364Y10280
X3349Y10280
X3349Y8180
X2364Y8180
X1380Y8180
X1380Y6080
X2364Y6080
X3349Y6080
X3349Y3980
X2364Y3980
X1380Y3980
T03
X15780Y4780
X16780Y4780
X16780Y3780
X16780Y2780
X15780Y2780
X15780Y3780
X16780Y6080
X16780Y7080
X16780Y8080
X16780Y9380
X16780Y10380
X16780Y11380
X16780Y12380
X16780Y13380
X16780Y14380
T04
X1280Y1380
X1280Y16880
X16780Y16880
X16780Y1380
M30
